<?xml version="1.0" encoding="utf-8" standalone="no"?>
<!DOCTYPE svg PUBLIC "-//W3C//DTD SVG 1.1//EN"
  "http://www.w3.org/Graphics/SVG/1.1/DTD/svg11.dtd">
<svg xmlns:xlink="http://www.w3.org/1999/xlink" width="396pt" height="287.928pt" viewBox="0 0 396 287.928" xmlns="http://www.w3.org/2000/svg" version="1.1">
 <metadata>
  <rdf:RDF xmlns:dc="http://purl.org/dc/elements/1.1/" xmlns:cc="http://creativecommons.org/ns#" xmlns:rdf="http://www.w3.org/1999/02/22-rdf-syntax-ns#">
   <cc:Work>
    <dc:type rdf:resource="http://purl.org/dc/dcmitype/StillImage"/>
    <dc:date>2024-10-08T23:04:25.069736</dc:date>
    <dc:format>image/svg+xml</dc:format>
    <dc:creator>
     <cc:Agent>
      <dc:title>Matplotlib v3.8.3, https://matplotlib.org/</dc:title>
     </cc:Agent>
    </dc:creator>
   </cc:Work>
  </rdf:RDF>
 </metadata>
 <defs>
  <style type="text/css">*{stroke-linejoin: round; stroke-linecap: butt}</style>
 </defs>
 <g id="figure_1">
  <g id="patch_1">
   <path d="M 0 287.928 
L 396 287.928 
L 396 0 
L 0 0 
z
" style="fill: #ffffff"/>
  </g>
  <g id="axes_1">
   <g id="patch_2">
    <path d="M 49.5 251.937 
L 356.4 251.937 
L 356.4 28.7928 
L 49.5 28.7928 
z
" style="fill: #ffffff"/>
   </g>
   <g id="matplotlib.axis_1">
    <g id="xtick_1">
     <g id="line2d_1">
      <defs>
       <path id="m7ece51875b" d="M 0 0 
L 0 -5 
" style="stroke: #000000; stroke-width: 0.5"/>
      </defs>
      <g>
       <use xlink:href="#m7ece51875b" x="49.5" y="251.937" style="stroke: #000000; stroke-width: 0.5"/>
      </g>
     </g>
     <g id="text_1">
      <!-- $\mathdefault{0}$ -->
      <g transform="translate(47.26 260.755906) scale(0.07 -0.07)">
       <defs>
        <path id="DejaVuSans-30" d="M 2034 4250 
Q 1547 4250 1301 3770 
Q 1056 3291 1056 2328 
Q 1056 1369 1301 889 
Q 1547 409 2034 409 
Q 2525 409 2770 889 
Q 3016 1369 3016 2328 
Q 3016 3291 2770 3770 
Q 2525 4250 2034 4250 
z
M 2034 4750 
Q 2819 4750 3233 4129 
Q 3647 3509 3647 2328 
Q 3647 1150 3233 529 
Q 2819 -91 2034 -91 
Q 1250 -91 836 529 
Q 422 1150 422 2328 
Q 422 3509 836 4129 
Q 1250 4750 2034 4750 
z
" transform="scale(0.015625)"/>
       </defs>
       <use xlink:href="#DejaVuSans-30" transform="translate(0 0.78125)"/>
      </g>
     </g>
    </g>
    <g id="xtick_2">
     <g id="line2d_2">
      <g>
       <use xlink:href="#m7ece51875b" x="110.88" y="251.937" style="stroke: #000000; stroke-width: 0.5"/>
      </g>
     </g>
     <g id="text_2">
      <!-- $\mathdefault{2}$ -->
      <g transform="translate(108.64 260.755906) scale(0.07 -0.07)">
       <defs>
        <path id="DejaVuSans-32" d="M 1228 531 
L 3431 531 
L 3431 0 
L 469 0 
L 469 531 
Q 828 903 1448 1529 
Q 2069 2156 2228 2338 
Q 2531 2678 2651 2914 
Q 2772 3150 2772 3378 
Q 2772 3750 2511 3984 
Q 2250 4219 1831 4219 
Q 1534 4219 1204 4116 
Q 875 4013 500 3803 
L 500 4441 
Q 881 4594 1212 4672 
Q 1544 4750 1819 4750 
Q 2544 4750 2975 4387 
Q 3406 4025 3406 3419 
Q 3406 3131 3298 2873 
Q 3191 2616 2906 2266 
Q 2828 2175 2409 1742 
Q 1991 1309 1228 531 
z
" transform="scale(0.015625)"/>
       </defs>
       <use xlink:href="#DejaVuSans-32" transform="translate(0 0.78125)"/>
      </g>
     </g>
    </g>
    <g id="xtick_3">
     <g id="line2d_3">
      <g>
       <use xlink:href="#m7ece51875b" x="172.26" y="251.937" style="stroke: #000000; stroke-width: 0.5"/>
      </g>
     </g>
     <g id="text_3">
      <!-- $\mathdefault{4}$ -->
      <g transform="translate(170.02 260.755906) scale(0.07 -0.07)">
       <defs>
        <path id="DejaVuSans-34" d="M 2419 4116 
L 825 1625 
L 2419 1625 
L 2419 4116 
z
M 2253 4666 
L 3047 4666 
L 3047 1625 
L 3713 1625 
L 3713 1100 
L 3047 1100 
L 3047 0 
L 2419 0 
L 2419 1100 
L 313 1100 
L 313 1709 
L 2253 4666 
z
" transform="scale(0.015625)"/>
       </defs>
       <use xlink:href="#DejaVuSans-34" transform="translate(0 0.09375)"/>
      </g>
     </g>
    </g>
    <g id="xtick_4">
     <g id="line2d_4">
      <g>
       <use xlink:href="#m7ece51875b" x="233.64" y="251.937" style="stroke: #000000; stroke-width: 0.5"/>
      </g>
     </g>
     <g id="text_4">
      <!-- $\mathdefault{6}$ -->
      <g transform="translate(231.4 260.755906) scale(0.07 -0.07)">
       <defs>
        <path id="DejaVuSans-36" d="M 2113 2584 
Q 1688 2584 1439 2293 
Q 1191 2003 1191 1497 
Q 1191 994 1439 701 
Q 1688 409 2113 409 
Q 2538 409 2786 701 
Q 3034 994 3034 1497 
Q 3034 2003 2786 2293 
Q 2538 2584 2113 2584 
z
M 3366 4563 
L 3366 3988 
Q 3128 4100 2886 4159 
Q 2644 4219 2406 4219 
Q 1781 4219 1451 3797 
Q 1122 3375 1075 2522 
Q 1259 2794 1537 2939 
Q 1816 3084 2150 3084 
Q 2853 3084 3261 2657 
Q 3669 2231 3669 1497 
Q 3669 778 3244 343 
Q 2819 -91 2113 -91 
Q 1303 -91 875 529 
Q 447 1150 447 2328 
Q 447 3434 972 4092 
Q 1497 4750 2381 4750 
Q 2619 4750 2861 4703 
Q 3103 4656 3366 4563 
z
" transform="scale(0.015625)"/>
       </defs>
       <use xlink:href="#DejaVuSans-36" transform="translate(0 0.78125)"/>
      </g>
     </g>
    </g>
    <g id="xtick_5">
     <g id="line2d_5">
      <g>
       <use xlink:href="#m7ece51875b" x="295.02" y="251.937" style="stroke: #000000; stroke-width: 0.5"/>
      </g>
     </g>
     <g id="text_5">
      <!-- $\mathdefault{8}$ -->
      <g transform="translate(292.78 260.755906) scale(0.07 -0.07)">
       <defs>
        <path id="DejaVuSans-38" d="M 2034 2216 
Q 1584 2216 1326 1975 
Q 1069 1734 1069 1313 
Q 1069 891 1326 650 
Q 1584 409 2034 409 
Q 2484 409 2743 651 
Q 3003 894 3003 1313 
Q 3003 1734 2745 1975 
Q 2488 2216 2034 2216 
z
M 1403 2484 
Q 997 2584 770 2862 
Q 544 3141 544 3541 
Q 544 4100 942 4425 
Q 1341 4750 2034 4750 
Q 2731 4750 3128 4425 
Q 3525 4100 3525 3541 
Q 3525 3141 3298 2862 
Q 3072 2584 2669 2484 
Q 3125 2378 3379 2068 
Q 3634 1759 3634 1313 
Q 3634 634 3220 271 
Q 2806 -91 2034 -91 
Q 1263 -91 848 271 
Q 434 634 434 1313 
Q 434 1759 690 2068 
Q 947 2378 1403 2484 
z
M 1172 3481 
Q 1172 3119 1398 2916 
Q 1625 2713 2034 2713 
Q 2441 2713 2670 2916 
Q 2900 3119 2900 3481 
Q 2900 3844 2670 4047 
Q 2441 4250 2034 4250 
Q 1625 4250 1398 4047 
Q 1172 3844 1172 3481 
z
" transform="scale(0.015625)"/>
       </defs>
       <use xlink:href="#DejaVuSans-38" transform="translate(0 0.78125)"/>
      </g>
     </g>
    </g>
    <g id="xtick_6">
     <g id="line2d_6">
      <g>
       <use xlink:href="#m7ece51875b" x="356.4" y="251.937" style="stroke: #000000; stroke-width: 0.5"/>
      </g>
     </g>
     <g id="text_6">
      <!-- $\mathdefault{10}$ -->
      <g transform="translate(351.92 260.755906) scale(0.07 -0.07)">
       <defs>
        <path id="DejaVuSans-31" d="M 794 531 
L 1825 531 
L 1825 4091 
L 703 3866 
L 703 4441 
L 1819 4666 
L 2450 4666 
L 2450 531 
L 3481 531 
L 3481 0 
L 794 0 
L 794 531 
z
" transform="scale(0.015625)"/>
       </defs>
       <use xlink:href="#DejaVuSans-31" transform="translate(0 0.78125)"/>
       <use xlink:href="#DejaVuSans-30" transform="translate(63.623047 0.78125)"/>
      </g>
     </g>
    </g>
    <g id="xtick_7">
     <g id="line2d_7">
      <defs>
       <path id="me5151a28e5" d="M 0 0 
L 0 -3 
" style="stroke: #000000; stroke-width: 0.5"/>
      </defs>
      <g>
       <use xlink:href="#me5151a28e5" x="64.845" y="251.937" style="stroke: #000000; stroke-width: 0.5"/>
      </g>
     </g>
    </g>
    <g id="xtick_8">
     <g id="line2d_8">
      <g>
       <use xlink:href="#me5151a28e5" x="80.19" y="251.937" style="stroke: #000000; stroke-width: 0.5"/>
      </g>
     </g>
    </g>
    <g id="xtick_9">
     <g id="line2d_9">
      <g>
       <use xlink:href="#me5151a28e5" x="95.535" y="251.937" style="stroke: #000000; stroke-width: 0.5"/>
      </g>
     </g>
    </g>
    <g id="xtick_10">
     <g id="line2d_10">
      <g>
       <use xlink:href="#me5151a28e5" x="126.225" y="251.937" style="stroke: #000000; stroke-width: 0.5"/>
      </g>
     </g>
    </g>
    <g id="xtick_11">
     <g id="line2d_11">
      <g>
       <use xlink:href="#me5151a28e5" x="141.57" y="251.937" style="stroke: #000000; stroke-width: 0.5"/>
      </g>
     </g>
    </g>
    <g id="xtick_12">
     <g id="line2d_12">
      <g>
       <use xlink:href="#me5151a28e5" x="156.915" y="251.937" style="stroke: #000000; stroke-width: 0.5"/>
      </g>
     </g>
    </g>
    <g id="xtick_13">
     <g id="line2d_13">
      <g>
       <use xlink:href="#me5151a28e5" x="187.605" y="251.937" style="stroke: #000000; stroke-width: 0.5"/>
      </g>
     </g>
    </g>
    <g id="xtick_14">
     <g id="line2d_14">
      <g>
       <use xlink:href="#me5151a28e5" x="202.95" y="251.937" style="stroke: #000000; stroke-width: 0.5"/>
      </g>
     </g>
    </g>
    <g id="xtick_15">
     <g id="line2d_15">
      <g>
       <use xlink:href="#me5151a28e5" x="218.295" y="251.937" style="stroke: #000000; stroke-width: 0.5"/>
      </g>
     </g>
    </g>
    <g id="xtick_16">
     <g id="line2d_16">
      <g>
       <use xlink:href="#me5151a28e5" x="248.985" y="251.937" style="stroke: #000000; stroke-width: 0.5"/>
      </g>
     </g>
    </g>
    <g id="xtick_17">
     <g id="line2d_17">
      <g>
       <use xlink:href="#me5151a28e5" x="264.33" y="251.937" style="stroke: #000000; stroke-width: 0.5"/>
      </g>
     </g>
    </g>
    <g id="xtick_18">
     <g id="line2d_18">
      <g>
       <use xlink:href="#me5151a28e5" x="279.675" y="251.937" style="stroke: #000000; stroke-width: 0.5"/>
      </g>
     </g>
    </g>
    <g id="xtick_19">
     <g id="line2d_19">
      <g>
       <use xlink:href="#me5151a28e5" x="310.365" y="251.937" style="stroke: #000000; stroke-width: 0.5"/>
      </g>
     </g>
    </g>
    <g id="xtick_20">
     <g id="line2d_20">
      <g>
       <use xlink:href="#me5151a28e5" x="325.71" y="251.937" style="stroke: #000000; stroke-width: 0.5"/>
      </g>
     </g>
    </g>
    <g id="xtick_21">
     <g id="line2d_21">
      <g>
       <use xlink:href="#me5151a28e5" x="341.055" y="251.937" style="stroke: #000000; stroke-width: 0.5"/>
      </g>
     </g>
    </g>
    <g id="text_7">
     <!-- Time (years) -->
     <g transform="translate(171.103125 273.810125) scale(0.1 -0.1)">
      <defs>
       <path id="DejaVuSerif-54" d="M 1222 0 
L 1222 331 
L 1819 331 
L 1819 4294 
L 447 4294 
L 447 3566 
L 63 3566 
L 63 4666 
L 4206 4666 
L 4206 3566 
L 3822 3566 
L 3822 4294 
L 2450 4294 
L 2450 331 
L 3047 331 
L 3047 0 
L 1222 0 
z
" transform="scale(0.015625)"/>
       <path id="DejaVuSerif-69" d="M 622 4353 
Q 622 4497 726 4603 
Q 831 4709 978 4709 
Q 1122 4709 1226 4603 
Q 1331 4497 1331 4353 
Q 1331 4206 1228 4103 
Q 1125 4000 978 4000 
Q 831 4000 726 4103 
Q 622 4206 622 4353 
z
M 1356 331 
L 1900 331 
L 1900 0 
L 231 0 
L 231 331 
L 781 331 
L 781 2988 
L 231 2988 
L 231 3322 
L 1356 3322 
L 1356 331 
z
" transform="scale(0.015625)"/>
       <path id="DejaVuSerif-6d" d="M 3316 2675 
Q 3481 3041 3739 3227 
Q 3997 3413 4341 3413 
Q 4863 3413 5119 3089 
Q 5375 2766 5375 2113 
L 5375 331 
L 5894 331 
L 5894 0 
L 4300 0 
L 4300 331 
L 4800 331 
L 4800 2047 
Q 4800 2556 4650 2772 
Q 4500 2988 4153 2988 
Q 3769 2988 3567 2697 
Q 3366 2406 3366 1850 
L 3366 331 
L 3866 331 
L 3866 0 
L 2291 0 
L 2291 331 
L 2791 331 
L 2791 2069 
Q 2791 2566 2641 2777 
Q 2491 2988 2144 2988 
Q 1759 2988 1557 2697 
Q 1356 2406 1356 1850 
L 1356 331 
L 1856 331 
L 1856 0 
L 263 0 
L 263 331 
L 781 331 
L 781 2994 
L 231 2994 
L 231 3322 
L 1356 3322 
L 1356 2731 
Q 1516 3063 1762 3238 
Q 2009 3413 2322 3413 
Q 2709 3413 2968 3220 
Q 3228 3028 3316 2675 
z
" transform="scale(0.015625)"/>
       <path id="DejaVuSerif-65" d="M 3469 1600 
L 991 1600 
L 991 1575 
Q 991 903 1244 561 
Q 1497 219 1991 219 
Q 2369 219 2611 417 
Q 2853 616 2950 1006 
L 3413 1006 
Q 3275 459 2904 184 
Q 2534 -91 1931 -91 
Q 1203 -91 761 389 
Q 319 869 319 1663 
Q 319 2450 753 2931 
Q 1188 3413 1894 3413 
Q 2647 3413 3050 2948 
Q 3453 2484 3469 1600 
z
M 2791 1931 
Q 2772 2513 2545 2808 
Q 2319 3103 1894 3103 
Q 1497 3103 1269 2806 
Q 1041 2509 991 1931 
L 2791 1931 
z
" transform="scale(0.015625)"/>
       <path id="DejaVuSerif-20" transform="scale(0.015625)"/>
       <path id="DejaVuSerif-28" d="M 2041 -997 
Q 1281 -656 893 83 
Q 506 822 506 1931 
Q 506 3044 893 3783 
Q 1281 4522 2041 4863 
L 2041 4556 
Q 1559 4225 1350 3623 
Q 1141 3022 1141 1931 
Q 1141 844 1350 242 
Q 1559 -359 2041 -691 
L 2041 -997 
z
" transform="scale(0.015625)"/>
       <path id="DejaVuSerif-79" d="M 1381 -609 
L 1600 -56 
L 359 2988 
L -19 2988 
L -19 3322 
L 1509 3322 
L 1509 2988 
L 978 2988 
L 1913 703 
L 2847 2988 
L 2350 2988 
L 2350 3322 
L 3597 3322 
L 3597 2988 
L 3225 2988 
L 1703 -750 
Q 1547 -1138 1356 -1280 
Q 1166 -1422 819 -1422 
Q 672 -1422 517 -1397 
Q 363 -1372 206 -1325 
L 206 -691 
L 500 -691 
Q 519 -903 608 -995 
Q 697 -1088 884 -1088 
Q 1056 -1088 1161 -992 
Q 1266 -897 1381 -609 
z
" transform="scale(0.015625)"/>
       <path id="DejaVuSerif-61" d="M 2547 1044 
L 2547 1747 
L 1806 1747 
Q 1378 1747 1168 1562 
Q 959 1378 959 997 
Q 959 650 1171 447 
Q 1384 244 1747 244 
Q 2106 244 2326 466 
Q 2547 688 2547 1044 
z
M 3122 2075 
L 3122 331 
L 3634 331 
L 3634 0 
L 2547 0 
L 2547 359 
Q 2356 128 2106 18 
Q 1856 -91 1522 -91 
Q 969 -91 644 203 
Q 319 497 319 997 
Q 319 1513 691 1797 
Q 1063 2081 1741 2081 
L 2547 2081 
L 2547 2309 
Q 2547 2688 2317 2895 
Q 2088 3103 1672 3103 
Q 1328 3103 1125 2947 
Q 922 2791 872 2484 
L 575 2484 
L 575 3156 
Q 875 3284 1158 3348 
Q 1441 3413 1709 3413 
Q 2400 3413 2761 3070 
Q 3122 2728 3122 2075 
z
" transform="scale(0.015625)"/>
       <path id="DejaVuSerif-72" d="M 3059 3328 
L 3059 2497 
L 2728 2497 
Q 2713 2744 2591 2866 
Q 2469 2988 2234 2988 
Q 1809 2988 1582 2694 
Q 1356 2400 1356 1850 
L 1356 331 
L 2022 331 
L 2022 0 
L 263 0 
L 263 331 
L 781 331 
L 781 2994 
L 231 2994 
L 231 3322 
L 1356 3322 
L 1356 2731 
Q 1525 3078 1790 3245 
Q 2056 3413 2438 3413 
Q 2578 3413 2733 3391 
Q 2888 3369 3059 3328 
z
" transform="scale(0.015625)"/>
       <path id="DejaVuSerif-73" d="M 359 184 
L 359 959 
L 691 959 
Q 703 588 923 403 
Q 1144 219 1575 219 
Q 1963 219 2166 364 
Q 2369 509 2369 788 
Q 2369 1006 2220 1140 
Q 2072 1275 1594 1428 
L 1178 1569 
Q 750 1706 558 1912 
Q 366 2119 366 2438 
Q 366 2894 700 3153 
Q 1034 3413 1625 3413 
Q 1888 3413 2178 3344 
Q 2469 3275 2778 3144 
L 2778 2419 
L 2447 2419 
Q 2434 2741 2221 2922 
Q 2009 3103 1644 3103 
Q 1281 3103 1095 2975 
Q 909 2847 909 2591 
Q 909 2381 1050 2254 
Q 1191 2128 1613 1997 
L 2069 1856 
Q 2541 1709 2748 1489 
Q 2956 1269 2956 922 
Q 2956 450 2595 179 
Q 2234 -91 1600 -91 
Q 1278 -91 972 -22 
Q 666 47 359 184 
z
" transform="scale(0.015625)"/>
       <path id="DejaVuSerif-29" d="M 453 -997 
L 453 -691 
Q 934 -359 1145 242 
Q 1356 844 1356 1931 
Q 1356 3022 1145 3623 
Q 934 4225 453 4556 
L 453 4863 
Q 1216 4522 1603 3783 
Q 1991 3044 1991 1931 
Q 1991 822 1603 83 
Q 1216 -656 453 -997 
z
" transform="scale(0.015625)"/>
      </defs>
      <use xlink:href="#DejaVuSerif-54"/>
      <use xlink:href="#DejaVuSerif-69" x="66.699219"/>
      <use xlink:href="#DejaVuSerif-6d" x="98.681641"/>
      <use xlink:href="#DejaVuSerif-65" x="193.505859"/>
      <use xlink:href="#DejaVuSerif-20" x="252.685547"/>
      <use xlink:href="#DejaVuSerif-28" x="284.472656"/>
      <use xlink:href="#DejaVuSerif-79" x="323.486328"/>
      <use xlink:href="#DejaVuSerif-65" x="379.980469"/>
      <use xlink:href="#DejaVuSerif-61" x="439.160156"/>
      <use xlink:href="#DejaVuSerif-72" x="498.779297"/>
      <use xlink:href="#DejaVuSerif-73" x="546.582031"/>
      <use xlink:href="#DejaVuSerif-29" x="597.900391"/>
     </g>
    </g>
   </g>
   <g id="matplotlib.axis_2">
    <g id="ytick_1">
     <g id="line2d_22">
      <defs>
       <path id="m3d5c1357e4" d="M 0 0 
L 5 0 
" style="stroke: #000000; stroke-width: 0.5"/>
      </defs>
      <g>
       <use xlink:href="#m3d5c1357e4" x="49.5" y="226.189592" style="stroke: #000000; stroke-width: 0.5"/>
      </g>
     </g>
     <g id="text_8">
      <!-- $\mathdefault{20}$ -->
      <g transform="translate(37.04 228.849045) scale(0.07 -0.07)">
       <use xlink:href="#DejaVuSans-32" transform="translate(0 0.78125)"/>
       <use xlink:href="#DejaVuSans-30" transform="translate(63.623047 0.78125)"/>
      </g>
     </g>
    </g>
    <g id="ytick_2">
     <g id="line2d_23">
      <g>
       <use xlink:href="#m3d5c1357e4" x="49.5" y="194.980613" style="stroke: #000000; stroke-width: 0.5"/>
      </g>
     </g>
     <g id="text_9">
      <!-- $\mathdefault{40}$ -->
      <g transform="translate(37.04 197.640066) scale(0.07 -0.07)">
       <use xlink:href="#DejaVuSans-34" transform="translate(0 0.78125)"/>
       <use xlink:href="#DejaVuSans-30" transform="translate(63.623047 0.78125)"/>
      </g>
     </g>
    </g>
    <g id="ytick_3">
     <g id="line2d_24">
      <g>
       <use xlink:href="#m3d5c1357e4" x="49.5" y="163.771634" style="stroke: #000000; stroke-width: 0.5"/>
      </g>
     </g>
     <g id="text_10">
      <!-- $\mathdefault{60}$ -->
      <g transform="translate(37.04 166.431087) scale(0.07 -0.07)">
       <use xlink:href="#DejaVuSans-36" transform="translate(0 0.78125)"/>
       <use xlink:href="#DejaVuSans-30" transform="translate(63.623047 0.78125)"/>
      </g>
     </g>
    </g>
    <g id="ytick_4">
     <g id="line2d_25">
      <g>
       <use xlink:href="#m3d5c1357e4" x="49.5" y="132.562655" style="stroke: #000000; stroke-width: 0.5"/>
      </g>
     </g>
     <g id="text_11">
      <!-- $\mathdefault{80}$ -->
      <g transform="translate(37.04 135.222108) scale(0.07 -0.07)">
       <use xlink:href="#DejaVuSans-38" transform="translate(0 0.78125)"/>
       <use xlink:href="#DejaVuSans-30" transform="translate(63.623047 0.78125)"/>
      </g>
     </g>
    </g>
    <g id="ytick_5">
     <g id="line2d_26">
      <g>
       <use xlink:href="#m3d5c1357e4" x="49.5" y="101.353676" style="stroke: #000000; stroke-width: 0.5"/>
      </g>
     </g>
     <g id="text_12">
      <!-- $\mathdefault{100}$ -->
      <g transform="translate(32.63 104.013129) scale(0.07 -0.07)">
       <use xlink:href="#DejaVuSans-31" transform="translate(0 0.78125)"/>
       <use xlink:href="#DejaVuSans-30" transform="translate(63.623047 0.78125)"/>
       <use xlink:href="#DejaVuSans-30" transform="translate(127.246094 0.78125)"/>
      </g>
     </g>
    </g>
    <g id="ytick_6">
     <g id="line2d_27">
      <g>
       <use xlink:href="#m3d5c1357e4" x="49.5" y="70.144697" style="stroke: #000000; stroke-width: 0.5"/>
      </g>
     </g>
     <g id="text_13">
      <!-- $\mathdefault{120}$ -->
      <g transform="translate(32.63 72.80415) scale(0.07 -0.07)">
       <use xlink:href="#DejaVuSans-31" transform="translate(0 0.78125)"/>
       <use xlink:href="#DejaVuSans-32" transform="translate(63.623047 0.78125)"/>
       <use xlink:href="#DejaVuSans-30" transform="translate(127.246094 0.78125)"/>
      </g>
     </g>
    </g>
    <g id="ytick_7">
     <g id="line2d_28">
      <g>
       <use xlink:href="#m3d5c1357e4" x="49.5" y="38.935718" style="stroke: #000000; stroke-width: 0.5"/>
      </g>
     </g>
     <g id="text_14">
      <!-- $\mathdefault{140}$ -->
      <g transform="translate(32.63 41.595171) scale(0.07 -0.07)">
       <use xlink:href="#DejaVuSans-31" transform="translate(0 0.78125)"/>
       <use xlink:href="#DejaVuSans-34" transform="translate(63.623047 0.78125)"/>
       <use xlink:href="#DejaVuSans-30" transform="translate(127.246094 0.78125)"/>
      </g>
     </g>
    </g>
    <g id="ytick_8">
     <g id="line2d_29">
      <defs>
       <path id="mb2f20a21d7" d="M 0 0 
L 3 0 
" style="stroke: #000000; stroke-width: 0.5"/>
      </defs>
      <g>
       <use xlink:href="#mb2f20a21d7" x="49.5" y="249.596327" style="stroke: #000000; stroke-width: 0.5"/>
      </g>
     </g>
    </g>
    <g id="ytick_9">
     <g id="line2d_30">
      <g>
       <use xlink:href="#mb2f20a21d7" x="49.5" y="241.794082" style="stroke: #000000; stroke-width: 0.5"/>
      </g>
     </g>
    </g>
    <g id="ytick_10">
     <g id="line2d_31">
      <g>
       <use xlink:href="#mb2f20a21d7" x="49.5" y="233.991837" style="stroke: #000000; stroke-width: 0.5"/>
      </g>
     </g>
    </g>
    <g id="ytick_11">
     <g id="line2d_32">
      <g>
       <use xlink:href="#mb2f20a21d7" x="49.5" y="218.387348" style="stroke: #000000; stroke-width: 0.5"/>
      </g>
     </g>
    </g>
    <g id="ytick_12">
     <g id="line2d_33">
      <g>
       <use xlink:href="#mb2f20a21d7" x="49.5" y="210.585103" style="stroke: #000000; stroke-width: 0.5"/>
      </g>
     </g>
    </g>
    <g id="ytick_13">
     <g id="line2d_34">
      <g>
       <use xlink:href="#mb2f20a21d7" x="49.5" y="202.782858" style="stroke: #000000; stroke-width: 0.5"/>
      </g>
     </g>
    </g>
    <g id="ytick_14">
     <g id="line2d_35">
      <g>
       <use xlink:href="#mb2f20a21d7" x="49.5" y="187.178369" style="stroke: #000000; stroke-width: 0.5"/>
      </g>
     </g>
    </g>
    <g id="ytick_15">
     <g id="line2d_36">
      <g>
       <use xlink:href="#mb2f20a21d7" x="49.5" y="179.376124" style="stroke: #000000; stroke-width: 0.5"/>
      </g>
     </g>
    </g>
    <g id="ytick_16">
     <g id="line2d_37">
      <g>
       <use xlink:href="#mb2f20a21d7" x="49.5" y="171.573879" style="stroke: #000000; stroke-width: 0.5"/>
      </g>
     </g>
    </g>
    <g id="ytick_17">
     <g id="line2d_38">
      <g>
       <use xlink:href="#mb2f20a21d7" x="49.5" y="155.96939" style="stroke: #000000; stroke-width: 0.5"/>
      </g>
     </g>
    </g>
    <g id="ytick_18">
     <g id="line2d_39">
      <g>
       <use xlink:href="#mb2f20a21d7" x="49.5" y="148.167145" style="stroke: #000000; stroke-width: 0.5"/>
      </g>
     </g>
    </g>
    <g id="ytick_19">
     <g id="line2d_40">
      <g>
       <use xlink:href="#mb2f20a21d7" x="49.5" y="140.3649" style="stroke: #000000; stroke-width: 0.5"/>
      </g>
     </g>
    </g>
    <g id="ytick_20">
     <g id="line2d_41">
      <g>
       <use xlink:href="#mb2f20a21d7" x="49.5" y="124.76041" style="stroke: #000000; stroke-width: 0.5"/>
      </g>
     </g>
    </g>
    <g id="ytick_21">
     <g id="line2d_42">
      <g>
       <use xlink:href="#mb2f20a21d7" x="49.5" y="116.958166" style="stroke: #000000; stroke-width: 0.5"/>
      </g>
     </g>
    </g>
    <g id="ytick_22">
     <g id="line2d_43">
      <g>
       <use xlink:href="#mb2f20a21d7" x="49.5" y="109.155921" style="stroke: #000000; stroke-width: 0.5"/>
      </g>
     </g>
    </g>
    <g id="ytick_23">
     <g id="line2d_44">
      <g>
       <use xlink:href="#mb2f20a21d7" x="49.5" y="93.551431" style="stroke: #000000; stroke-width: 0.5"/>
      </g>
     </g>
    </g>
    <g id="ytick_24">
     <g id="line2d_45">
      <g>
       <use xlink:href="#mb2f20a21d7" x="49.5" y="85.749187" style="stroke: #000000; stroke-width: 0.5"/>
      </g>
     </g>
    </g>
    <g id="ytick_25">
     <g id="line2d_46">
      <g>
       <use xlink:href="#mb2f20a21d7" x="49.5" y="77.946942" style="stroke: #000000; stroke-width: 0.5"/>
      </g>
     </g>
    </g>
    <g id="ytick_26">
     <g id="line2d_47">
      <g>
       <use xlink:href="#mb2f20a21d7" x="49.5" y="62.342452" style="stroke: #000000; stroke-width: 0.5"/>
      </g>
     </g>
    </g>
    <g id="ytick_27">
     <g id="line2d_48">
      <g>
       <use xlink:href="#mb2f20a21d7" x="49.5" y="54.540208" style="stroke: #000000; stroke-width: 0.5"/>
      </g>
     </g>
    </g>
    <g id="ytick_28">
     <g id="line2d_49">
      <g>
       <use xlink:href="#mb2f20a21d7" x="49.5" y="46.737963" style="stroke: #000000; stroke-width: 0.5"/>
      </g>
     </g>
    </g>
    <g id="ytick_29">
     <g id="line2d_50">
      <g>
       <use xlink:href="#mb2f20a21d7" x="49.5" y="31.133473" style="stroke: #000000; stroke-width: 0.5"/>
      </g>
     </g>
    </g>
    <g id="text_15">
     <!-- Populaton -->
     <g transform="translate(26.550312 165.780525) rotate(-90) scale(0.1 -0.1)">
      <defs>
       <path id="DejaVuSerif-50" d="M 1581 2375 
L 2406 2375 
Q 2872 2375 3115 2626 
Q 3359 2878 3359 3353 
Q 3359 3831 3115 4081 
Q 2872 4331 2406 4331 
L 1581 4331 
L 1581 2375 
z
M 353 0 
L 353 331 
L 947 331 
L 947 4331 
L 353 4331 
L 353 4666 
L 2559 4666 
Q 3259 4666 3668 4311 
Q 4078 3956 4078 3353 
Q 4078 2753 3668 2397 
Q 3259 2041 2559 2041 
L 1581 2041 
L 1581 331 
L 2303 331 
L 2303 0 
L 353 0 
z
" transform="scale(0.015625)"/>
       <path id="DejaVuSerif-6f" d="M 1925 219 
Q 2388 219 2623 584 
Q 2859 950 2859 1663 
Q 2859 2375 2623 2739 
Q 2388 3103 1925 3103 
Q 1463 3103 1227 2739 
Q 991 2375 991 1663 
Q 991 950 1228 584 
Q 1466 219 1925 219 
z
M 1925 -91 
Q 1200 -91 759 389 
Q 319 869 319 1663 
Q 319 2456 758 2934 
Q 1197 3413 1925 3413 
Q 2653 3413 3092 2934 
Q 3531 2456 3531 1663 
Q 3531 869 3092 389 
Q 2653 -91 1925 -91 
z
" transform="scale(0.015625)"/>
       <path id="DejaVuSerif-70" d="M 1313 1825 
L 1313 1497 
Q 1313 897 1542 583 
Q 1772 269 2209 269 
Q 2650 269 2876 622 
Q 3103 975 3103 1663 
Q 3103 2353 2876 2703 
Q 2650 3053 2209 3053 
Q 1772 3053 1542 2737 
Q 1313 2422 1313 1825 
z
M 738 2988 
L 184 2988 
L 184 3322 
L 1313 3322 
L 1313 2803 
Q 1481 3116 1742 3264 
Q 2003 3413 2388 3413 
Q 3000 3413 3387 2928 
Q 3775 2444 3775 1663 
Q 3775 881 3387 395 
Q 3000 -91 2388 -91 
Q 2003 -91 1742 57 
Q 1481 206 1313 519 
L 1313 -997 
L 1856 -997 
L 1856 -1331 
L 184 -1331 
L 184 -997 
L 738 -997 
L 738 2988 
z
" transform="scale(0.015625)"/>
       <path id="DejaVuSerif-75" d="M 2266 3322 
L 3341 3322 
L 3341 331 
L 3884 331 
L 3884 0 
L 2766 0 
L 2766 588 
Q 2606 256 2353 82 
Q 2100 -91 1766 -91 
Q 1213 -91 952 223 
Q 691 538 691 1209 
L 691 2988 
L 172 2988 
L 172 3322 
L 1269 3322 
L 1269 1388 
Q 1269 781 1417 556 
Q 1566 331 1947 331 
Q 2347 331 2556 625 
Q 2766 919 2766 1478 
L 2766 2988 
L 2266 2988 
L 2266 3322 
z
" transform="scale(0.015625)"/>
       <path id="DejaVuSerif-6c" d="M 1313 331 
L 1856 331 
L 1856 0 
L 184 0 
L 184 331 
L 738 331 
L 738 4531 
L 184 4531 
L 184 4863 
L 1313 4863 
L 1313 331 
z
" transform="scale(0.015625)"/>
       <path id="DejaVuSerif-74" d="M 691 2988 
L 184 2988 
L 184 3322 
L 691 3322 
L 691 4353 
L 1269 4353 
L 1269 3322 
L 2350 3322 
L 2350 2988 
L 1269 2988 
L 1269 878 
Q 1269 456 1350 337 
Q 1431 219 1650 219 
Q 1875 219 1978 351 
Q 2081 484 2088 781 
L 2522 781 
Q 2497 328 2275 118 
Q 2053 -91 1600 -91 
Q 1103 -91 897 129 
Q 691 350 691 878 
L 691 2988 
z
" transform="scale(0.015625)"/>
       <path id="DejaVuSerif-6e" d="M 263 0 
L 263 331 
L 781 331 
L 781 2988 
L 231 2988 
L 231 3322 
L 1356 3322 
L 1356 2731 
Q 1516 3069 1770 3241 
Q 2025 3413 2363 3413 
Q 2913 3413 3172 3097 
Q 3431 2781 3431 2113 
L 3431 331 
L 3944 331 
L 3944 0 
L 2356 0 
L 2356 331 
L 2853 331 
L 2853 1931 
Q 2853 2541 2703 2767 
Q 2553 2994 2175 2994 
Q 1775 2994 1565 2701 
Q 1356 2409 1356 1850 
L 1356 331 
L 1856 331 
L 1856 0 
L 263 0 
z
" transform="scale(0.015625)"/>
      </defs>
      <use xlink:href="#DejaVuSerif-50"/>
      <use xlink:href="#DejaVuSerif-6f" x="63.285156"/>
      <use xlink:href="#DejaVuSerif-70" x="123.490234"/>
      <use xlink:href="#DejaVuSerif-75" x="187.503906"/>
      <use xlink:href="#DejaVuSerif-6c" x="251.908203"/>
      <use xlink:href="#DejaVuSerif-61" x="283.890625"/>
      <use xlink:href="#DejaVuSerif-74" x="343.509766"/>
      <use xlink:href="#DejaVuSerif-6f" x="383.695312"/>
      <use xlink:href="#DejaVuSerif-6e" x="443.900391"/>
     </g>
    </g>
   </g>
   <g id="line2d_51">
    <path d="M 49.5 101.353676 
L 356.4 101.353676 
" clip-path="url(#pe90627bc6b)" style="fill: none; stroke-dasharray: 2.59,1.12; stroke-dashoffset: 0; stroke: #000000; stroke-width: 0.7"/>
   </g>
   <g id="line2d_52">
    <path d="M 49.5 241.794082 
L 52.6 240.31707 
L 55.7 238.71966 
L 58.8 236.995204 
L 61.9 235.136567 
L 65 233.137789 
L 68.1 230.994084 
L 71.2 228.701839 
L 74.3 226.258618 
L 77.4 223.663157 
L 80.5 220.915368 
L 83.6 218.016336 
L 86.7 214.966732 
L 89.8 211.770591 
L 92.9 208.437703 
L 96 204.978996 
L 99.1 201.406486 
L 102.2 197.733283 
L 105.3 193.973588 
L 108.4 190.142692 
L 111.5 186.256979 
L 114.6 182.333924 
L 117.7 178.392094 
L 120.8 174.451145 
L 123.9 170.531829 
L 127 166.655986 
L 130.1 162.846547 
L 133.2 159.125769 
L 136.3 155.50562 
L 139.4 151.99701 
L 142.5 148.609953 
L 145.6 145.353073 
L 148.7 142.233602 
L 151.8 139.257382 
L 154.9 136.428862 
L 158 133.7511 
L 161.1 131.225764 
L 164.2 128.85313 
L 167.3 126.632082 
L 170.4 124.560113 
L 173.5 122.633326 
L 176.6 120.846431 
L 179.7 119.192749 
L 182.8 117.664206 
L 185.9 116.25134 
L 189 114.944806 
L 192.1 113.74098 
L 195.2 112.634362 
L 198.3 111.619127 
L 201.4 110.689493 
L 204.5 109.839725 
L 207.6 109.064135 
L 210.7 108.357079 
L 213.8 107.712961 
L 216.9 107.126228 
L 220 106.591376 
L 223.1 106.103193 
L 226.2 105.658122 
L 229.3 105.253176 
L 232.4 104.88542 
L 235.5 104.551983 
L 238.6 104.250054 
L 241.7 103.976887 
L 244.8 103.729796 
L 247.9 103.506158 
L 251 103.303413 
L 254.1 103.119064 
L 257.2 102.949893 
L 260.3 102.793152 
L 263.4 102.648882 
L 266.5 102.517078 
L 269.6 102.397605 
L 272.7 102.290195 
L 275.8 102.194448 
L 278.9 102.109835 
L 282 102.035693 
L 285.1 101.97123 
L 288.2 101.915522 
L 291.3 101.867511 
L 294.4 101.826013 
L 297.5 101.789706 
L 300.6 101.757143 
L 303.7 101.726742 
L 306.8 101.69679 
L 309.9 101.665554 
L 313 101.635338 
L 316.1 101.607719 
L 319.2 101.582604 
L 322.3 101.559889 
L 325.4 101.539453 
L 328.5 101.521164 
L 331.6 101.504876 
L 334.7 101.490426 
L 337.8 101.477643 
L 340.9 101.466336 
L 344 101.456306 
L 347.1 101.447335 
L 350.2 101.439196 
L 353.3 101.431644 
L 356.4 101.424425 
" clip-path="url(#pe90627bc6b)" style="fill: none; stroke: #1f77b4; stroke-width: 0.7; stroke-linecap: square"/>
   </g>
   <g id="line2d_53">
    <path d="M 49.5 226.189592 
L 52.6 223.591122 
L 55.7 220.839802 
L 58.8 217.936933 
L 61.9 214.88548 
L 65 211.690432 
L 68.1 208.358808 
L 71.2 204.899655 
L 74.3 201.324045 
L 77.4 197.645081 
L 80.5 193.877891 
L 83.6 190.039633 
L 86.7 186.148052 
L 89.8 182.219664 
L 92.9 178.277278 
L 96 174.342865 
L 99.1 170.436888 
L 102.2 166.578301 
L 105.3 162.784547 
L 108.4 159.07156 
L 111.5 155.453766 
L 114.6 151.94408 
L 117.7 148.553909 
L 120.8 145.293148 
L 123.9 142.170186 
L 127 139.191901 
L 130.1 136.363661 
L 133.2 133.689324 
L 136.3 131.171242 
L 139.4 128.809548 
L 142.5 126.59714 
L 145.6 124.529095 
L 148.7 122.601188 
L 151.8 120.808797 
L 154.9 119.1469 
L 158 117.610078 
L 161.1 116.192511 
L 164.2 114.887985 
L 167.3 113.689882 
L 170.4 112.591191 
L 173.5 111.584498 
L 176.6 110.661993 
L 179.7 109.815573 
L 182.8 109.039174 
L 185.9 108.328745 
L 189 107.680291 
L 192.1 107.089815 
L 195.2 106.553311 
L 198.3 106.066773 
L 201.4 105.626187 
L 204.5 105.227538 
L 207.6 104.866802 
L 210.7 104.539955 
L 213.8 104.242966 
L 216.9 103.9718 
L 220 103.722567 
L 223.1 103.493567 
L 226.2 103.284233 
L 229.3 103.093897 
L 232.4 102.921776 
L 235.5 102.766975 
L 238.6 102.62849 
L 241.7 102.505202 
L 244.8 102.395883 
L 247.9 102.299192 
L 251 102.213676 
L 254.1 102.137771 
L 257.2 102.069801 
L 260.3 102.007979 
L 263.4 101.950405 
L 266.5 101.895078 
L 269.6 101.842123 
L 272.7 101.792745 
L 275.8 101.747125 
L 278.9 101.705384 
L 282 101.667586 
L 285.1 101.633734 
L 288.2 101.603774 
L 291.3 101.577592 
L 294.4 101.555015 
L 297.5 101.535812 
L 300.6 101.519693 
L 303.7 101.506308 
L 306.8 101.49525 
L 309.9 101.486051 
L 313 101.478186 
L 316.1 101.471069 
L 319.2 101.464059 
L 322.3 101.456451 
L 325.4 101.447516 
L 328.5 101.438488 
L 331.6 101.430314 
L 334.7 101.422926 
L 337.8 101.416257 
L 340.9 101.410243 
L 344 101.404823 
L 347.1 101.399937 
L 350.2 101.395527 
L 353.3 101.391537 
L 356.4 101.387914 
" clip-path="url(#pe90627bc6b)" style="fill: none; stroke: #ff7f0e; stroke-width: 0.7; stroke-linecap: square"/>
   </g>
   <g id="line2d_54">
    <path d="M 49.5 194.980613 
L 52.6 191.162385 
L 55.7 187.284339 
L 58.8 183.365487 
L 61.9 179.42737 
L 65 175.490617 
L 68.1 171.57493 
L 71.2 167.699079 
L 74.3 163.880906 
L 77.4 160.137322 
L 80.5 156.48431 
L 83.6 152.936922 
L 86.7 149.50928 
L 89.8 146.213362 
L 92.9 143.056238 
L 96 140.043155 
L 99.1 137.178083 
L 102.2 134.46371 
L 105.3 131.901446 
L 108.4 129.491422 
L 111.5 127.232488 
L 114.6 125.122215 
L 117.7 123.156896 
L 120.8 121.331542 
L 123.9 119.639886 
L 127 118.074381 
L 130.1 116.626194 
L 133.2 115.2865 
L 136.3 114.049787 
L 139.4 112.911129 
L 142.5 111.865503 
L 145.6 110.90779 
L 148.7 110.032772 
L 151.8 109.235136 
L 154.9 108.50947 
L 158 107.850266 
L 161.1 107.251919 
L 164.2 106.708726 
L 167.3 106.214888 
L 170.4 105.764509 
L 173.5 105.351705 
L 176.6 104.972858 
L 179.7 104.626476 
L 182.8 104.311048 
L 185.9 104.024968 
L 189 103.766531 
L 192.1 103.533936 
L 195.2 103.325281 
L 198.3 103.13857 
L 201.4 102.971707 
L 204.5 102.822498 
L 207.6 102.688653 
L 210.7 102.567782 
L 213.8 102.4574 
L 216.9 102.354922 
L 220 102.258625 
L 223.1 102.169385 
L 226.2 102.087324 
L 229.3 102.012435 
L 232.4 101.944635 
L 235.5 101.883762 
L 238.6 101.829582 
L 241.7 101.78178 
L 244.8 101.739966 
L 247.9 101.703676 
L 251 101.672365 
L 254.1 101.645414 
L 257.2 101.622128 
L 260.3 101.601733 
L 263.4 101.583381 
L 266.5 101.566145 
L 269.6 101.549025 
L 272.7 101.531026 
L 275.8 101.512972 
L 278.9 101.49559 
L 282 101.479114 
L 285.1 101.46374 
L 288.2 101.449631 
L 291.3 101.436914 
L 294.4 101.42568 
L 297.5 101.415986 
L 300.6 101.407851 
L 303.7 101.401263 
L 306.8 101.39617 
L 309.9 101.392489 
L 313 101.390097 
L 316.1 101.388841 
L 319.2 101.388528 
L 322.3 101.388933 
L 325.4 101.389793 
L 328.5 101.390812 
L 331.6 101.391658 
L 334.7 101.391962 
L 337.8 101.391322 
L 340.9 101.3893 
L 344 101.385987 
L 347.1 101.382883 
L 350.2 101.380078 
L 353.3 101.377542 
L 356.4 101.375249 
" clip-path="url(#pe90627bc6b)" style="fill: none; stroke: #2ca02c; stroke-width: 0.7; stroke-linecap: square"/>
   </g>
   <g id="line2d_55">
    <path d="M 49.5 85.749187 
L 52.6 87.382634 
L 55.7 88.835773 
L 58.8 90.14555 
L 61.9 91.321215 
L 65 92.368819 
L 68.1 93.295644 
L 71.2 94.110197 
L 74.3 94.822218 
L 77.4 95.442672 
L 80.5 95.983756 
L 83.6 96.458893 
L 86.7 96.882737 
L 89.8 97.271169 
L 92.9 97.641299 
L 96 98.003225 
L 99.1 98.33504 
L 102.2 98.635322 
L 105.3 98.905867 
L 108.4 99.148579 
L 111.5 99.365471 
L 114.6 99.558663 
L 117.7 99.730383 
L 120.8 99.882969 
L 123.9 100.018865 
L 127 100.140624 
L 130.1 100.250907 
L 133.2 100.352483 
L 136.3 100.448096 
L 139.4 100.537552 
L 142.5 100.620123 
L 145.6 100.695707 
L 148.7 100.76429 
L 151.8 100.825947 
L 154.9 100.880836 
L 158 100.929207 
L 161.1 100.971393 
L 164.2 101.007815 
L 167.3 101.038984 
L 170.4 101.065495 
L 173.5 101.08803 
L 176.6 101.10736 
L 179.7 101.124342 
L 182.8 101.139921 
L 185.9 101.155127 
L 189 101.171079 
L 192.1 101.188503 
L 195.2 101.205744 
L 198.3 101.222297 
L 201.4 101.237939 
L 204.5 101.25248 
L 207.6 101.265766 
L 210.7 101.277677 
L 213.8 101.288127 
L 216.9 101.297068 
L 220 101.304484 
L 223.1 101.310394 
L 226.2 101.314852 
L 229.3 101.317947 
L 232.4 101.319804 
L 235.5 101.32058 
L 238.6 101.320469 
L 241.7 101.319699 
L 244.8 101.318533 
L 247.9 101.317269 
L 251 101.316239 
L 254.1 101.31581 
L 257.2 101.316385 
L 260.3 101.318399 
L 263.4 101.321938 
L 266.5 101.326068 
L 269.6 101.330546 
L 272.7 101.335204 
L 275.8 101.339887 
L 278.9 101.344455 
L 282 101.348787 
L 285.1 101.352773 
L 288.2 101.356322 
L 291.3 101.359355 
L 294.4 101.361811 
L 297.5 101.363643 
L 300.6 101.36482 
L 303.7 101.365326 
L 306.8 101.365161 
L 309.9 101.364339 
L 313 101.362891 
L 316.1 101.360862 
L 319.2 101.358314 
L 322.3 101.355322 
L 325.4 101.351979 
L 328.5 101.348391 
L 331.6 101.34468 
L 334.7 101.340986 
L 337.8 101.33746 
L 340.9 101.334272 
L 344 101.331604 
L 347.1 101.329658 
L 350.2 101.328646 
L 353.3 101.3288 
L 356.4 101.330364 
" clip-path="url(#pe90627bc6b)" style="fill: none; stroke: #d62728; stroke-width: 0.7; stroke-linecap: square"/>
   </g>
   <g id="line2d_56">
    <path d="M 49.5 70.144697 
L 52.6 73.674986 
L 55.7 76.765512 
L 58.8 79.497588 
L 61.9 81.898259 
L 65 83.994801 
L 68.1 85.817153 
L 71.2 87.397917 
L 74.3 88.772357 
L 77.4 89.978401 
L 80.5 91.05664 
L 83.6 92.050326 
L 86.7 92.988308 
L 89.8 93.836555 
L 92.9 94.59709 
L 96 95.277047 
L 99.1 95.883567 
L 102.2 96.423801 
L 105.3 96.90491 
L 108.4 97.33406 
L 111.5 97.71843 
L 114.6 98.065204 
L 117.7 98.381577 
L 120.8 98.672979 
L 123.9 98.938976 
L 127 99.180357 
L 130.1 99.398191 
L 133.2 99.593685 
L 136.3 99.768191 
L 139.4 99.923197 
L 142.5 100.060336 
L 145.6 100.181377 
L 148.7 100.288234 
L 151.8 100.382958 
L 154.9 100.467744 
L 158 100.544926 
L 161.1 100.616977 
L 164.2 100.686413 
L 167.3 100.752326 
L 170.4 100.813465 
L 173.5 100.869664 
L 176.6 100.920831 
L 179.7 100.966943 
L 182.8 101.008052 
L 185.9 101.044279 
L 189 101.075816 
L 192.1 101.102931 
L 195.2 101.125959 
L 198.3 101.145309 
L 201.4 101.161462 
L 204.5 101.17497 
L 207.6 101.186457 
L 210.7 101.196619 
L 213.8 101.206222 
L 216.9 101.216107 
L 220 101.227183 
L 223.1 101.23964 
L 226.2 101.25205 
L 229.3 101.264118 
L 232.4 101.275635 
L 235.5 101.286419 
L 238.6 101.296321 
L 241.7 101.305217 
L 244.8 101.313014 
L 247.9 101.319648 
L 251 101.325084 
L 254.1 101.329315 
L 257.2 101.332364 
L 260.3 101.334282 
L 263.4 101.335151 
L 266.5 101.335079 
L 269.6 101.334206 
L 272.7 101.332699 
L 275.8 101.330755 
L 278.9 101.3286 
L 282 101.326488 
L 285.1 101.324702 
L 288.2 101.323556 
L 291.3 101.323391 
L 294.4 101.324578 
L 297.5 101.327191 
L 300.6 101.329847 
L 303.7 101.332322 
L 306.8 101.334605 
L 309.9 101.336687 
L 313 101.338563 
L 316.1 101.340233 
L 319.2 101.341698 
L 322.3 101.342965 
L 325.4 101.344041 
L 328.5 101.344939 
L 331.6 101.345676 
L 334.7 101.346271 
L 337.8 101.346746 
L 340.9 101.347129 
L 344 101.347447 
L 347.1 101.347736 
L 350.2 101.348031 
L 353.3 101.348373 
L 356.4 101.348804 
" clip-path="url(#pe90627bc6b)" style="fill: none; stroke: #9467bd; stroke-width: 0.7; stroke-linecap: square"/>
   </g>
   <g id="line2d_57">
    <path d="M 49.5 38.935718 
L 52.6 47.020633 
L 55.7 53.870764 
L 58.8 59.715564 
L 61.9 64.674544 
L 65 68.873167 
L 68.1 72.443095 
L 71.2 75.522188 
L 74.3 78.254502 
L 77.4 80.755414 
L 80.5 82.977342 
L 83.6 84.937304 
L 86.7 86.664838 
L 89.8 88.188244 
L 92.9 89.534583 
L 96 90.729682 
L 99.1 91.798128 
L 102.2 92.762886 
L 105.3 93.634407 
L 108.4 94.417482 
L 111.5 95.118583 
L 114.6 95.7443 
L 117.7 96.301345 
L 120.8 96.796549 
L 123.9 97.236861 
L 127 97.629353 
L 130.1 97.981214 
L 133.2 98.299754 
L 136.3 98.592402 
L 139.4 98.86332 
L 142.5 99.11047 
L 145.6 99.334662 
L 148.7 99.536908 
L 151.8 99.718348 
L 154.9 99.880257 
L 158 100.024038 
L 161.1 100.151227 
L 164.2 100.263491 
L 167.3 100.362628 
L 170.4 100.450568 
L 173.5 100.52937 
L 176.6 100.601227 
L 179.7 100.668462 
L 182.8 100.733355 
L 185.9 100.794846 
L 189 100.851928 
L 192.1 100.904426 
L 195.2 100.952229 
L 198.3 100.995301 
L 201.4 101.033673 
L 204.5 101.067446 
L 207.6 101.096791 
L 210.7 101.121951 
L 213.8 101.143237 
L 216.9 101.161029 
L 220 101.175779 
L 223.1 101.188007 
L 226.2 101.198305 
L 229.3 101.207334 
L 232.4 101.215824 
L 235.5 101.224576 
L 238.6 101.23446 
L 241.7 101.245929 
L 244.8 101.257549 
L 247.9 101.268925 
L 251 101.279847 
L 254.1 101.290132 
L 257.2 101.299625 
L 260.3 101.308199 
L 263.4 101.315755 
L 266.5 101.32222 
L 269.6 101.327552 
L 272.7 101.331735 
L 275.8 101.33478 
L 278.9 101.336728 
L 282 101.337646 
L 285.1 101.33763 
L 288.2 101.336802 
L 291.3 101.335315 
L 294.4 101.333348 
L 297.5 101.331106 
L 300.6 101.328826 
L 303.7 101.326769 
L 306.8 101.325225 
L 309.9 101.324514 
L 313 101.324981 
L 316.1 101.326989 
L 319.2 101.329566 
L 322.3 101.331909 
L 325.4 101.334032 
L 328.5 101.335948 
L 331.6 101.337672 
L 334.7 101.339219 
L 337.8 101.340605 
L 340.9 101.341844 
L 344 101.342954 
L 347.1 101.34395 
L 350.2 101.344849 
L 353.3 101.345668 
L 356.4 101.346425 
" clip-path="url(#pe90627bc6b)" style="fill: none; stroke: #8c564b; stroke-width: 0.7; stroke-linecap: square"/>
   </g>
   <g id="patch_3">
    <path d="M 49.5 251.937 
L 49.5 28.7928 
" style="fill: none; stroke: #000000; stroke-width: 0.5; stroke-linejoin: miter; stroke-linecap: square"/>
   </g>
   <g id="patch_4">
    <path d="M 356.4 251.937 
L 356.4 28.7928 
" style="fill: none; stroke: #000000; stroke-width: 0.5; stroke-linejoin: miter; stroke-linecap: square"/>
   </g>
   <g id="patch_5">
    <path d="M 49.5 251.937 
L 356.4 251.937 
" style="fill: none; stroke: #000000; stroke-width: 0.5; stroke-linejoin: miter; stroke-linecap: square"/>
   </g>
   <g id="patch_6">
    <path d="M 49.5 28.7928 
L 356.4 28.7928 
" style="fill: none; stroke: #000000; stroke-width: 0.5; stroke-linejoin: miter; stroke-linecap: square"/>
   </g>
   <g id="legend_1">
    <g id="patch_7">
     <path d="M 239.873438 246.937 
L 349.4 246.937 
Q 351.4 246.937 351.4 244.937 
L 351.4 143.190125 
Q 351.4 141.190125 349.4 141.190125 
L 239.873438 141.190125 
Q 237.873438 141.190125 237.873438 143.190125 
L 237.873438 244.937 
Q 237.873438 246.937 239.873438 246.937 
z
" style="fill: #ffffff; opacity: 0.8; stroke: #cccccc; stroke-linejoin: miter"/>
    </g>
    <g id="line2d_58">
     <path d="M 241.873438 149.288563 
L 261.873438 149.288563 
" style="fill: none; stroke-dasharray: 2.59,1.12; stroke-dashoffset: 0; stroke: #000000; stroke-width: 0.7"/>
    </g>
    <g id="line2d_59"/>
    <g id="text_16">
     <!-- Capacity = 100 -->
     <g transform="translate(269.873438 152.788563) scale(0.1 -0.1)">
      <defs>
       <path id="DejaVuSans-43" d="M 4122 4306 
L 4122 3641 
Q 3803 3938 3442 4084 
Q 3081 4231 2675 4231 
Q 1875 4231 1450 3742 
Q 1025 3253 1025 2328 
Q 1025 1406 1450 917 
Q 1875 428 2675 428 
Q 3081 428 3442 575 
Q 3803 722 4122 1019 
L 4122 359 
Q 3791 134 3420 21 
Q 3050 -91 2638 -91 
Q 1578 -91 968 557 
Q 359 1206 359 2328 
Q 359 3453 968 4101 
Q 1578 4750 2638 4750 
Q 3056 4750 3426 4639 
Q 3797 4528 4122 4306 
z
" transform="scale(0.015625)"/>
       <path id="DejaVuSans-61" d="M 2194 1759 
Q 1497 1759 1228 1600 
Q 959 1441 959 1056 
Q 959 750 1161 570 
Q 1363 391 1709 391 
Q 2188 391 2477 730 
Q 2766 1069 2766 1631 
L 2766 1759 
L 2194 1759 
z
M 3341 1997 
L 3341 0 
L 2766 0 
L 2766 531 
Q 2569 213 2275 61 
Q 1981 -91 1556 -91 
Q 1019 -91 701 211 
Q 384 513 384 1019 
Q 384 1609 779 1909 
Q 1175 2209 1959 2209 
L 2766 2209 
L 2766 2266 
Q 2766 2663 2505 2880 
Q 2244 3097 1772 3097 
Q 1472 3097 1187 3025 
Q 903 2953 641 2809 
L 641 3341 
Q 956 3463 1253 3523 
Q 1550 3584 1831 3584 
Q 2591 3584 2966 3190 
Q 3341 2797 3341 1997 
z
" transform="scale(0.015625)"/>
       <path id="DejaVuSans-70" d="M 1159 525 
L 1159 -1331 
L 581 -1331 
L 581 3500 
L 1159 3500 
L 1159 2969 
Q 1341 3281 1617 3432 
Q 1894 3584 2278 3584 
Q 2916 3584 3314 3078 
Q 3713 2572 3713 1747 
Q 3713 922 3314 415 
Q 2916 -91 2278 -91 
Q 1894 -91 1617 61 
Q 1341 213 1159 525 
z
M 3116 1747 
Q 3116 2381 2855 2742 
Q 2594 3103 2138 3103 
Q 1681 3103 1420 2742 
Q 1159 2381 1159 1747 
Q 1159 1113 1420 752 
Q 1681 391 2138 391 
Q 2594 391 2855 752 
Q 3116 1113 3116 1747 
z
" transform="scale(0.015625)"/>
       <path id="DejaVuSans-63" d="M 3122 3366 
L 3122 2828 
Q 2878 2963 2633 3030 
Q 2388 3097 2138 3097 
Q 1578 3097 1268 2742 
Q 959 2388 959 1747 
Q 959 1106 1268 751 
Q 1578 397 2138 397 
Q 2388 397 2633 464 
Q 2878 531 3122 666 
L 3122 134 
Q 2881 22 2623 -34 
Q 2366 -91 2075 -91 
Q 1284 -91 818 406 
Q 353 903 353 1747 
Q 353 2603 823 3093 
Q 1294 3584 2113 3584 
Q 2378 3584 2631 3529 
Q 2884 3475 3122 3366 
z
" transform="scale(0.015625)"/>
       <path id="DejaVuSans-69" d="M 603 3500 
L 1178 3500 
L 1178 0 
L 603 0 
L 603 3500 
z
M 603 4863 
L 1178 4863 
L 1178 4134 
L 603 4134 
L 603 4863 
z
" transform="scale(0.015625)"/>
       <path id="DejaVuSans-74" d="M 1172 4494 
L 1172 3500 
L 2356 3500 
L 2356 3053 
L 1172 3053 
L 1172 1153 
Q 1172 725 1289 603 
Q 1406 481 1766 481 
L 2356 481 
L 2356 0 
L 1766 0 
Q 1100 0 847 248 
Q 594 497 594 1153 
L 594 3053 
L 172 3053 
L 172 3500 
L 594 3500 
L 594 4494 
L 1172 4494 
z
" transform="scale(0.015625)"/>
       <path id="DejaVuSans-79" d="M 2059 -325 
Q 1816 -950 1584 -1140 
Q 1353 -1331 966 -1331 
L 506 -1331 
L 506 -850 
L 844 -850 
Q 1081 -850 1212 -737 
Q 1344 -625 1503 -206 
L 1606 56 
L 191 3500 
L 800 3500 
L 1894 763 
L 2988 3500 
L 3597 3500 
L 2059 -325 
z
" transform="scale(0.015625)"/>
       <path id="DejaVuSans-20" transform="scale(0.015625)"/>
       <path id="DejaVuSans-3d" d="M 678 2906 
L 4684 2906 
L 4684 2381 
L 678 2381 
L 678 2906 
z
M 678 1631 
L 4684 1631 
L 4684 1100 
L 678 1100 
L 678 1631 
z
" transform="scale(0.015625)"/>
      </defs>
      <use xlink:href="#DejaVuSans-43"/>
      <use xlink:href="#DejaVuSans-61" x="69.824219"/>
      <use xlink:href="#DejaVuSans-70" x="131.103516"/>
      <use xlink:href="#DejaVuSans-61" x="194.580078"/>
      <use xlink:href="#DejaVuSans-63" x="255.859375"/>
      <use xlink:href="#DejaVuSans-69" x="310.839844"/>
      <use xlink:href="#DejaVuSans-74" x="338.623047"/>
      <use xlink:href="#DejaVuSans-79" x="377.832031"/>
      <use xlink:href="#DejaVuSans-20" x="437.011719"/>
      <use xlink:href="#DejaVuSans-3d" x="468.798828"/>
      <use xlink:href="#DejaVuSans-20" x="552.587891"/>
      <use xlink:href="#DejaVuSans-31" x="584.375"/>
      <use xlink:href="#DejaVuSans-30" x="647.998047"/>
      <use xlink:href="#DejaVuSans-30" x="711.621094"/>
     </g>
    </g>
    <g id="line2d_60">
     <path d="M 241.873438 163.966688 
L 261.873438 163.966688 
" style="fill: none; stroke: #1f77b4; stroke-width: 0.7; stroke-linecap: square"/>
    </g>
    <g id="line2d_61"/>
    <g id="text_17">
     <!-- $P_0$ = 10 -->
     <g transform="translate(269.873438 167.466688) scale(0.1 -0.1)">
      <defs>
       <path id="DejaVuSans-Oblique-50" d="M 1081 4666 
L 2541 4666 
Q 3178 4666 3512 4369 
Q 3847 4072 3847 3500 
Q 3847 2731 3353 2303 
Q 2859 1875 1966 1875 
L 1172 1875 
L 806 0 
L 172 0 
L 1081 4666 
z
M 1613 4147 
L 1275 2394 
L 2069 2394 
Q 2606 2394 2893 2669 
Q 3181 2944 3181 3456 
Q 3181 3784 2986 3965 
Q 2791 4147 2438 4147 
L 1613 4147 
z
" transform="scale(0.015625)"/>
      </defs>
      <use xlink:href="#DejaVuSans-Oblique-50" transform="translate(0 0.78125)"/>
      <use xlink:href="#DejaVuSans-30" transform="translate(60.302734 -15.625) scale(0.7)"/>
      <use xlink:href="#DejaVuSans-20" transform="translate(107.573242 0.78125)"/>
      <use xlink:href="#DejaVuSans-3d" transform="translate(139.360352 0.78125)"/>
      <use xlink:href="#DejaVuSans-20" transform="translate(223.149414 0.78125)"/>
      <use xlink:href="#DejaVuSans-31" transform="translate(254.936523 0.78125)"/>
      <use xlink:href="#DejaVuSans-30" transform="translate(318.55957 0.78125)"/>
     </g>
    </g>
    <g id="line2d_62">
     <path d="M 241.873438 178.644813 
L 261.873438 178.644813 
" style="fill: none; stroke: #ff7f0e; stroke-width: 0.7; stroke-linecap: square"/>
    </g>
    <g id="line2d_63"/>
    <g id="text_18">
     <!-- $P_0$ = 20 -->
     <g transform="translate(269.873438 182.144813) scale(0.1 -0.1)">
      <use xlink:href="#DejaVuSans-Oblique-50" transform="translate(0 0.78125)"/>
      <use xlink:href="#DejaVuSans-30" transform="translate(60.302734 -15.625) scale(0.7)"/>
      <use xlink:href="#DejaVuSans-20" transform="translate(107.573242 0.78125)"/>
      <use xlink:href="#DejaVuSans-3d" transform="translate(139.360352 0.78125)"/>
      <use xlink:href="#DejaVuSans-20" transform="translate(223.149414 0.78125)"/>
      <use xlink:href="#DejaVuSans-32" transform="translate(254.936523 0.78125)"/>
      <use xlink:href="#DejaVuSans-30" transform="translate(318.55957 0.78125)"/>
     </g>
    </g>
    <g id="line2d_64">
     <path d="M 241.873438 193.322938 
L 261.873438 193.322938 
" style="fill: none; stroke: #2ca02c; stroke-width: 0.7; stroke-linecap: square"/>
    </g>
    <g id="line2d_65"/>
    <g id="text_19">
     <!-- $P_0$ = 40 -->
     <g transform="translate(269.873438 196.822938) scale(0.1 -0.1)">
      <use xlink:href="#DejaVuSans-Oblique-50" transform="translate(0 0.78125)"/>
      <use xlink:href="#DejaVuSans-30" transform="translate(60.302734 -15.625) scale(0.7)"/>
      <use xlink:href="#DejaVuSans-20" transform="translate(107.573242 0.78125)"/>
      <use xlink:href="#DejaVuSans-3d" transform="translate(139.360352 0.78125)"/>
      <use xlink:href="#DejaVuSans-20" transform="translate(223.149414 0.78125)"/>
      <use xlink:href="#DejaVuSans-34" transform="translate(254.936523 0.78125)"/>
      <use xlink:href="#DejaVuSans-30" transform="translate(318.55957 0.78125)"/>
     </g>
    </g>
    <g id="line2d_66">
     <path d="M 241.873438 208.001063 
L 261.873438 208.001063 
" style="fill: none; stroke: #d62728; stroke-width: 0.7; stroke-linecap: square"/>
    </g>
    <g id="line2d_67"/>
    <g id="text_20">
     <!-- $P_0$ = 110 -->
     <g transform="translate(269.873438 211.501063) scale(0.1 -0.1)">
      <use xlink:href="#DejaVuSans-Oblique-50" transform="translate(0 0.78125)"/>
      <use xlink:href="#DejaVuSans-30" transform="translate(60.302734 -15.625) scale(0.7)"/>
      <use xlink:href="#DejaVuSans-20" transform="translate(107.573242 0.78125)"/>
      <use xlink:href="#DejaVuSans-3d" transform="translate(139.360352 0.78125)"/>
      <use xlink:href="#DejaVuSans-20" transform="translate(223.149414 0.78125)"/>
      <use xlink:href="#DejaVuSans-31" transform="translate(254.936523 0.78125)"/>
      <use xlink:href="#DejaVuSans-31" transform="translate(318.55957 0.78125)"/>
      <use xlink:href="#DejaVuSans-30" transform="translate(382.182617 0.78125)"/>
     </g>
    </g>
    <g id="line2d_68">
     <path d="M 241.873438 222.679188 
L 261.873438 222.679188 
" style="fill: none; stroke: #9467bd; stroke-width: 0.7; stroke-linecap: square"/>
    </g>
    <g id="line2d_69"/>
    <g id="text_21">
     <!-- $P_0$ = 120 -->
     <g transform="translate(269.873438 226.179188) scale(0.1 -0.1)">
      <use xlink:href="#DejaVuSans-Oblique-50" transform="translate(0 0.78125)"/>
      <use xlink:href="#DejaVuSans-30" transform="translate(60.302734 -15.625) scale(0.7)"/>
      <use xlink:href="#DejaVuSans-20" transform="translate(107.573242 0.78125)"/>
      <use xlink:href="#DejaVuSans-3d" transform="translate(139.360352 0.78125)"/>
      <use xlink:href="#DejaVuSans-20" transform="translate(223.149414 0.78125)"/>
      <use xlink:href="#DejaVuSans-31" transform="translate(254.936523 0.78125)"/>
      <use xlink:href="#DejaVuSans-32" transform="translate(318.55957 0.78125)"/>
      <use xlink:href="#DejaVuSans-30" transform="translate(382.182617 0.78125)"/>
     </g>
    </g>
    <g id="line2d_70">
     <path d="M 241.873438 237.357313 
L 261.873438 237.357313 
" style="fill: none; stroke: #8c564b; stroke-width: 0.7; stroke-linecap: square"/>
    </g>
    <g id="line2d_71"/>
    <g id="text_22">
     <!-- $P_0$ = 140 -->
     <g transform="translate(269.873438 240.857313) scale(0.1 -0.1)">
      <use xlink:href="#DejaVuSans-Oblique-50" transform="translate(0 0.78125)"/>
      <use xlink:href="#DejaVuSans-30" transform="translate(60.302734 -15.625) scale(0.7)"/>
      <use xlink:href="#DejaVuSans-20" transform="translate(107.573242 0.78125)"/>
      <use xlink:href="#DejaVuSans-3d" transform="translate(139.360352 0.78125)"/>
      <use xlink:href="#DejaVuSans-20" transform="translate(223.149414 0.78125)"/>
      <use xlink:href="#DejaVuSans-31" transform="translate(254.936523 0.78125)"/>
      <use xlink:href="#DejaVuSans-34" transform="translate(318.55957 0.78125)"/>
      <use xlink:href="#DejaVuSans-30" transform="translate(382.182617 0.78125)"/>
     </g>
    </g>
   </g>
  </g>
 </g>
 <defs>
  <clipPath id="pe90627bc6b">
   <rect x="49.5" y="28.7928" width="306.9" height="223.1442"/>
  </clipPath>
 </defs>
</svg>
