<?xml version="1.0" encoding="utf-8" standalone="no"?>
<!DOCTYPE svg PUBLIC "-//W3C//DTD SVG 1.1//EN"
  "http://www.w3.org/Graphics/SVG/1.1/DTD/svg11.dtd">
<svg xmlns:xlink="http://www.w3.org/1999/xlink" width="720pt" height="360pt" viewBox="0 0 720 360" xmlns="http://www.w3.org/2000/svg" version="1.1">
 <metadata>
  <rdf:RDF xmlns:dc="http://purl.org/dc/elements/1.1/" xmlns:cc="http://creativecommons.org/ns#" xmlns:rdf="http://www.w3.org/1999/02/22-rdf-syntax-ns#">
   <cc:Work>
    <dc:type rdf:resource="http://purl.org/dc/dcmitype/StillImage"/>
    <dc:date>2024-10-08T23:51:06.595627</dc:date>
    <dc:format>image/svg+xml</dc:format>
    <dc:creator>
     <cc:Agent>
      <dc:title>Matplotlib v3.8.3, https://matplotlib.org/</dc:title>
     </cc:Agent>
    </dc:creator>
   </cc:Work>
  </rdf:RDF>
 </metadata>
 <defs>
  <style type="text/css">*{stroke-linejoin: round; stroke-linecap: butt}</style>
 </defs>
 <g id="figure_1">
  <g id="patch_1">
   <path d="M 0 360 
L 720 360 
L 720 0 
L 0 0 
z
" style="fill: #ffffff"/>
  </g>
  <g id="axes_1">
   <g id="patch_2">
    <path d="M 90 315 
L 343.636364 315 
L 343.636364 43.2 
L 90 43.2 
z
" style="fill: #ffffff"/>
   </g>
   <g id="matplotlib.axis_1">
    <g id="xtick_1">
     <g id="line2d_1">
      <defs>
       <path id="m2beb25e7ec" d="M 0 0 
L 0 -3.5 
" style="stroke: #000000; stroke-width: 0.8"/>
      </defs>
      <g>
       <use xlink:href="#m2beb25e7ec" x="101.528926" y="315" style="stroke: #000000; stroke-width: 0.8"/>
      </g>
     </g>
     <g id="text_1">
      <!-- 0 -->
      <g transform="translate(98.347676 326.098437) scale(0.1 -0.1)">
       <defs>
        <path id="DejaVuSans-30" d="M 2034 4250 
Q 1547 4250 1301 3770 
Q 1056 3291 1056 2328 
Q 1056 1369 1301 889 
Q 1547 409 2034 409 
Q 2525 409 2770 889 
Q 3016 1369 3016 2328 
Q 3016 3291 2770 3770 
Q 2525 4250 2034 4250 
z
M 2034 4750 
Q 2819 4750 3233 4129 
Q 3647 3509 3647 2328 
Q 3647 1150 3233 529 
Q 2819 -91 2034 -91 
Q 1250 -91 836 529 
Q 422 1150 422 2328 
Q 422 3509 836 4129 
Q 1250 4750 2034 4750 
z
" transform="scale(0.015625)"/>
       </defs>
       <use xlink:href="#DejaVuSans-30"/>
      </g>
     </g>
    </g>
    <g id="xtick_2">
     <g id="line2d_2">
      <g>
       <use xlink:href="#m2beb25e7ec" x="147.644628" y="315" style="stroke: #000000; stroke-width: 0.8"/>
      </g>
     </g>
     <g id="text_2">
      <!-- 2 -->
      <g transform="translate(144.463378 326.098437) scale(0.1 -0.1)">
       <defs>
        <path id="DejaVuSans-32" d="M 1228 531 
L 3431 531 
L 3431 0 
L 469 0 
L 469 531 
Q 828 903 1448 1529 
Q 2069 2156 2228 2338 
Q 2531 2678 2651 2914 
Q 2772 3150 2772 3378 
Q 2772 3750 2511 3984 
Q 2250 4219 1831 4219 
Q 1534 4219 1204 4116 
Q 875 4013 500 3803 
L 500 4441 
Q 881 4594 1212 4672 
Q 1544 4750 1819 4750 
Q 2544 4750 2975 4387 
Q 3406 4025 3406 3419 
Q 3406 3131 3298 2873 
Q 3191 2616 2906 2266 
Q 2828 2175 2409 1742 
Q 1991 1309 1228 531 
z
" transform="scale(0.015625)"/>
       </defs>
       <use xlink:href="#DejaVuSans-32"/>
      </g>
     </g>
    </g>
    <g id="xtick_3">
     <g id="line2d_3">
      <g>
       <use xlink:href="#m2beb25e7ec" x="193.760331" y="315" style="stroke: #000000; stroke-width: 0.8"/>
      </g>
     </g>
     <g id="text_3">
      <!-- 4 -->
      <g transform="translate(190.579081 326.098437) scale(0.1 -0.1)">
       <defs>
        <path id="DejaVuSans-34" d="M 2419 4116 
L 825 1625 
L 2419 1625 
L 2419 4116 
z
M 2253 4666 
L 3047 4666 
L 3047 1625 
L 3713 1625 
L 3713 1100 
L 3047 1100 
L 3047 0 
L 2419 0 
L 2419 1100 
L 313 1100 
L 313 1709 
L 2253 4666 
z
" transform="scale(0.015625)"/>
       </defs>
       <use xlink:href="#DejaVuSans-34"/>
      </g>
     </g>
    </g>
    <g id="xtick_4">
     <g id="line2d_4">
      <g>
       <use xlink:href="#m2beb25e7ec" x="239.876033" y="315" style="stroke: #000000; stroke-width: 0.8"/>
      </g>
     </g>
     <g id="text_4">
      <!-- 6 -->
      <g transform="translate(236.694783 326.098437) scale(0.1 -0.1)">
       <defs>
        <path id="DejaVuSans-36" d="M 2113 2584 
Q 1688 2584 1439 2293 
Q 1191 2003 1191 1497 
Q 1191 994 1439 701 
Q 1688 409 2113 409 
Q 2538 409 2786 701 
Q 3034 994 3034 1497 
Q 3034 2003 2786 2293 
Q 2538 2584 2113 2584 
z
M 3366 4563 
L 3366 3988 
Q 3128 4100 2886 4159 
Q 2644 4219 2406 4219 
Q 1781 4219 1451 3797 
Q 1122 3375 1075 2522 
Q 1259 2794 1537 2939 
Q 1816 3084 2150 3084 
Q 2853 3084 3261 2657 
Q 3669 2231 3669 1497 
Q 3669 778 3244 343 
Q 2819 -91 2113 -91 
Q 1303 -91 875 529 
Q 447 1150 447 2328 
Q 447 3434 972 4092 
Q 1497 4750 2381 4750 
Q 2619 4750 2861 4703 
Q 3103 4656 3366 4563 
z
" transform="scale(0.015625)"/>
       </defs>
       <use xlink:href="#DejaVuSans-36"/>
      </g>
     </g>
    </g>
    <g id="xtick_5">
     <g id="line2d_5">
      <g>
       <use xlink:href="#m2beb25e7ec" x="285.991736" y="315" style="stroke: #000000; stroke-width: 0.8"/>
      </g>
     </g>
     <g id="text_5">
      <!-- 8 -->
      <g transform="translate(282.810486 326.098437) scale(0.1 -0.1)">
       <defs>
        <path id="DejaVuSans-38" d="M 2034 2216 
Q 1584 2216 1326 1975 
Q 1069 1734 1069 1313 
Q 1069 891 1326 650 
Q 1584 409 2034 409 
Q 2484 409 2743 651 
Q 3003 894 3003 1313 
Q 3003 1734 2745 1975 
Q 2488 2216 2034 2216 
z
M 1403 2484 
Q 997 2584 770 2862 
Q 544 3141 544 3541 
Q 544 4100 942 4425 
Q 1341 4750 2034 4750 
Q 2731 4750 3128 4425 
Q 3525 4100 3525 3541 
Q 3525 3141 3298 2862 
Q 3072 2584 2669 2484 
Q 3125 2378 3379 2068 
Q 3634 1759 3634 1313 
Q 3634 634 3220 271 
Q 2806 -91 2034 -91 
Q 1263 -91 848 271 
Q 434 634 434 1313 
Q 434 1759 690 2068 
Q 947 2378 1403 2484 
z
M 1172 3481 
Q 1172 3119 1398 2916 
Q 1625 2713 2034 2713 
Q 2441 2713 2670 2916 
Q 2900 3119 2900 3481 
Q 2900 3844 2670 4047 
Q 2441 4250 2034 4250 
Q 1625 4250 1398 4047 
Q 1172 3844 1172 3481 
z
" transform="scale(0.015625)"/>
       </defs>
       <use xlink:href="#DejaVuSans-38"/>
      </g>
     </g>
    </g>
    <g id="xtick_6">
     <g id="line2d_6">
      <g>
       <use xlink:href="#m2beb25e7ec" x="332.107438" y="315" style="stroke: #000000; stroke-width: 0.8"/>
      </g>
     </g>
     <g id="text_6">
      <!-- 10 -->
      <g transform="translate(325.744938 326.098437) scale(0.1 -0.1)">
       <defs>
        <path id="DejaVuSans-31" d="M 794 531 
L 1825 531 
L 1825 4091 
L 703 3866 
L 703 4441 
L 1819 4666 
L 2450 4666 
L 2450 531 
L 3481 531 
L 3481 0 
L 794 0 
L 794 531 
z
" transform="scale(0.015625)"/>
       </defs>
       <use xlink:href="#DejaVuSans-31"/>
       <use xlink:href="#DejaVuSans-30" x="63.623047"/>
      </g>
     </g>
    </g>
    <g id="xtick_7">
     <g id="line2d_7">
      <defs>
       <path id="m5ca76370de" d="M 0 0 
L 0 -2 
" style="stroke: #000000; stroke-width: 0.6"/>
      </defs>
      <g>
       <use xlink:href="#m5ca76370de" x="90" y="315" style="stroke: #000000; stroke-width: 0.6"/>
      </g>
     </g>
    </g>
    <g id="xtick_8">
     <g id="line2d_8">
      <g>
       <use xlink:href="#m5ca76370de" x="113.057851" y="315" style="stroke: #000000; stroke-width: 0.6"/>
      </g>
     </g>
    </g>
    <g id="xtick_9">
     <g id="line2d_9">
      <g>
       <use xlink:href="#m5ca76370de" x="124.586777" y="315" style="stroke: #000000; stroke-width: 0.6"/>
      </g>
     </g>
    </g>
    <g id="xtick_10">
     <g id="line2d_10">
      <g>
       <use xlink:href="#m5ca76370de" x="136.115702" y="315" style="stroke: #000000; stroke-width: 0.6"/>
      </g>
     </g>
    </g>
    <g id="xtick_11">
     <g id="line2d_11">
      <g>
       <use xlink:href="#m5ca76370de" x="159.173554" y="315" style="stroke: #000000; stroke-width: 0.6"/>
      </g>
     </g>
    </g>
    <g id="xtick_12">
     <g id="line2d_12">
      <g>
       <use xlink:href="#m5ca76370de" x="170.702479" y="315" style="stroke: #000000; stroke-width: 0.6"/>
      </g>
     </g>
    </g>
    <g id="xtick_13">
     <g id="line2d_13">
      <g>
       <use xlink:href="#m5ca76370de" x="182.231405" y="315" style="stroke: #000000; stroke-width: 0.6"/>
      </g>
     </g>
    </g>
    <g id="xtick_14">
     <g id="line2d_14">
      <g>
       <use xlink:href="#m5ca76370de" x="205.289256" y="315" style="stroke: #000000; stroke-width: 0.6"/>
      </g>
     </g>
    </g>
    <g id="xtick_15">
     <g id="line2d_15">
      <g>
       <use xlink:href="#m5ca76370de" x="216.818182" y="315" style="stroke: #000000; stroke-width: 0.6"/>
      </g>
     </g>
    </g>
    <g id="xtick_16">
     <g id="line2d_16">
      <g>
       <use xlink:href="#m5ca76370de" x="228.347107" y="315" style="stroke: #000000; stroke-width: 0.6"/>
      </g>
     </g>
    </g>
    <g id="xtick_17">
     <g id="line2d_17">
      <g>
       <use xlink:href="#m5ca76370de" x="251.404959" y="315" style="stroke: #000000; stroke-width: 0.6"/>
      </g>
     </g>
    </g>
    <g id="xtick_18">
     <g id="line2d_18">
      <g>
       <use xlink:href="#m5ca76370de" x="262.933884" y="315" style="stroke: #000000; stroke-width: 0.6"/>
      </g>
     </g>
    </g>
    <g id="xtick_19">
     <g id="line2d_19">
      <g>
       <use xlink:href="#m5ca76370de" x="274.46281" y="315" style="stroke: #000000; stroke-width: 0.6"/>
      </g>
     </g>
    </g>
    <g id="xtick_20">
     <g id="line2d_20">
      <g>
       <use xlink:href="#m5ca76370de" x="297.520661" y="315" style="stroke: #000000; stroke-width: 0.6"/>
      </g>
     </g>
    </g>
    <g id="xtick_21">
     <g id="line2d_21">
      <g>
       <use xlink:href="#m5ca76370de" x="309.049587" y="315" style="stroke: #000000; stroke-width: 0.6"/>
      </g>
     </g>
    </g>
    <g id="xtick_22">
     <g id="line2d_22">
      <g>
       <use xlink:href="#m5ca76370de" x="320.578512" y="315" style="stroke: #000000; stroke-width: 0.6"/>
      </g>
     </g>
    </g>
    <g id="xtick_23">
     <g id="line2d_23">
      <g>
       <use xlink:href="#m5ca76370de" x="343.636364" y="315" style="stroke: #000000; stroke-width: 0.6"/>
      </g>
     </g>
    </g>
    <g id="text_7">
     <!-- Time (years) -->
     <g transform="translate(185.333807 339.776563) scale(0.1 -0.1)">
      <defs>
       <path id="DejaVuSans-54" d="M -19 4666 
L 3928 4666 
L 3928 4134 
L 2272 4134 
L 2272 0 
L 1638 0 
L 1638 4134 
L -19 4134 
L -19 4666 
z
" transform="scale(0.015625)"/>
       <path id="DejaVuSans-69" d="M 603 3500 
L 1178 3500 
L 1178 0 
L 603 0 
L 603 3500 
z
M 603 4863 
L 1178 4863 
L 1178 4134 
L 603 4134 
L 603 4863 
z
" transform="scale(0.015625)"/>
       <path id="DejaVuSans-6d" d="M 3328 2828 
Q 3544 3216 3844 3400 
Q 4144 3584 4550 3584 
Q 5097 3584 5394 3201 
Q 5691 2819 5691 2113 
L 5691 0 
L 5113 0 
L 5113 2094 
Q 5113 2597 4934 2840 
Q 4756 3084 4391 3084 
Q 3944 3084 3684 2787 
Q 3425 2491 3425 1978 
L 3425 0 
L 2847 0 
L 2847 2094 
Q 2847 2600 2669 2842 
Q 2491 3084 2119 3084 
Q 1678 3084 1418 2786 
Q 1159 2488 1159 1978 
L 1159 0 
L 581 0 
L 581 3500 
L 1159 3500 
L 1159 2956 
Q 1356 3278 1631 3431 
Q 1906 3584 2284 3584 
Q 2666 3584 2933 3390 
Q 3200 3197 3328 2828 
z
" transform="scale(0.015625)"/>
       <path id="DejaVuSans-65" d="M 3597 1894 
L 3597 1613 
L 953 1613 
Q 991 1019 1311 708 
Q 1631 397 2203 397 
Q 2534 397 2845 478 
Q 3156 559 3463 722 
L 3463 178 
Q 3153 47 2828 -22 
Q 2503 -91 2169 -91 
Q 1331 -91 842 396 
Q 353 884 353 1716 
Q 353 2575 817 3079 
Q 1281 3584 2069 3584 
Q 2775 3584 3186 3129 
Q 3597 2675 3597 1894 
z
M 3022 2063 
Q 3016 2534 2758 2815 
Q 2500 3097 2075 3097 
Q 1594 3097 1305 2825 
Q 1016 2553 972 2059 
L 3022 2063 
z
" transform="scale(0.015625)"/>
       <path id="DejaVuSans-20" transform="scale(0.015625)"/>
       <path id="DejaVuSans-28" d="M 1984 4856 
Q 1566 4138 1362 3434 
Q 1159 2731 1159 2009 
Q 1159 1288 1364 580 
Q 1569 -128 1984 -844 
L 1484 -844 
Q 1016 -109 783 600 
Q 550 1309 550 2009 
Q 550 2706 781 3412 
Q 1013 4119 1484 4856 
L 1984 4856 
z
" transform="scale(0.015625)"/>
       <path id="DejaVuSans-79" d="M 2059 -325 
Q 1816 -950 1584 -1140 
Q 1353 -1331 966 -1331 
L 506 -1331 
L 506 -850 
L 844 -850 
Q 1081 -850 1212 -737 
Q 1344 -625 1503 -206 
L 1606 56 
L 191 3500 
L 800 3500 
L 1894 763 
L 2988 3500 
L 3597 3500 
L 2059 -325 
z
" transform="scale(0.015625)"/>
       <path id="DejaVuSans-61" d="M 2194 1759 
Q 1497 1759 1228 1600 
Q 959 1441 959 1056 
Q 959 750 1161 570 
Q 1363 391 1709 391 
Q 2188 391 2477 730 
Q 2766 1069 2766 1631 
L 2766 1759 
L 2194 1759 
z
M 3341 1997 
L 3341 0 
L 2766 0 
L 2766 531 
Q 2569 213 2275 61 
Q 1981 -91 1556 -91 
Q 1019 -91 701 211 
Q 384 513 384 1019 
Q 384 1609 779 1909 
Q 1175 2209 1959 2209 
L 2766 2209 
L 2766 2266 
Q 2766 2663 2505 2880 
Q 2244 3097 1772 3097 
Q 1472 3097 1187 3025 
Q 903 2953 641 2809 
L 641 3341 
Q 956 3463 1253 3523 
Q 1550 3584 1831 3584 
Q 2591 3584 2966 3190 
Q 3341 2797 3341 1997 
z
" transform="scale(0.015625)"/>
       <path id="DejaVuSans-72" d="M 2631 2963 
Q 2534 3019 2420 3045 
Q 2306 3072 2169 3072 
Q 1681 3072 1420 2755 
Q 1159 2438 1159 1844 
L 1159 0 
L 581 0 
L 581 3500 
L 1159 3500 
L 1159 2956 
Q 1341 3275 1631 3429 
Q 1922 3584 2338 3584 
Q 2397 3584 2469 3576 
Q 2541 3569 2628 3553 
L 2631 2963 
z
" transform="scale(0.015625)"/>
       <path id="DejaVuSans-73" d="M 2834 3397 
L 2834 2853 
Q 2591 2978 2328 3040 
Q 2066 3103 1784 3103 
Q 1356 3103 1142 2972 
Q 928 2841 928 2578 
Q 928 2378 1081 2264 
Q 1234 2150 1697 2047 
L 1894 2003 
Q 2506 1872 2764 1633 
Q 3022 1394 3022 966 
Q 3022 478 2636 193 
Q 2250 -91 1575 -91 
Q 1294 -91 989 -36 
Q 684 19 347 128 
L 347 722 
Q 666 556 975 473 
Q 1284 391 1588 391 
Q 1994 391 2212 530 
Q 2431 669 2431 922 
Q 2431 1156 2273 1281 
Q 2116 1406 1581 1522 
L 1381 1569 
Q 847 1681 609 1914 
Q 372 2147 372 2553 
Q 372 3047 722 3315 
Q 1072 3584 1716 3584 
Q 2034 3584 2315 3537 
Q 2597 3491 2834 3397 
z
" transform="scale(0.015625)"/>
       <path id="DejaVuSans-29" d="M 513 4856 
L 1013 4856 
Q 1481 4119 1714 3412 
Q 1947 2706 1947 2009 
Q 1947 1309 1714 600 
Q 1481 -109 1013 -844 
L 513 -844 
Q 928 -128 1133 580 
Q 1338 1288 1338 2009 
Q 1338 2731 1133 3434 
Q 928 4138 513 4856 
z
" transform="scale(0.015625)"/>
      </defs>
      <use xlink:href="#DejaVuSans-54"/>
      <use xlink:href="#DejaVuSans-69" x="57.958984"/>
      <use xlink:href="#DejaVuSans-6d" x="85.742188"/>
      <use xlink:href="#DejaVuSans-65" x="183.154297"/>
      <use xlink:href="#DejaVuSans-20" x="244.677734"/>
      <use xlink:href="#DejaVuSans-28" x="276.464844"/>
      <use xlink:href="#DejaVuSans-79" x="315.478516"/>
      <use xlink:href="#DejaVuSans-65" x="374.658203"/>
      <use xlink:href="#DejaVuSans-61" x="436.181641"/>
      <use xlink:href="#DejaVuSans-72" x="497.460938"/>
      <use xlink:href="#DejaVuSans-73" x="538.574219"/>
      <use xlink:href="#DejaVuSans-29" x="590.673828"/>
     </g>
    </g>
   </g>
   <g id="matplotlib.axis_2">
    <g id="ytick_1">
     <g id="line2d_24">
      <defs>
       <path id="m2d87773754" d="M 0 0 
L 3.5 0 
" style="stroke: #000000; stroke-width: 0.8"/>
      </defs>
      <g>
       <use xlink:href="#m2d87773754" x="90" y="271.264182" style="stroke: #000000; stroke-width: 0.8"/>
      </g>
     </g>
     <g id="text_8">
      <!-- 2.0 -->
      <g transform="translate(70.596875 275.063401) scale(0.1 -0.1)">
       <defs>
        <path id="DejaVuSans-2e" d="M 684 794 
L 1344 794 
L 1344 0 
L 684 0 
L 684 794 
z
" transform="scale(0.015625)"/>
       </defs>
       <use xlink:href="#DejaVuSans-32"/>
       <use xlink:href="#DejaVuSans-2e" x="63.623047"/>
       <use xlink:href="#DejaVuSans-30" x="95.410156"/>
      </g>
     </g>
    </g>
    <g id="ytick_2">
     <g id="line2d_25">
      <g>
       <use xlink:href="#m2d87773754" x="90" y="217.625937" style="stroke: #000000; stroke-width: 0.8"/>
      </g>
     </g>
     <g id="text_9">
      <!-- 2.5 -->
      <g transform="translate(70.596875 221.425155) scale(0.1 -0.1)">
       <defs>
        <path id="DejaVuSans-35" d="M 691 4666 
L 3169 4666 
L 3169 4134 
L 1269 4134 
L 1269 2991 
Q 1406 3038 1543 3061 
Q 1681 3084 1819 3084 
Q 2600 3084 3056 2656 
Q 3513 2228 3513 1497 
Q 3513 744 3044 326 
Q 2575 -91 1722 -91 
Q 1428 -91 1123 -41 
Q 819 9 494 109 
L 494 744 
Q 775 591 1075 516 
Q 1375 441 1709 441 
Q 2250 441 2565 725 
Q 2881 1009 2881 1497 
Q 2881 1984 2565 2268 
Q 2250 2553 1709 2553 
Q 1456 2553 1204 2497 
Q 953 2441 691 2322 
L 691 4666 
z
" transform="scale(0.015625)"/>
       </defs>
       <use xlink:href="#DejaVuSans-32"/>
       <use xlink:href="#DejaVuSans-2e" x="63.623047"/>
       <use xlink:href="#DejaVuSans-35" x="95.410156"/>
      </g>
     </g>
    </g>
    <g id="ytick_3">
     <g id="line2d_26">
      <g>
       <use xlink:href="#m2d87773754" x="90" y="163.987692" style="stroke: #000000; stroke-width: 0.8"/>
      </g>
     </g>
     <g id="text_10">
      <!-- 3.0 -->
      <g transform="translate(70.596875 167.78691) scale(0.1 -0.1)">
       <defs>
        <path id="DejaVuSans-33" d="M 2597 2516 
Q 3050 2419 3304 2112 
Q 3559 1806 3559 1356 
Q 3559 666 3084 287 
Q 2609 -91 1734 -91 
Q 1441 -91 1130 -33 
Q 819 25 488 141 
L 488 750 
Q 750 597 1062 519 
Q 1375 441 1716 441 
Q 2309 441 2620 675 
Q 2931 909 2931 1356 
Q 2931 1769 2642 2001 
Q 2353 2234 1838 2234 
L 1294 2234 
L 1294 2753 
L 1863 2753 
Q 2328 2753 2575 2939 
Q 2822 3125 2822 3475 
Q 2822 3834 2567 4026 
Q 2313 4219 1838 4219 
Q 1578 4219 1281 4162 
Q 984 4106 628 3988 
L 628 4550 
Q 988 4650 1302 4700 
Q 1616 4750 1894 4750 
Q 2613 4750 3031 4423 
Q 3450 4097 3450 3541 
Q 3450 3153 3228 2886 
Q 3006 2619 2597 2516 
z
" transform="scale(0.015625)"/>
       </defs>
       <use xlink:href="#DejaVuSans-33"/>
       <use xlink:href="#DejaVuSans-2e" x="63.623047"/>
       <use xlink:href="#DejaVuSans-30" x="95.410156"/>
      </g>
     </g>
    </g>
    <g id="ytick_4">
     <g id="line2d_27">
      <g>
       <use xlink:href="#m2d87773754" x="90" y="110.349446" style="stroke: #000000; stroke-width: 0.8"/>
      </g>
     </g>
     <g id="text_11">
      <!-- 3.5 -->
      <g transform="translate(70.596875 114.148665) scale(0.1 -0.1)">
       <use xlink:href="#DejaVuSans-33"/>
       <use xlink:href="#DejaVuSans-2e" x="63.623047"/>
       <use xlink:href="#DejaVuSans-35" x="95.410156"/>
      </g>
     </g>
    </g>
    <g id="ytick_5">
     <g id="line2d_28">
      <g>
       <use xlink:href="#m2d87773754" x="90" y="56.711201" style="stroke: #000000; stroke-width: 0.8"/>
      </g>
     </g>
     <g id="text_12">
      <!-- 4.0 -->
      <g transform="translate(70.596875 60.51042) scale(0.1 -0.1)">
       <use xlink:href="#DejaVuSans-34"/>
       <use xlink:href="#DejaVuSans-2e" x="63.623047"/>
       <use xlink:href="#DejaVuSans-30" x="95.410156"/>
      </g>
     </g>
    </g>
    <g id="ytick_6">
     <g id="line2d_29">
      <defs>
       <path id="m9e36c6bbfb" d="M 0 0 
L 2 0 
" style="stroke: #000000; stroke-width: 0.6"/>
      </defs>
      <g>
       <use xlink:href="#m9e36c6bbfb" x="90" y="314.174778" style="stroke: #000000; stroke-width: 0.6"/>
      </g>
     </g>
    </g>
    <g id="ytick_7">
     <g id="line2d_30">
      <g>
       <use xlink:href="#m9e36c6bbfb" x="90" y="303.447129" style="stroke: #000000; stroke-width: 0.6"/>
      </g>
     </g>
    </g>
    <g id="ytick_8">
     <g id="line2d_31">
      <g>
       <use xlink:href="#m9e36c6bbfb" x="90" y="292.71948" style="stroke: #000000; stroke-width: 0.6"/>
      </g>
     </g>
    </g>
    <g id="ytick_9">
     <g id="line2d_32">
      <g>
       <use xlink:href="#m9e36c6bbfb" x="90" y="281.991831" style="stroke: #000000; stroke-width: 0.6"/>
      </g>
     </g>
    </g>
    <g id="ytick_10">
     <g id="line2d_33">
      <g>
       <use xlink:href="#m9e36c6bbfb" x="90" y="260.536533" style="stroke: #000000; stroke-width: 0.6"/>
      </g>
     </g>
    </g>
    <g id="ytick_11">
     <g id="line2d_34">
      <g>
       <use xlink:href="#m9e36c6bbfb" x="90" y="249.808884" style="stroke: #000000; stroke-width: 0.6"/>
      </g>
     </g>
    </g>
    <g id="ytick_12">
     <g id="line2d_35">
      <g>
       <use xlink:href="#m9e36c6bbfb" x="90" y="239.081235" style="stroke: #000000; stroke-width: 0.6"/>
      </g>
     </g>
    </g>
    <g id="ytick_13">
     <g id="line2d_36">
      <g>
       <use xlink:href="#m9e36c6bbfb" x="90" y="228.353586" style="stroke: #000000; stroke-width: 0.6"/>
      </g>
     </g>
    </g>
    <g id="ytick_14">
     <g id="line2d_37">
      <g>
       <use xlink:href="#m9e36c6bbfb" x="90" y="206.898288" style="stroke: #000000; stroke-width: 0.6"/>
      </g>
     </g>
    </g>
    <g id="ytick_15">
     <g id="line2d_38">
      <g>
       <use xlink:href="#m9e36c6bbfb" x="90" y="196.170639" style="stroke: #000000; stroke-width: 0.6"/>
      </g>
     </g>
    </g>
    <g id="ytick_16">
     <g id="line2d_39">
      <g>
       <use xlink:href="#m9e36c6bbfb" x="90" y="185.44299" style="stroke: #000000; stroke-width: 0.6"/>
      </g>
     </g>
    </g>
    <g id="ytick_17">
     <g id="line2d_40">
      <g>
       <use xlink:href="#m9e36c6bbfb" x="90" y="174.715341" style="stroke: #000000; stroke-width: 0.6"/>
      </g>
     </g>
    </g>
    <g id="ytick_18">
     <g id="line2d_41">
      <g>
       <use xlink:href="#m9e36c6bbfb" x="90" y="153.260043" style="stroke: #000000; stroke-width: 0.6"/>
      </g>
     </g>
    </g>
    <g id="ytick_19">
     <g id="line2d_42">
      <g>
       <use xlink:href="#m9e36c6bbfb" x="90" y="142.532393" style="stroke: #000000; stroke-width: 0.6"/>
      </g>
     </g>
    </g>
    <g id="ytick_20">
     <g id="line2d_43">
      <g>
       <use xlink:href="#m9e36c6bbfb" x="90" y="131.804744" style="stroke: #000000; stroke-width: 0.6"/>
      </g>
     </g>
    </g>
    <g id="ytick_21">
     <g id="line2d_44">
      <g>
       <use xlink:href="#m9e36c6bbfb" x="90" y="121.077095" style="stroke: #000000; stroke-width: 0.6"/>
      </g>
     </g>
    </g>
    <g id="ytick_22">
     <g id="line2d_45">
      <g>
       <use xlink:href="#m9e36c6bbfb" x="90" y="99.621797" style="stroke: #000000; stroke-width: 0.6"/>
      </g>
     </g>
    </g>
    <g id="ytick_23">
     <g id="line2d_46">
      <g>
       <use xlink:href="#m9e36c6bbfb" x="90" y="88.894148" style="stroke: #000000; stroke-width: 0.6"/>
      </g>
     </g>
    </g>
    <g id="ytick_24">
     <g id="line2d_47">
      <g>
       <use xlink:href="#m9e36c6bbfb" x="90" y="78.166499" style="stroke: #000000; stroke-width: 0.6"/>
      </g>
     </g>
    </g>
    <g id="ytick_25">
     <g id="line2d_48">
      <g>
       <use xlink:href="#m9e36c6bbfb" x="90" y="67.43885" style="stroke: #000000; stroke-width: 0.6"/>
      </g>
     </g>
    </g>
    <g id="ytick_26">
     <g id="line2d_49">
      <g>
       <use xlink:href="#m9e36c6bbfb" x="90" y="45.983552" style="stroke: #000000; stroke-width: 0.6"/>
      </g>
     </g>
    </g>
    <g id="text_13">
     <!-- Population -->
     <g transform="translate(64.517187 205.366406) rotate(-90) scale(0.1 -0.1)">
      <defs>
       <path id="DejaVuSans-50" d="M 1259 4147 
L 1259 2394 
L 2053 2394 
Q 2494 2394 2734 2622 
Q 2975 2850 2975 3272 
Q 2975 3691 2734 3919 
Q 2494 4147 2053 4147 
L 1259 4147 
z
M 628 4666 
L 2053 4666 
Q 2838 4666 3239 4311 
Q 3641 3956 3641 3272 
Q 3641 2581 3239 2228 
Q 2838 1875 2053 1875 
L 1259 1875 
L 1259 0 
L 628 0 
L 628 4666 
z
" transform="scale(0.015625)"/>
       <path id="DejaVuSans-6f" d="M 1959 3097 
Q 1497 3097 1228 2736 
Q 959 2375 959 1747 
Q 959 1119 1226 758 
Q 1494 397 1959 397 
Q 2419 397 2687 759 
Q 2956 1122 2956 1747 
Q 2956 2369 2687 2733 
Q 2419 3097 1959 3097 
z
M 1959 3584 
Q 2709 3584 3137 3096 
Q 3566 2609 3566 1747 
Q 3566 888 3137 398 
Q 2709 -91 1959 -91 
Q 1206 -91 779 398 
Q 353 888 353 1747 
Q 353 2609 779 3096 
Q 1206 3584 1959 3584 
z
" transform="scale(0.015625)"/>
       <path id="DejaVuSans-70" d="M 1159 525 
L 1159 -1331 
L 581 -1331 
L 581 3500 
L 1159 3500 
L 1159 2969 
Q 1341 3281 1617 3432 
Q 1894 3584 2278 3584 
Q 2916 3584 3314 3078 
Q 3713 2572 3713 1747 
Q 3713 922 3314 415 
Q 2916 -91 2278 -91 
Q 1894 -91 1617 61 
Q 1341 213 1159 525 
z
M 3116 1747 
Q 3116 2381 2855 2742 
Q 2594 3103 2138 3103 
Q 1681 3103 1420 2742 
Q 1159 2381 1159 1747 
Q 1159 1113 1420 752 
Q 1681 391 2138 391 
Q 2594 391 2855 752 
Q 3116 1113 3116 1747 
z
" transform="scale(0.015625)"/>
       <path id="DejaVuSans-75" d="M 544 1381 
L 544 3500 
L 1119 3500 
L 1119 1403 
Q 1119 906 1312 657 
Q 1506 409 1894 409 
Q 2359 409 2629 706 
Q 2900 1003 2900 1516 
L 2900 3500 
L 3475 3500 
L 3475 0 
L 2900 0 
L 2900 538 
Q 2691 219 2414 64 
Q 2138 -91 1772 -91 
Q 1169 -91 856 284 
Q 544 659 544 1381 
z
M 1991 3584 
L 1991 3584 
z
" transform="scale(0.015625)"/>
       <path id="DejaVuSans-6c" d="M 603 4863 
L 1178 4863 
L 1178 0 
L 603 0 
L 603 4863 
z
" transform="scale(0.015625)"/>
       <path id="DejaVuSans-74" d="M 1172 4494 
L 1172 3500 
L 2356 3500 
L 2356 3053 
L 1172 3053 
L 1172 1153 
Q 1172 725 1289 603 
Q 1406 481 1766 481 
L 2356 481 
L 2356 0 
L 1766 0 
Q 1100 0 847 248 
Q 594 497 594 1153 
L 594 3053 
L 172 3053 
L 172 3500 
L 594 3500 
L 594 4494 
L 1172 4494 
z
" transform="scale(0.015625)"/>
       <path id="DejaVuSans-6e" d="M 3513 2113 
L 3513 0 
L 2938 0 
L 2938 2094 
Q 2938 2591 2744 2837 
Q 2550 3084 2163 3084 
Q 1697 3084 1428 2787 
Q 1159 2491 1159 1978 
L 1159 0 
L 581 0 
L 581 3500 
L 1159 3500 
L 1159 2956 
Q 1366 3272 1645 3428 
Q 1925 3584 2291 3584 
Q 2894 3584 3203 3211 
Q 3513 2838 3513 2113 
z
" transform="scale(0.015625)"/>
      </defs>
      <use xlink:href="#DejaVuSans-50"/>
      <use xlink:href="#DejaVuSans-6f" x="56.677734"/>
      <use xlink:href="#DejaVuSans-70" x="117.859375"/>
      <use xlink:href="#DejaVuSans-75" x="181.335938"/>
      <use xlink:href="#DejaVuSans-6c" x="244.714844"/>
      <use xlink:href="#DejaVuSans-61" x="272.498047"/>
      <use xlink:href="#DejaVuSans-74" x="333.777344"/>
      <use xlink:href="#DejaVuSans-69" x="372.986328"/>
      <use xlink:href="#DejaVuSans-6f" x="400.769531"/>
      <use xlink:href="#DejaVuSans-6e" x="461.951172"/>
     </g>
    </g>
   </g>
   <g id="line2d_50">
    <path d="M 101.528926 56.711201 
L 101.990544 56.826072 
L 102.452163 57.171289 
L 102.913782 57.747092 
L 103.60621 59.041473 
L 104.298637 60.852326 
L 105.221875 64.068154 
L 106.145112 68.139655 
L 107.299159 74.324672 
L 108.684015 83.167268 
L 110.29968 95.125918 
L 112.376964 112.469147 
L 115.608294 141.846307 
L 119.301243 174.976115 
L 121.609337 193.684774 
L 123.455811 207.03869 
L 125.071476 217.355792 
L 126.687142 226.301841 
L 128.071998 232.849765 
L 129.456854 238.370673 
L 130.841709 242.900522 
L 131.995756 245.958828 
L 133.149803 248.36049 
L 134.07304 249.804525 
L 134.996277 250.824707 
L 135.688705 251.312428 
L 136.381133 251.563289 
L 137.073561 251.578414 
L 137.765989 251.359193 
L 138.458417 250.907289 
L 139.150845 250.224632 
L 140.074082 248.959313 
L 140.99732 247.293665 
L 142.151366 244.659092 
L 143.305413 241.424866 
L 144.690269 236.776673 
L 146.075125 231.347305 
L 147.69079 224.042085 
L 149.306455 215.645949 
L 151.15293 204.710792 
L 152.999404 192.411515 
L 155.076688 177.123967 
L 157.8464 154.905312 
L 165.232298 94.367837 
L 167.078773 81.474982 
L 168.463629 73.209698 
L 169.617676 67.448995 
L 170.771722 62.842328 
L 171.694959 60.054025 
L 172.387387 58.512567 
L 173.079815 57.457134 
L 173.541434 57.028631 
L 174.003053 56.822941 
L 174.464671 56.841728 
L 174.92629 57.086073 
L 175.387909 57.556466 
L 176.080337 58.68552 
L 176.772765 60.320014 
L 177.696002 63.275149 
L 178.619239 67.092106 
L 179.773286 72.987742 
L 181.158142 81.539472 
L 182.773807 93.255252 
L 184.620281 108.455934 
L 187.159184 131.409847 
L 192.236989 177.897787 
L 194.314273 194.595912 
L 196.160748 207.896377 
L 197.776413 218.170905 
L 199.392078 227.064696 
L 200.776934 233.548058 
L 202.16179 238.973767 
L 203.315836 242.702745 
L 204.469883 245.739633 
L 205.62393 248.124456 
L 206.547167 249.595055 
L 207.470404 250.662718 
L 208.162832 251.192432 
L 208.85526 251.489827 
L 209.547688 251.555159 
L 210.240116 251.388927 
L 210.932544 250.991871 
L 211.624972 250.364975 
L 212.548209 249.173738 
L 213.471447 247.579677 
L 214.625493 245.027313 
L 215.77954 241.862529 
L 217.164396 237.273457 
L 218.549252 231.844247 
L 220.164917 224.492608 
L 221.780582 216.150652 
L 223.627057 205.388509 
L 225.473531 193.317231 
L 227.550815 178.28249 
L 230.089718 158.189621 
L 238.629663 88.73767 
L 240.245328 78.091979 
L 241.630184 70.288861 
L 242.784231 64.938982 
L 243.707468 61.5113 
L 244.630705 58.901336 
L 245.323133 57.50686 
L 246.015561 56.610689 
L 246.47718 56.295241 
L 246.938798 56.207936 
L 247.400417 56.350131 
L 247.862036 56.722449 
L 248.323654 57.324782 
L 249.016082 58.657516 
L 249.70851 60.499781 
L 250.631747 63.731536 
L 251.554985 67.81843 
L 252.709031 74.060147 
L 254.093887 83.038114 
L 255.709553 95.054062 
L 257.556027 110.421899 
L 260.09493 133.591389 
L 266.095972 189.433363 
L 267.942447 204.036406 
L 269.788921 216.483532 
L 271.404586 225.960451 
L 272.789442 232.966742 
L 274.174298 238.905384 
L 275.328345 243.028613 
L 276.482391 246.404452 
L 277.636438 249.046462 
L 278.559675 250.647253 
L 279.482913 251.810057 
L 280.40615 252.555733 
L 281.098578 252.856123 
L 281.791006 252.947908 
L 282.483434 252.836442 
L 283.175862 252.502636 
L 283.86829 251.943737 
L 284.791527 250.847275 
L 285.714764 249.348857 
L 286.638002 247.448965 
L 287.792048 244.512059 
L 288.946095 240.955971 
L 290.330951 235.883171 
L 291.715807 229.950224 
L 293.331472 221.975063 
L 294.947137 212.912944 
L 296.793612 201.310974 
L 298.870896 186.836321 
L 301.178989 169.20292 
L 304.410319 142.564179 
L 309.718934 98.455569 
L 311.796218 83.181722 
L 313.411883 72.948563 
L 314.56593 66.816683 
L 315.489167 62.781291 
L 316.412404 59.645753 
L 317.104832 57.88291 
L 317.79726 56.618076 
L 318.489688 55.844459 
L 318.951307 55.597932 
L 319.412925 55.563995 
L 319.874544 55.740103 
L 320.336163 56.123567 
L 321.028591 57.081329 
L 321.721019 58.489094 
L 322.644256 61.047228 
L 323.567493 64.358208 
L 324.72154 69.509665 
L 325.875586 75.726726 
L 327.260442 84.495992 
L 328.876108 96.365703 
L 330.722582 111.813197 
L 332.107438 124.503099 
L 332.107438 124.503099 
" clip-path="url(#p5262a68f00)" style="fill: none; stroke: #1f77b4; stroke-width: 1.5; stroke-linecap: square"/>
   </g>
   <g id="line2d_51">
    <path d="M 101.528926 271.264182 
L 107.299159 253.63295 
L 109.145633 248.731675 
L 110.761298 245.026343 
L 112.146154 242.364666 
L 113.300201 240.546026 
L 114.454248 239.111477 
L 115.608294 238.073215 
L 116.531532 237.531586 
L 117.454769 237.246293 
L 118.378006 237.213786 
L 119.301243 237.428701 
L 120.224481 237.882746 
L 121.147718 238.565964 
L 122.301765 239.725488 
L 123.455811 241.202354 
L 124.840667 243.356729 
L 126.456332 246.333954 
L 128.302807 250.240439 
L 130.6109 255.664709 
L 134.534659 265.546901 
L 139.612464 278.295636 
L 142.382176 284.644777 
L 144.690269 289.385255 
L 146.767553 293.136125 
L 148.614027 296.003929 
L 150.229693 298.106387 
L 151.614548 299.578658 
L 152.999404 300.7256 
L 154.153451 301.419928 
L 155.307498 301.866533 
L 156.461544 302.056931 
L 157.615591 301.983523 
L 158.769637 301.639592 
L 159.923684 301.019305 
L 161.077731 300.117712 
L 162.231777 298.930743 
L 163.616633 297.128401 
L 165.001489 294.932016 
L 166.386345 292.342269 
L 168.00201 288.834901 
L 169.848485 284.231192 
L 171.925769 278.406906 
L 174.695481 269.918619 
L 179.311667 255.674601 
L 181.388951 249.959956 
L 183.004616 246.073806 
L 184.389472 243.226127 
L 185.774328 240.883265 
L 186.928375 239.346956 
L 188.082421 238.207374 
L 189.005659 237.588655 
L 189.928896 237.233135 
L 190.852133 237.140591 
L 191.77537 237.308156 
L 192.698608 237.730317 
L 193.621845 238.392758 
L 194.775892 239.526969 
L 195.929938 240.977816 
L 197.314794 243.099612 
L 198.930459 246.038822 
L 200.776934 249.909114 
L 203.085027 255.321327 
L 207.008786 265.243406 
L 212.3174 278.558799 
L 215.087112 284.883894 
L 217.395205 289.599854 
L 219.472489 293.313333 
L 221.318964 296.143748 
L 222.934629 298.22318 
L 224.319485 299.67853 
L 225.704341 300.808349 
L 226.858387 301.486918 
L 228.012434 301.915718 
L 229.166481 302.086025 
L 230.320527 301.990387 
L 231.474574 301.622618 
L 232.62862 300.977803 
L 233.782667 300.052296 
L 234.936714 298.84372 
L 236.32157 297.018307 
L 237.706425 294.784246 
L 239.091281 292.145782 
L 240.706947 288.589786 
L 242.553421 283.958502 
L 244.630705 278.142737 
L 247.631226 268.981281 
L 252.478222 254.083736 
L 254.324697 249.09416 
L 255.940362 245.303522 
L 257.325218 242.549764 
L 258.710074 240.299722 
L 259.86412 238.834642 
L 261.018167 237.758621 
L 261.941404 237.185285 
L 262.864642 236.871362 
L 263.787879 236.818514 
L 264.711116 237.026602 
L 265.634353 237.493683 
L 266.557591 238.216009 
L 267.480828 239.188033 
L 268.634875 240.737442 
L 270.01973 242.985172 
L 271.635396 246.055661 
L 273.48187 250.054733 
L 275.789964 255.606499 
L 279.482913 265.188465 
L 284.099099 277.058607 
L 286.868811 283.630851 
L 289.176904 288.588815 
L 291.254188 292.538875 
L 293.100663 295.577168 
L 294.716328 297.831423 
L 296.331993 299.681143 
L 297.716849 300.940867 
L 298.870896 301.741979 
L 300.024942 302.29863 
L 301.178989 302.596275 
L 302.333036 302.622951 
L 303.256273 302.442807 
L 304.410319 301.959848 
L 305.564366 301.186179 
L 306.718413 300.11966 
L 307.872459 298.760734 
L 309.257315 296.748492 
L 310.642171 294.329828 
L 312.257836 291.015364 
L 313.873502 287.202876 
L 315.719976 282.279782 
L 318.028069 275.373011 
L 324.952349 254.055268 
L 327.029633 248.599736 
L 328.645298 244.906111 
L 330.260963 241.767743 
L 331.645819 239.557935 
L 332.107438 238.924241 
L 332.107438 238.924241 
" clip-path="url(#p5262a68f00)" style="fill: none; stroke: #ff7f0e; stroke-width: 1.5; stroke-linecap: square"/>
   </g>
   <g id="patch_3">
    <path d="M 90 315 
L 90 43.2 
" style="fill: none; stroke: #000000; stroke-width: 0.8; stroke-linejoin: miter; stroke-linecap: square"/>
   </g>
   <g id="patch_4">
    <path d="M 343.636364 315 
L 343.636364 43.2 
" style="fill: none; stroke: #000000; stroke-width: 0.8; stroke-linejoin: miter; stroke-linecap: square"/>
   </g>
   <g id="patch_5">
    <path d="M 90 315 
L 343.636364 315 
" style="fill: none; stroke: #000000; stroke-width: 0.8; stroke-linejoin: miter; stroke-linecap: square"/>
   </g>
   <g id="patch_6">
    <path d="M 90 43.2 
L 343.636364 43.2 
" style="fill: none; stroke: #000000; stroke-width: 0.8; stroke-linejoin: miter; stroke-linecap: square"/>
   </g>
   <g id="text_14">
    <!-- (a) -->
    <g transform="translate(208.459432 37.2) scale(0.12 -0.12)">
     <use xlink:href="#DejaVuSans-28"/>
     <use xlink:href="#DejaVuSans-61" x="39.013672"/>
     <use xlink:href="#DejaVuSans-29" x="100.292969"/>
    </g>
   </g>
   <g id="legend_1">
    <g id="patch_7">
     <path d="M 262.116051 80.55625 
L 336.636364 80.55625 
Q 338.636364 80.55625 338.636364 78.55625 
L 338.636364 50.2 
Q 338.636364 48.2 336.636364 48.2 
L 262.116051 48.2 
Q 260.116051 48.2 260.116051 50.2 
L 260.116051 78.55625 
Q 260.116051 80.55625 262.116051 80.55625 
z
" style="fill: #ffffff; opacity: 0.8; stroke: #cccccc; stroke-linejoin: miter"/>
    </g>
    <g id="line2d_52">
     <path d="M 264.116051 56.298437 
L 274.116051 56.298437 
L 284.116051 56.298437 
" style="fill: none; stroke: #1f77b4; stroke-width: 1.5; stroke-linecap: square"/>
    </g>
    <g id="text_15">
     <!-- Prey -->
     <g transform="translate(292.116051 59.798437) scale(0.1 -0.1)">
      <use xlink:href="#DejaVuSans-50"/>
      <use xlink:href="#DejaVuSans-72" x="58.552734"/>
      <use xlink:href="#DejaVuSans-65" x="97.416016"/>
      <use xlink:href="#DejaVuSans-79" x="158.939453"/>
     </g>
    </g>
    <g id="line2d_53">
     <path d="M 264.116051 70.976562 
L 274.116051 70.976562 
L 284.116051 70.976562 
" style="fill: none; stroke: #ff7f0e; stroke-width: 1.5; stroke-linecap: square"/>
    </g>
    <g id="text_16">
     <!-- Predator -->
     <g transform="translate(292.116051 74.476562) scale(0.1 -0.1)">
      <defs>
       <path id="DejaVuSans-64" d="M 2906 2969 
L 2906 4863 
L 3481 4863 
L 3481 0 
L 2906 0 
L 2906 525 
Q 2725 213 2448 61 
Q 2172 -91 1784 -91 
Q 1150 -91 751 415 
Q 353 922 353 1747 
Q 353 2572 751 3078 
Q 1150 3584 1784 3584 
Q 2172 3584 2448 3432 
Q 2725 3281 2906 2969 
z
M 947 1747 
Q 947 1113 1208 752 
Q 1469 391 1925 391 
Q 2381 391 2643 752 
Q 2906 1113 2906 1747 
Q 2906 2381 2643 2742 
Q 2381 3103 1925 3103 
Q 1469 3103 1208 2742 
Q 947 2381 947 1747 
z
" transform="scale(0.015625)"/>
      </defs>
      <use xlink:href="#DejaVuSans-50"/>
      <use xlink:href="#DejaVuSans-72" x="58.552734"/>
      <use xlink:href="#DejaVuSans-65" x="97.416016"/>
      <use xlink:href="#DejaVuSans-64" x="158.939453"/>
      <use xlink:href="#DejaVuSans-61" x="222.416016"/>
      <use xlink:href="#DejaVuSans-74" x="283.695312"/>
      <use xlink:href="#DejaVuSans-6f" x="322.904297"/>
      <use xlink:href="#DejaVuSans-72" x="384.085938"/>
     </g>
    </g>
   </g>
  </g>
  <g id="axes_2">
   <g id="patch_8">
    <path d="M 394.363636 315 
L 648 315 
L 648 43.2 
L 394.363636 43.2 
z
" style="fill: #ffffff"/>
   </g>
   <g id="matplotlib.axis_3">
    <g id="xtick_24">
     <g id="line2d_54">
      <g>
       <use xlink:href="#m2beb25e7ec" x="447.152752" y="315" style="stroke: #000000; stroke-width: 0.8"/>
      </g>
     </g>
     <g id="text_17">
      <!-- 2.5 -->
      <g transform="translate(439.20119 326.098437) scale(0.1 -0.1)">
       <use xlink:href="#DejaVuSans-32"/>
       <use xlink:href="#DejaVuSans-2e" x="63.623047"/>
       <use xlink:href="#DejaVuSans-35" x="95.410156"/>
      </g>
     </g>
    </g>
    <g id="xtick_25">
     <g id="line2d_55">
      <g>
       <use xlink:href="#m2beb25e7ec" x="509.80849" y="315" style="stroke: #000000; stroke-width: 0.8"/>
      </g>
     </g>
     <g id="text_18">
      <!-- 3.0 -->
      <g transform="translate(501.856927 326.098437) scale(0.1 -0.1)">
       <use xlink:href="#DejaVuSans-33"/>
       <use xlink:href="#DejaVuSans-2e" x="63.623047"/>
       <use xlink:href="#DejaVuSans-30" x="95.410156"/>
      </g>
     </g>
    </g>
    <g id="xtick_26">
     <g id="line2d_56">
      <g>
       <use xlink:href="#m2beb25e7ec" x="572.464228" y="315" style="stroke: #000000; stroke-width: 0.8"/>
      </g>
     </g>
     <g id="text_19">
      <!-- 3.5 -->
      <g transform="translate(564.512665 326.098437) scale(0.1 -0.1)">
       <use xlink:href="#DejaVuSans-33"/>
       <use xlink:href="#DejaVuSans-2e" x="63.623047"/>
       <use xlink:href="#DejaVuSans-35" x="95.410156"/>
      </g>
     </g>
    </g>
    <g id="xtick_27">
     <g id="line2d_57">
      <g>
       <use xlink:href="#m2beb25e7ec" x="635.119965" y="315" style="stroke: #000000; stroke-width: 0.8"/>
      </g>
     </g>
     <g id="text_20">
      <!-- 4.0 -->
      <g transform="translate(627.168403 326.098437) scale(0.1 -0.1)">
       <use xlink:href="#DejaVuSans-34"/>
       <use xlink:href="#DejaVuSans-2e" x="63.623047"/>
       <use xlink:href="#DejaVuSans-30" x="95.410156"/>
      </g>
     </g>
    </g>
    <g id="xtick_28">
     <g id="line2d_58">
      <g>
       <use xlink:href="#m5ca76370de" x="397.028162" y="315" style="stroke: #000000; stroke-width: 0.6"/>
      </g>
     </g>
    </g>
    <g id="xtick_29">
     <g id="line2d_59">
      <g>
       <use xlink:href="#m5ca76370de" x="409.559309" y="315" style="stroke: #000000; stroke-width: 0.6"/>
      </g>
     </g>
    </g>
    <g id="xtick_30">
     <g id="line2d_60">
      <g>
       <use xlink:href="#m5ca76370de" x="422.090457" y="315" style="stroke: #000000; stroke-width: 0.6"/>
      </g>
     </g>
    </g>
    <g id="xtick_31">
     <g id="line2d_61">
      <g>
       <use xlink:href="#m5ca76370de" x="434.621604" y="315" style="stroke: #000000; stroke-width: 0.6"/>
      </g>
     </g>
    </g>
    <g id="xtick_32">
     <g id="line2d_62">
      <g>
       <use xlink:href="#m5ca76370de" x="459.6839" y="315" style="stroke: #000000; stroke-width: 0.6"/>
      </g>
     </g>
    </g>
    <g id="xtick_33">
     <g id="line2d_63">
      <g>
       <use xlink:href="#m5ca76370de" x="472.215047" y="315" style="stroke: #000000; stroke-width: 0.6"/>
      </g>
     </g>
    </g>
    <g id="xtick_34">
     <g id="line2d_64">
      <g>
       <use xlink:href="#m5ca76370de" x="484.746195" y="315" style="stroke: #000000; stroke-width: 0.6"/>
      </g>
     </g>
    </g>
    <g id="xtick_35">
     <g id="line2d_65">
      <g>
       <use xlink:href="#m5ca76370de" x="497.277342" y="315" style="stroke: #000000; stroke-width: 0.6"/>
      </g>
     </g>
    </g>
    <g id="xtick_36">
     <g id="line2d_66">
      <g>
       <use xlink:href="#m5ca76370de" x="522.339637" y="315" style="stroke: #000000; stroke-width: 0.6"/>
      </g>
     </g>
    </g>
    <g id="xtick_37">
     <g id="line2d_67">
      <g>
       <use xlink:href="#m5ca76370de" x="534.870785" y="315" style="stroke: #000000; stroke-width: 0.6"/>
      </g>
     </g>
    </g>
    <g id="xtick_38">
     <g id="line2d_68">
      <g>
       <use xlink:href="#m5ca76370de" x="547.401932" y="315" style="stroke: #000000; stroke-width: 0.6"/>
      </g>
     </g>
    </g>
    <g id="xtick_39">
     <g id="line2d_69">
      <g>
       <use xlink:href="#m5ca76370de" x="559.93308" y="315" style="stroke: #000000; stroke-width: 0.6"/>
      </g>
     </g>
    </g>
    <g id="xtick_40">
     <g id="line2d_70">
      <g>
       <use xlink:href="#m5ca76370de" x="584.995375" y="315" style="stroke: #000000; stroke-width: 0.6"/>
      </g>
     </g>
    </g>
    <g id="xtick_41">
     <g id="line2d_71">
      <g>
       <use xlink:href="#m5ca76370de" x="597.526523" y="315" style="stroke: #000000; stroke-width: 0.6"/>
      </g>
     </g>
    </g>
    <g id="xtick_42">
     <g id="line2d_72">
      <g>
       <use xlink:href="#m5ca76370de" x="610.05767" y="315" style="stroke: #000000; stroke-width: 0.6"/>
      </g>
     </g>
    </g>
    <g id="xtick_43">
     <g id="line2d_73">
      <g>
       <use xlink:href="#m5ca76370de" x="622.588818" y="315" style="stroke: #000000; stroke-width: 0.6"/>
      </g>
     </g>
    </g>
    <g id="xtick_44">
     <g id="line2d_74">
      <g>
       <use xlink:href="#m5ca76370de" x="647.651113" y="315" style="stroke: #000000; stroke-width: 0.6"/>
      </g>
     </g>
    </g>
    <g id="text_21">
     <!-- Prey -->
     <g transform="translate(510.275568 339.776563) scale(0.1 -0.1)">
      <use xlink:href="#DejaVuSans-50"/>
      <use xlink:href="#DejaVuSans-72" x="58.552734"/>
      <use xlink:href="#DejaVuSans-65" x="97.416016"/>
      <use xlink:href="#DejaVuSans-79" x="158.939453"/>
     </g>
    </g>
   </g>
   <g id="matplotlib.axis_4">
    <g id="ytick_27">
     <g id="line2d_75">
      <g>
       <use xlink:href="#m2d87773754" x="394.363636" y="305.654139" style="stroke: #000000; stroke-width: 0.8"/>
      </g>
     </g>
     <g id="text_22">
      <!-- 1.7 -->
      <g transform="translate(374.960511 309.453358) scale(0.1 -0.1)">
       <defs>
        <path id="DejaVuSans-37" d="M 525 4666 
L 3525 4666 
L 3525 4397 
L 1831 0 
L 1172 0 
L 2766 4134 
L 525 4134 
L 525 4666 
z
" transform="scale(0.015625)"/>
       </defs>
       <use xlink:href="#DejaVuSans-31"/>
       <use xlink:href="#DejaVuSans-2e" x="63.623047"/>
       <use xlink:href="#DejaVuSans-37" x="95.410156"/>
      </g>
     </g>
    </g>
    <g id="ytick_28">
     <g id="line2d_76">
      <g>
       <use xlink:href="#m2d87773754" x="394.363636" y="265.393266" style="stroke: #000000; stroke-width: 0.8"/>
      </g>
     </g>
     <g id="text_23">
      <!-- 1.8 -->
      <g transform="translate(374.960511 269.192484) scale(0.1 -0.1)">
       <use xlink:href="#DejaVuSans-31"/>
       <use xlink:href="#DejaVuSans-2e" x="63.623047"/>
       <use xlink:href="#DejaVuSans-38" x="95.410156"/>
      </g>
     </g>
    </g>
    <g id="ytick_29">
     <g id="line2d_77">
      <g>
       <use xlink:href="#m2d87773754" x="394.363636" y="225.132392" style="stroke: #000000; stroke-width: 0.8"/>
      </g>
     </g>
     <g id="text_24">
      <!-- 1.9 -->
      <g transform="translate(374.960511 228.931611) scale(0.1 -0.1)">
       <defs>
        <path id="DejaVuSans-39" d="M 703 97 
L 703 672 
Q 941 559 1184 500 
Q 1428 441 1663 441 
Q 2288 441 2617 861 
Q 2947 1281 2994 2138 
Q 2813 1869 2534 1725 
Q 2256 1581 1919 1581 
Q 1219 1581 811 2004 
Q 403 2428 403 3163 
Q 403 3881 828 4315 
Q 1253 4750 1959 4750 
Q 2769 4750 3195 4129 
Q 3622 3509 3622 2328 
Q 3622 1225 3098 567 
Q 2575 -91 1691 -91 
Q 1453 -91 1209 -44 
Q 966 3 703 97 
z
M 1959 2075 
Q 2384 2075 2632 2365 
Q 2881 2656 2881 3163 
Q 2881 3666 2632 3958 
Q 2384 4250 1959 4250 
Q 1534 4250 1286 3958 
Q 1038 3666 1038 3163 
Q 1038 2656 1286 2365 
Q 1534 2075 1959 2075 
z
" transform="scale(0.015625)"/>
       </defs>
       <use xlink:href="#DejaVuSans-31"/>
       <use xlink:href="#DejaVuSans-2e" x="63.623047"/>
       <use xlink:href="#DejaVuSans-39" x="95.410156"/>
      </g>
     </g>
    </g>
    <g id="ytick_30">
     <g id="line2d_78">
      <g>
       <use xlink:href="#m2d87773754" x="394.363636" y="184.871518" style="stroke: #000000; stroke-width: 0.8"/>
      </g>
     </g>
     <g id="text_25">
      <!-- 2.0 -->
      <g transform="translate(374.960511 188.670737) scale(0.1 -0.1)">
       <use xlink:href="#DejaVuSans-32"/>
       <use xlink:href="#DejaVuSans-2e" x="63.623047"/>
       <use xlink:href="#DejaVuSans-30" x="95.410156"/>
      </g>
     </g>
    </g>
    <g id="ytick_31">
     <g id="line2d_79">
      <g>
       <use xlink:href="#m2d87773754" x="394.363636" y="144.610645" style="stroke: #000000; stroke-width: 0.8"/>
      </g>
     </g>
     <g id="text_26">
      <!-- 2.1 -->
      <g transform="translate(374.960511 148.409863) scale(0.1 -0.1)">
       <use xlink:href="#DejaVuSans-32"/>
       <use xlink:href="#DejaVuSans-2e" x="63.623047"/>
       <use xlink:href="#DejaVuSans-31" x="95.410156"/>
      </g>
     </g>
    </g>
    <g id="ytick_32">
     <g id="line2d_80">
      <g>
       <use xlink:href="#m2d87773754" x="394.363636" y="104.349771" style="stroke: #000000; stroke-width: 0.8"/>
      </g>
     </g>
     <g id="text_27">
      <!-- 2.2 -->
      <g transform="translate(374.960511 108.14899) scale(0.1 -0.1)">
       <use xlink:href="#DejaVuSans-32"/>
       <use xlink:href="#DejaVuSans-2e" x="63.623047"/>
       <use xlink:href="#DejaVuSans-32" x="95.410156"/>
      </g>
     </g>
    </g>
    <g id="ytick_33">
     <g id="line2d_81">
      <g>
       <use xlink:href="#m2d87773754" x="394.363636" y="64.088897" style="stroke: #000000; stroke-width: 0.8"/>
      </g>
     </g>
     <g id="text_28">
      <!-- 2.3 -->
      <g transform="translate(374.960511 67.888116) scale(0.1 -0.1)">
       <use xlink:href="#DejaVuSans-32"/>
       <use xlink:href="#DejaVuSans-2e" x="63.623047"/>
       <use xlink:href="#DejaVuSans-33" x="95.410156"/>
      </g>
     </g>
    </g>
    <g id="ytick_34">
     <g id="line2d_82">
      <g>
       <use xlink:href="#m9e36c6bbfb" x="394.363636" y="313.706314" style="stroke: #000000; stroke-width: 0.6"/>
      </g>
     </g>
    </g>
    <g id="ytick_35">
     <g id="line2d_83">
      <g>
       <use xlink:href="#m9e36c6bbfb" x="394.363636" y="297.601965" style="stroke: #000000; stroke-width: 0.6"/>
      </g>
     </g>
    </g>
    <g id="ytick_36">
     <g id="line2d_84">
      <g>
       <use xlink:href="#m9e36c6bbfb" x="394.363636" y="289.54979" style="stroke: #000000; stroke-width: 0.6"/>
      </g>
     </g>
    </g>
    <g id="ytick_37">
     <g id="line2d_85">
      <g>
       <use xlink:href="#m9e36c6bbfb" x="394.363636" y="281.497615" style="stroke: #000000; stroke-width: 0.6"/>
      </g>
     </g>
    </g>
    <g id="ytick_38">
     <g id="line2d_86">
      <g>
       <use xlink:href="#m9e36c6bbfb" x="394.363636" y="273.44544" style="stroke: #000000; stroke-width: 0.6"/>
      </g>
     </g>
    </g>
    <g id="ytick_39">
     <g id="line2d_87">
      <g>
       <use xlink:href="#m9e36c6bbfb" x="394.363636" y="257.341091" style="stroke: #000000; stroke-width: 0.6"/>
      </g>
     </g>
    </g>
    <g id="ytick_40">
     <g id="line2d_88">
      <g>
       <use xlink:href="#m9e36c6bbfb" x="394.363636" y="249.288916" style="stroke: #000000; stroke-width: 0.6"/>
      </g>
     </g>
    </g>
    <g id="ytick_41">
     <g id="line2d_89">
      <g>
       <use xlink:href="#m9e36c6bbfb" x="394.363636" y="241.236741" style="stroke: #000000; stroke-width: 0.6"/>
      </g>
     </g>
    </g>
    <g id="ytick_42">
     <g id="line2d_90">
      <g>
       <use xlink:href="#m9e36c6bbfb" x="394.363636" y="233.184567" style="stroke: #000000; stroke-width: 0.6"/>
      </g>
     </g>
    </g>
    <g id="ytick_43">
     <g id="line2d_91">
      <g>
       <use xlink:href="#m9e36c6bbfb" x="394.363636" y="217.080217" style="stroke: #000000; stroke-width: 0.6"/>
      </g>
     </g>
    </g>
    <g id="ytick_44">
     <g id="line2d_92">
      <g>
       <use xlink:href="#m9e36c6bbfb" x="394.363636" y="209.028042" style="stroke: #000000; stroke-width: 0.6"/>
      </g>
     </g>
    </g>
    <g id="ytick_45">
     <g id="line2d_93">
      <g>
       <use xlink:href="#m9e36c6bbfb" x="394.363636" y="200.975868" style="stroke: #000000; stroke-width: 0.6"/>
      </g>
     </g>
    </g>
    <g id="ytick_46">
     <g id="line2d_94">
      <g>
       <use xlink:href="#m9e36c6bbfb" x="394.363636" y="192.923693" style="stroke: #000000; stroke-width: 0.6"/>
      </g>
     </g>
    </g>
    <g id="ytick_47">
     <g id="line2d_95">
      <g>
       <use xlink:href="#m9e36c6bbfb" x="394.363636" y="176.819344" style="stroke: #000000; stroke-width: 0.6"/>
      </g>
     </g>
    </g>
    <g id="ytick_48">
     <g id="line2d_96">
      <g>
       <use xlink:href="#m9e36c6bbfb" x="394.363636" y="168.767169" style="stroke: #000000; stroke-width: 0.6"/>
      </g>
     </g>
    </g>
    <g id="ytick_49">
     <g id="line2d_97">
      <g>
       <use xlink:href="#m9e36c6bbfb" x="394.363636" y="160.714994" style="stroke: #000000; stroke-width: 0.6"/>
      </g>
     </g>
    </g>
    <g id="ytick_50">
     <g id="line2d_98">
      <g>
       <use xlink:href="#m9e36c6bbfb" x="394.363636" y="152.662819" style="stroke: #000000; stroke-width: 0.6"/>
      </g>
     </g>
    </g>
    <g id="ytick_51">
     <g id="line2d_99">
      <g>
       <use xlink:href="#m9e36c6bbfb" x="394.363636" y="136.55847" style="stroke: #000000; stroke-width: 0.6"/>
      </g>
     </g>
    </g>
    <g id="ytick_52">
     <g id="line2d_100">
      <g>
       <use xlink:href="#m9e36c6bbfb" x="394.363636" y="128.506295" style="stroke: #000000; stroke-width: 0.6"/>
      </g>
     </g>
    </g>
    <g id="ytick_53">
     <g id="line2d_101">
      <g>
       <use xlink:href="#m9e36c6bbfb" x="394.363636" y="120.45412" style="stroke: #000000; stroke-width: 0.6"/>
      </g>
     </g>
    </g>
    <g id="ytick_54">
     <g id="line2d_102">
      <g>
       <use xlink:href="#m9e36c6bbfb" x="394.363636" y="112.401946" style="stroke: #000000; stroke-width: 0.6"/>
      </g>
     </g>
    </g>
    <g id="ytick_55">
     <g id="line2d_103">
      <g>
       <use xlink:href="#m9e36c6bbfb" x="394.363636" y="96.297596" style="stroke: #000000; stroke-width: 0.6"/>
      </g>
     </g>
    </g>
    <g id="ytick_56">
     <g id="line2d_104">
      <g>
       <use xlink:href="#m9e36c6bbfb" x="394.363636" y="88.245421" style="stroke: #000000; stroke-width: 0.6"/>
      </g>
     </g>
    </g>
    <g id="ytick_57">
     <g id="line2d_105">
      <g>
       <use xlink:href="#m9e36c6bbfb" x="394.363636" y="80.193247" style="stroke: #000000; stroke-width: 0.6"/>
      </g>
     </g>
    </g>
    <g id="ytick_58">
     <g id="line2d_106">
      <g>
       <use xlink:href="#m9e36c6bbfb" x="394.363636" y="72.141072" style="stroke: #000000; stroke-width: 0.6"/>
      </g>
     </g>
    </g>
    <g id="ytick_59">
     <g id="line2d_107">
      <g>
       <use xlink:href="#m9e36c6bbfb" x="394.363636" y="56.036723" style="stroke: #000000; stroke-width: 0.6"/>
      </g>
     </g>
    </g>
    <g id="ytick_60">
     <g id="line2d_108">
      <g>
       <use xlink:href="#m9e36c6bbfb" x="394.363636" y="47.984548" style="stroke: #000000; stroke-width: 0.6"/>
      </g>
     </g>
    </g>
    <g id="text_29">
     <!-- Predator -->
     <g transform="translate(368.880824 200.360156) rotate(-90) scale(0.1 -0.1)">
      <use xlink:href="#DejaVuSans-50"/>
      <use xlink:href="#DejaVuSans-72" x="58.552734"/>
      <use xlink:href="#DejaVuSans-65" x="97.416016"/>
      <use xlink:href="#DejaVuSans-64" x="158.939453"/>
      <use xlink:href="#DejaVuSans-61" x="222.416016"/>
      <use xlink:href="#DejaVuSans-74" x="283.695312"/>
      <use xlink:href="#DejaVuSans-6f" x="322.904297"/>
      <use xlink:href="#DejaVuSans-72" x="384.085938"/>
     </g>
    </g>
   </g>
   <g id="line2d_109">
    <path d="M 635.119965 184.871518 
L 634.985783 179.481973 
L 634.582529 174.068038 
L 633.909923 168.641498 
L 632.96873 163.214405 
L 631.760752 157.799082 
L 630.282648 152.402362 
L 628.534447 147.032841 
L 626.526185 141.707275 
L 624.268016 136.441751 
L 621.770196 131.251674 
L 619.04308 126.151767 
L 616.097123 121.156067 
L 612.942879 116.277928 
L 609.591005 111.530022 
L 606.052254 106.924335 
L 602.337482 102.472171 
L 598.457644 98.184151 
L 594.423794 94.07021 
L 590.247088 90.139601 
L 585.938779 86.400893 
L 581.510223 82.861973 
L 576.972875 79.530041 
L 572.338289 76.411617 
L 567.618119 73.512535 
L 562.824121 70.837946 
L 557.968148 68.392317 
L 553.062156 66.179434 
L 548.118198 64.202395 
L 543.148429 62.463618 
L 538.165103 60.964837 
L 533.180575 59.7071 
L 528.2073 58.690773 
L 523.25783 57.915539 
L 518.34482 57.380397 
L 513.481025 57.083662 
L 508.679299 57.022965 
L 503.945141 57.195965 
L 499.278489 57.599779 
L 494.686499 58.230204 
L 490.175954 59.082803 
L 485.753232 60.152905 
L 481.424302 61.435606 
L 477.194729 62.92577 
L 473.069667 64.618029 
L 469.053869 66.506781 
L 465.151675 68.586192 
L 461.367023 70.850196 
L 457.703441 73.292493 
L 454.164053 75.906551 
L 450.751574 78.685606 
L 447.468313 81.62266 
L 444.316172 84.710484 
L 441.296646 87.941615 
L 438.410825 91.308358 
L 435.659389 94.802784 
L 433.042614 98.416733 
L 430.560369 102.141813 
L 428.212113 105.969397 
L 425.996902 109.890626 
L 423.913384 113.89641 
L 421.031071 120.043166 
L 418.433361 126.326688 
L 416.110541 132.713348 
L 414.056624 139.179324 
L 412.280465 145.72472 
L 410.783041 152.329657 
L 409.564401 158.973547 
L 408.62428 165.636421 
L 407.962101 172.298929 
L 407.576969 178.942338 
L 407.467678 185.548535 
L 407.632706 192.100025 
L 408.070217 198.57993 
L 408.778062 204.971992 
L 409.753775 211.260572 
L 410.994578 217.430647 
L 412.497379 223.467813 
L 414.25877 229.358286 
L 416.275031 235.0889 
L 418.542125 240.647105 
L 421.055704 246.020972 
L 423.811102 251.19919 
L 426.800438 256.17273 
L 430.00685 260.940128 
L 433.435047 265.490492 
L 437.091354 269.81165 
L 439.657941 272.559269 
L 442.328883 275.196417 
L 445.104741 277.719806 
L 447.985725 280.126233 
L 450.971696 282.412579 
L 454.062166 284.575808 
L 457.256294 286.612974 
L 460.552892 288.52121 
L 463.95042 290.297738 
L 467.446987 291.939862 
L 471.040354 293.444973 
L 474.727931 294.810545 
L 478.506776 296.034139 
L 482.3736 297.113399 
L 486.324762 298.046054 
L 490.356271 298.829919 
L 494.463785 299.462892 
L 498.642614 299.942957 
L 502.887716 300.268183 
L 507.193699 300.436724 
L 511.554822 300.446817 
L 515.964994 300.296786 
L 520.41777 299.985039 
L 524.906361 299.510069 
L 529.423622 298.870452 
L 533.962062 298.064852 
L 538.513838 297.092016 
L 543.070756 295.950775 
L 547.624274 294.640047 
L 552.165499 293.158834 
L 556.685187 291.506221 
L 561.173744 289.68138 
L 565.621226 287.683568 
L 570.017341 285.512125 
L 574.361732 283.170997 
L 578.66172 280.668363 
L 582.900997 278.002836 
L 587.06319 275.173329 
L 591.132615 272.179377 
L 595.094274 269.021134 
L 598.933855 265.699376 
L 602.637735 262.2155 
L 606.192976 258.571523 
L 609.587327 254.770082 
L 612.809225 250.814437 
L 615.847793 246.708467 
L 618.692842 242.456673 
L 621.334869 238.064175 
L 623.765058 233.536716 
L 625.97528 228.880658 
L 627.958092 224.102985 
L 629.706741 219.211301 
L 631.215156 214.213831 
L 632.477958 209.119422 
L 633.490452 203.937539 
L 634.248629 198.678271 
L 634.74917 193.352325 
L 634.989441 187.97103 
L 634.967494 182.546337 
L 634.682071 177.090816 
L 634.132597 171.617657 
L 633.319187 166.140675 
L 632.242642 160.6743 
L 630.90445 155.233588 
L 629.306784 149.834212 
L 627.452507 144.492468 
L 625.345512 139.221749 
L 622.993856 134.017954 
L 620.407079 128.892611 
L 617.594761 123.859886 
L 614.566646 118.933322 
L 611.332638 114.125845 
L 607.902805 109.449758 
L 604.287376 104.916745 
L 600.496742 100.537867 
L 596.541459 96.323568 
L 592.432244 92.283669 
L 588.179974 88.427373 
L 583.795693 84.76326 
L 579.290603 81.299292 
L 574.676071 78.042808 
L 569.963626 75.00053 
L 565.164959 72.178555 
L 560.291922 69.582365 
L 555.356532 67.216816 
L 550.370967 65.086149 
L 545.347568 63.19398 
L 540.298836 61.543307 
L 535.237438 60.136508 
L 530.176201 58.975338 
L 525.128116 58.060935 
L 520.106334 57.393814 
L 515.12417 56.973871 
L 510.195101 56.800381 
L 505.332767 56.871998 
L 500.550971 57.186757 
L 495.863675 57.742071 
L 491.285006 58.534734 
L 486.82811 59.56055 
L 482.473602 60.804626 
L 478.213886 62.25675 
L 474.054511 63.911104 
L 470.000646 65.761739 
L 466.057073 67.802567 
L 462.22819 70.027364 
L 458.518014 72.429771 
L 454.930175 75.003292 
L 451.46792 77.741295 
L 448.134112 80.637012 
L 444.931231 83.68354 
L 441.861372 86.873837 
L 438.926245 90.200728 
L 436.127179 93.6569 
L 433.465116 97.234904 
L 430.940616 100.927156 
L 428.553854 104.725935 
L 426.304622 108.623384 
L 424.192327 112.611509 
L 422.215992 116.682182 
L 420.374258 120.827137 
L 417.86011 127.165433 
L 415.637289 133.622999 
L 413.696345 140.170217 
L 412.025882 146.776779 
L 410.612561 153.411688 
L 409.452094 160.056509 
L 408.561931 166.715993 
L 407.943163 173.372171 
L 407.595771 180.0066 
L 407.519456 186.601423 
L 407.713635 193.139378 
L 408.177442 199.603787 
L 408.909729 205.978566 
L 409.909065 212.24822 
L 411.173736 218.397842 
L 412.701744 224.413116 
L 414.49081 230.280317 
L 416.53837 235.986308 
L 418.84158 241.518542 
L 421.397312 246.865063 
L 424.202153 252.014504 
L 427.252409 256.956088 
L 430.544105 261.679627 
L 434.072979 266.175525 
L 437.832168 270.435993 
L 441.798968 274.462406 
L 445.974181 278.244546 
L 448.876057 280.623903 
L 451.873902 282.885327 
L 454.96834 285.025291 
L 458.159596 287.040388 
L 461.447498 288.927334 
L 464.831473 290.682967 
L 468.310554 292.304246 
L 471.883371 293.788254 
L 475.54816 295.132193 
L 479.302757 296.333389 
L 483.144599 297.38929 
L 487.070726 298.297465 
L 491.077779 299.055606 
L 495.162003 299.661525 
L 499.319241 300.113158 
L 503.544942 300.408562 
L 507.834154 300.545916 
L 512.181527 300.523522 
L 516.581314 300.339802 
L 521.027369 299.993302 
L 525.513148 299.482687 
L 530.031709 298.806748 
L 534.575712 297.964395 
L 539.137418 296.954661 
L 543.708691 295.7767 
L 548.280996 294.42979 
L 552.845399 292.913328 
L 557.392569 291.226836 
L 561.912778 289.369955 
L 566.395896 287.342451 
L 570.8314 285.14421 
L 575.208364 282.775239 
L 579.515466 280.235671 
L 583.740987 277.525755 
L 587.872807 274.645868 
L 591.89841 271.596505 
L 595.804881 268.378284 
L 599.583083 264.992996 
L 603.24104 261.448022 
L 606.766536 257.747408 
L 610.144718 253.894861 
L 613.361587 249.894522 
L 616.404 245.750966 
L 619.259672 241.469208 
L 621.917173 237.054694 
L 624.365928 232.51331 
L 626.59622 227.851376 
L 628.599188 223.075647 
L 630.366825 218.193315 
L 631.891983 213.212008 
L 633.168368 208.139789 
L 634.190543 202.985158 
L 634.953927 197.757048 
L 635.454795 192.464832 
L 635.690278 187.118316 
L 635.658364 181.727741 
L 635.357896 176.303788 
L 634.788573 170.857569 
L 633.950951 165.400636 
L 632.846442 159.944972 
L 631.477314 154.503001 
L 629.846691 149.08758 
L 627.958553 143.712002 
L 625.817736 138.389996 
L 623.429933 133.135726 
L 620.801691 127.963795 
L 617.940417 122.889238 
L 614.854369 117.927527 
L 611.552666 113.094572 
L 608.045823 108.406604 
L 604.367054 103.873668 
L 600.535562 99.502686 
L 596.557661 95.301837 
L 592.440039 91.278879 
L 588.189753 87.441146 
L 583.814231 83.795548 
L 579.321269 80.348574 
L 574.719035 77.106289 
L 570.016066 74.074336 
L 565.22127 71.257935 
L 560.343924 68.661881 
L 555.393678 66.29055 
L 550.380548 64.147892 
L 545.314923 62.237436 
L 540.207561 60.562287 
L 535.06959 59.125128 
L 529.91251 57.928219 
L 524.748188 56.973396 
L 519.588863 56.262073 
L 514.447145 55.795242 
L 509.336013 55.573471 
L 504.268815 55.596906 
L 499.25927 55.865269 
L 494.321469 56.377861 
L 489.469871 57.133557 
L 484.719305 58.130813 
L 480.084972 59.367659 
L 475.582441 60.841704 
L 471.227652 62.550134 
L 467.036915 64.489711 
L 463.026911 66.656775 
L 459.204866 69.042711 
L 455.511929 71.609216 
L 451.938236 74.342704 
L 448.487214 77.236021 
L 445.161987 80.281997 
L 441.965379 83.473445 
L 438.899914 86.80316 
L 435.967813 90.263922 
L 433.170999 93.848494 
L 430.51109 97.549622 
L 427.989406 101.360034 
L 425.606965 105.272444 
L 423.364485 109.279547 
L 421.26238 113.374023 
L 419.300766 117.548534 
L 417.479458 121.795725 
L 415.797967 126.108226 
L 413.536083 132.683268 
L 411.583017 139.363626 
L 409.933313 146.124212 
L 408.579996 152.939853 
L 407.514564 159.785291 
L 406.726991 166.635184 
L 406.205729 173.464105 
L 405.937704 180.246542 
L 405.908319 186.9569 
L 406.123593 193.590664 
L 406.601049 200.149669 
L 407.34175 206.617999 
L 408.346348 212.980233 
L 409.615083 219.22145 
L 411.147788 225.327227 
L 412.943882 231.283637 
L 415.002375 237.077251 
L 417.321867 242.695136 
L 419.900546 248.12486 
L 422.736191 253.354485 
L 425.826169 258.372573 
L 428.025966 261.595019 
L 430.336452 264.715457 
L 432.756545 267.730864 
L 435.285079 270.638319 
L 437.920807 273.434997 
L 440.662403 276.118171 
L 443.508459 278.685214 
L 446.457483 281.133597 
L 449.507907 283.460889 
L 452.658079 285.664755 
L 455.906264 287.742962 
L 459.250646 289.693384 
L 464.437618 292.388384 
L 468.005176 294.030147 
L 471.658903 295.542211 
L 475.397127 296.919901 
L 479.217824 298.158794 
L 483.118621 299.254711 
L 487.096793 300.203726 
L 491.149267 301.002158 
L 495.272617 301.646576 
L 499.463067 302.133796 
L 503.716493 302.460882 
L 508.028419 302.62515 
L 512.394018 302.624159 
L 516.808112 302.455721 
L 521.265176 302.117892 
L 525.759332 301.60898 
L 530.284351 300.927539 
L 534.833655 300.072373 
L 539.400316 299.042532 
L 543.977055 297.837317 
L 548.556241 296.456275 
L 553.129896 294.899202 
L 557.689688 293.166144 
L 562.226938 291.257394 
L 566.732613 289.173491 
L 571.197333 286.915226 
L 575.611367 284.483637 
L 579.96463 281.880009 
L 584.246692 279.105878 
L 588.446769 276.163025 
L 592.553728 273.053482 
L 596.556084 269.779527 
L 600.442004 266.34369 
L 604.199304 262.748745 
L 607.815448 258.997716 
L 611.277551 255.093877 
L 614.572377 251.040747 
L 617.68634 246.842096 
L 620.605504 242.501942 
L 623.315582 238.02455 
L 625.800903 233.413199 
L 628.029392 228.650253 
L 629.992536 223.741588 
L 631.692065 218.704079 
L 633.129875 213.554183 
L 634.308026 208.307937 
L 635.228746 202.980956 
L 635.894427 197.588435 
L 636.307628 192.145149 
L 636.471074 186.665452 
L 636.387656 181.163278 
L 636.06043 175.652139 
L 635.49262 170.14513 
L 634.687612 164.654922 
L 633.648963 159.193767 
L 632.380392 153.773497 
L 630.885786 148.405523 
L 629.169197 143.100835 
L 627.234843 137.870003 
L 625.087109 132.723177 
L 622.730544 127.670087 
L 620.169864 122.72004 
L 617.409952 117.881926 
L 614.455855 113.164211 
L 611.312787 108.574944 
L 607.986128 104.121752 
L 604.481424 99.81184 
L 600.804386 95.651995 
L 596.960892 91.648582 
L 592.956985 87.807546 
L 588.798874 84.134413 
L 584.492936 80.634285 
L 580.045711 77.311847 
L 575.463906 74.171363 
L 570.754395 71.216674 
L 565.924218 68.451203 
L 560.980577 65.877952 
L 555.931107 63.499701 
L 555.931107 63.499701 
" clip-path="url(#p565beab751)" style="fill: none; stroke: #000000; stroke-width: 1.5; stroke-linecap: square"/>
   </g>
   <g id="patch_9">
    <path d="M 394.363636 315 
L 394.363636 43.2 
" style="fill: none; stroke: #000000; stroke-width: 0.8; stroke-linejoin: miter; stroke-linecap: square"/>
   </g>
   <g id="patch_10">
    <path d="M 648 315 
L 648 43.2 
" style="fill: none; stroke: #000000; stroke-width: 0.8; stroke-linejoin: miter; stroke-linecap: square"/>
   </g>
   <g id="patch_11">
    <path d="M 394.363636 315 
L 648 315 
" style="fill: none; stroke: #000000; stroke-width: 0.8; stroke-linejoin: miter; stroke-linecap: square"/>
   </g>
   <g id="patch_12">
    <path d="M 394.363636 43.2 
L 648 43.2 
" style="fill: none; stroke: #000000; stroke-width: 0.8; stroke-linejoin: miter; stroke-linecap: square"/>
   </g>
   <g id="text_30">
    <!-- (b) -->
    <g transform="translate(512.690881 37.2) scale(0.12 -0.12)">
     <defs>
      <path id="DejaVuSans-62" d="M 3116 1747 
Q 3116 2381 2855 2742 
Q 2594 3103 2138 3103 
Q 1681 3103 1420 2742 
Q 1159 2381 1159 1747 
Q 1159 1113 1420 752 
Q 1681 391 2138 391 
Q 2594 391 2855 752 
Q 3116 1113 3116 1747 
z
M 1159 2969 
Q 1341 3281 1617 3432 
Q 1894 3584 2278 3584 
Q 2916 3584 3314 3078 
Q 3713 2572 3713 1747 
Q 3713 922 3314 415 
Q 2916 -91 2278 -91 
Q 1894 -91 1617 61 
Q 1341 213 1159 525 
L 1159 0 
L 581 0 
L 581 4863 
L 1159 4863 
L 1159 2969 
z
" transform="scale(0.015625)"/>
     </defs>
     <use xlink:href="#DejaVuSans-28"/>
     <use xlink:href="#DejaVuSans-62" x="39.013672"/>
     <use xlink:href="#DejaVuSans-29" x="102.490234"/>
    </g>
   </g>
  </g>
 </g>
 <defs>
  <clipPath id="p5262a68f00">
   <rect x="90" y="43.2" width="253.636364" height="271.8"/>
  </clipPath>
  <clipPath id="p565beab751">
   <rect x="394.363636" y="43.2" width="253.636364" height="271.8"/>
  </clipPath>
 </defs>
</svg>
