<?xml version="1.0" encoding="utf-8" standalone="no"?>
<!DOCTYPE svg PUBLIC "-//W3C//DTD SVG 1.1//EN"
  "http://www.w3.org/Graphics/SVG/1.1/DTD/svg11.dtd">
<svg xmlns:xlink="http://www.w3.org/1999/xlink" width="720pt" height="360pt" viewBox="0 0 720 360" xmlns="http://www.w3.org/2000/svg" version="1.1">
 <metadata>
  <rdf:RDF xmlns:dc="http://purl.org/dc/elements/1.1/" xmlns:cc="http://creativecommons.org/ns#" xmlns:rdf="http://www.w3.org/1999/02/22-rdf-syntax-ns#">
   <cc:Work>
    <dc:type rdf:resource="http://purl.org/dc/dcmitype/StillImage"/>
    <dc:date>2024-10-08T23:51:44.606229</dc:date>
    <dc:format>image/svg+xml</dc:format>
    <dc:creator>
     <cc:Agent>
      <dc:title>Matplotlib v3.8.3, https://matplotlib.org/</dc:title>
     </cc:Agent>
    </dc:creator>
   </cc:Work>
  </rdf:RDF>
 </metadata>
 <defs>
  <style type="text/css">*{stroke-linejoin: round; stroke-linecap: butt}</style>
 </defs>
 <g id="figure_1">
  <g id="patch_1">
   <path d="M 0 360 
L 720 360 
L 720 0 
L 0 0 
z
" style="fill: #ffffff"/>
  </g>
  <g id="axes_1">
   <g id="patch_2">
    <path d="M 90 315 
L 343.636364 315 
L 343.636364 43.2 
L 90 43.2 
z
" style="fill: #ffffff"/>
   </g>
   <g id="matplotlib.axis_1">
    <g id="xtick_1">
     <g id="line2d_1">
      <defs>
       <path id="mf59c0fae71" d="M 0 0 
L 0 -3.5 
" style="stroke: #000000; stroke-width: 0.8"/>
      </defs>
      <g>
       <use xlink:href="#mf59c0fae71" x="101.528926" y="315" style="stroke: #000000; stroke-width: 0.8"/>
      </g>
     </g>
     <g id="text_1">
      <!-- 0 -->
      <g transform="translate(98.347676 326.098437) scale(0.1 -0.1)">
       <defs>
        <path id="DejaVuSans-30" d="M 2034 4250 
Q 1547 4250 1301 3770 
Q 1056 3291 1056 2328 
Q 1056 1369 1301 889 
Q 1547 409 2034 409 
Q 2525 409 2770 889 
Q 3016 1369 3016 2328 
Q 3016 3291 2770 3770 
Q 2525 4250 2034 4250 
z
M 2034 4750 
Q 2819 4750 3233 4129 
Q 3647 3509 3647 2328 
Q 3647 1150 3233 529 
Q 2819 -91 2034 -91 
Q 1250 -91 836 529 
Q 422 1150 422 2328 
Q 422 3509 836 4129 
Q 1250 4750 2034 4750 
z
" transform="scale(0.015625)"/>
       </defs>
       <use xlink:href="#DejaVuSans-30"/>
      </g>
     </g>
    </g>
    <g id="xtick_2">
     <g id="line2d_2">
      <g>
       <use xlink:href="#mf59c0fae71" x="147.644628" y="315" style="stroke: #000000; stroke-width: 0.8"/>
      </g>
     </g>
     <g id="text_2">
      <!-- 2 -->
      <g transform="translate(144.463378 326.098437) scale(0.1 -0.1)">
       <defs>
        <path id="DejaVuSans-32" d="M 1228 531 
L 3431 531 
L 3431 0 
L 469 0 
L 469 531 
Q 828 903 1448 1529 
Q 2069 2156 2228 2338 
Q 2531 2678 2651 2914 
Q 2772 3150 2772 3378 
Q 2772 3750 2511 3984 
Q 2250 4219 1831 4219 
Q 1534 4219 1204 4116 
Q 875 4013 500 3803 
L 500 4441 
Q 881 4594 1212 4672 
Q 1544 4750 1819 4750 
Q 2544 4750 2975 4387 
Q 3406 4025 3406 3419 
Q 3406 3131 3298 2873 
Q 3191 2616 2906 2266 
Q 2828 2175 2409 1742 
Q 1991 1309 1228 531 
z
" transform="scale(0.015625)"/>
       </defs>
       <use xlink:href="#DejaVuSans-32"/>
      </g>
     </g>
    </g>
    <g id="xtick_3">
     <g id="line2d_3">
      <g>
       <use xlink:href="#mf59c0fae71" x="193.760331" y="315" style="stroke: #000000; stroke-width: 0.8"/>
      </g>
     </g>
     <g id="text_3">
      <!-- 4 -->
      <g transform="translate(190.579081 326.098437) scale(0.1 -0.1)">
       <defs>
        <path id="DejaVuSans-34" d="M 2419 4116 
L 825 1625 
L 2419 1625 
L 2419 4116 
z
M 2253 4666 
L 3047 4666 
L 3047 1625 
L 3713 1625 
L 3713 1100 
L 3047 1100 
L 3047 0 
L 2419 0 
L 2419 1100 
L 313 1100 
L 313 1709 
L 2253 4666 
z
" transform="scale(0.015625)"/>
       </defs>
       <use xlink:href="#DejaVuSans-34"/>
      </g>
     </g>
    </g>
    <g id="xtick_4">
     <g id="line2d_4">
      <g>
       <use xlink:href="#mf59c0fae71" x="239.876033" y="315" style="stroke: #000000; stroke-width: 0.8"/>
      </g>
     </g>
     <g id="text_4">
      <!-- 6 -->
      <g transform="translate(236.694783 326.098437) scale(0.1 -0.1)">
       <defs>
        <path id="DejaVuSans-36" d="M 2113 2584 
Q 1688 2584 1439 2293 
Q 1191 2003 1191 1497 
Q 1191 994 1439 701 
Q 1688 409 2113 409 
Q 2538 409 2786 701 
Q 3034 994 3034 1497 
Q 3034 2003 2786 2293 
Q 2538 2584 2113 2584 
z
M 3366 4563 
L 3366 3988 
Q 3128 4100 2886 4159 
Q 2644 4219 2406 4219 
Q 1781 4219 1451 3797 
Q 1122 3375 1075 2522 
Q 1259 2794 1537 2939 
Q 1816 3084 2150 3084 
Q 2853 3084 3261 2657 
Q 3669 2231 3669 1497 
Q 3669 778 3244 343 
Q 2819 -91 2113 -91 
Q 1303 -91 875 529 
Q 447 1150 447 2328 
Q 447 3434 972 4092 
Q 1497 4750 2381 4750 
Q 2619 4750 2861 4703 
Q 3103 4656 3366 4563 
z
" transform="scale(0.015625)"/>
       </defs>
       <use xlink:href="#DejaVuSans-36"/>
      </g>
     </g>
    </g>
    <g id="xtick_5">
     <g id="line2d_5">
      <g>
       <use xlink:href="#mf59c0fae71" x="285.991736" y="315" style="stroke: #000000; stroke-width: 0.8"/>
      </g>
     </g>
     <g id="text_5">
      <!-- 8 -->
      <g transform="translate(282.810486 326.098437) scale(0.1 -0.1)">
       <defs>
        <path id="DejaVuSans-38" d="M 2034 2216 
Q 1584 2216 1326 1975 
Q 1069 1734 1069 1313 
Q 1069 891 1326 650 
Q 1584 409 2034 409 
Q 2484 409 2743 651 
Q 3003 894 3003 1313 
Q 3003 1734 2745 1975 
Q 2488 2216 2034 2216 
z
M 1403 2484 
Q 997 2584 770 2862 
Q 544 3141 544 3541 
Q 544 4100 942 4425 
Q 1341 4750 2034 4750 
Q 2731 4750 3128 4425 
Q 3525 4100 3525 3541 
Q 3525 3141 3298 2862 
Q 3072 2584 2669 2484 
Q 3125 2378 3379 2068 
Q 3634 1759 3634 1313 
Q 3634 634 3220 271 
Q 2806 -91 2034 -91 
Q 1263 -91 848 271 
Q 434 634 434 1313 
Q 434 1759 690 2068 
Q 947 2378 1403 2484 
z
M 1172 3481 
Q 1172 3119 1398 2916 
Q 1625 2713 2034 2713 
Q 2441 2713 2670 2916 
Q 2900 3119 2900 3481 
Q 2900 3844 2670 4047 
Q 2441 4250 2034 4250 
Q 1625 4250 1398 4047 
Q 1172 3844 1172 3481 
z
" transform="scale(0.015625)"/>
       </defs>
       <use xlink:href="#DejaVuSans-38"/>
      </g>
     </g>
    </g>
    <g id="xtick_6">
     <g id="line2d_6">
      <g>
       <use xlink:href="#mf59c0fae71" x="332.107438" y="315" style="stroke: #000000; stroke-width: 0.8"/>
      </g>
     </g>
     <g id="text_6">
      <!-- 10 -->
      <g transform="translate(325.744938 326.098437) scale(0.1 -0.1)">
       <defs>
        <path id="DejaVuSans-31" d="M 794 531 
L 1825 531 
L 1825 4091 
L 703 3866 
L 703 4441 
L 1819 4666 
L 2450 4666 
L 2450 531 
L 3481 531 
L 3481 0 
L 794 0 
L 794 531 
z
" transform="scale(0.015625)"/>
       </defs>
       <use xlink:href="#DejaVuSans-31"/>
       <use xlink:href="#DejaVuSans-30" x="63.623047"/>
      </g>
     </g>
    </g>
    <g id="xtick_7">
     <g id="line2d_7">
      <defs>
       <path id="mc43cf70b74" d="M 0 0 
L 0 -2 
" style="stroke: #000000; stroke-width: 0.6"/>
      </defs>
      <g>
       <use xlink:href="#mc43cf70b74" x="90" y="315" style="stroke: #000000; stroke-width: 0.6"/>
      </g>
     </g>
    </g>
    <g id="xtick_8">
     <g id="line2d_8">
      <g>
       <use xlink:href="#mc43cf70b74" x="113.057851" y="315" style="stroke: #000000; stroke-width: 0.6"/>
      </g>
     </g>
    </g>
    <g id="xtick_9">
     <g id="line2d_9">
      <g>
       <use xlink:href="#mc43cf70b74" x="124.586777" y="315" style="stroke: #000000; stroke-width: 0.6"/>
      </g>
     </g>
    </g>
    <g id="xtick_10">
     <g id="line2d_10">
      <g>
       <use xlink:href="#mc43cf70b74" x="136.115702" y="315" style="stroke: #000000; stroke-width: 0.6"/>
      </g>
     </g>
    </g>
    <g id="xtick_11">
     <g id="line2d_11">
      <g>
       <use xlink:href="#mc43cf70b74" x="159.173554" y="315" style="stroke: #000000; stroke-width: 0.6"/>
      </g>
     </g>
    </g>
    <g id="xtick_12">
     <g id="line2d_12">
      <g>
       <use xlink:href="#mc43cf70b74" x="170.702479" y="315" style="stroke: #000000; stroke-width: 0.6"/>
      </g>
     </g>
    </g>
    <g id="xtick_13">
     <g id="line2d_13">
      <g>
       <use xlink:href="#mc43cf70b74" x="182.231405" y="315" style="stroke: #000000; stroke-width: 0.6"/>
      </g>
     </g>
    </g>
    <g id="xtick_14">
     <g id="line2d_14">
      <g>
       <use xlink:href="#mc43cf70b74" x="205.289256" y="315" style="stroke: #000000; stroke-width: 0.6"/>
      </g>
     </g>
    </g>
    <g id="xtick_15">
     <g id="line2d_15">
      <g>
       <use xlink:href="#mc43cf70b74" x="216.818182" y="315" style="stroke: #000000; stroke-width: 0.6"/>
      </g>
     </g>
    </g>
    <g id="xtick_16">
     <g id="line2d_16">
      <g>
       <use xlink:href="#mc43cf70b74" x="228.347107" y="315" style="stroke: #000000; stroke-width: 0.6"/>
      </g>
     </g>
    </g>
    <g id="xtick_17">
     <g id="line2d_17">
      <g>
       <use xlink:href="#mc43cf70b74" x="251.404959" y="315" style="stroke: #000000; stroke-width: 0.6"/>
      </g>
     </g>
    </g>
    <g id="xtick_18">
     <g id="line2d_18">
      <g>
       <use xlink:href="#mc43cf70b74" x="262.933884" y="315" style="stroke: #000000; stroke-width: 0.6"/>
      </g>
     </g>
    </g>
    <g id="xtick_19">
     <g id="line2d_19">
      <g>
       <use xlink:href="#mc43cf70b74" x="274.46281" y="315" style="stroke: #000000; stroke-width: 0.6"/>
      </g>
     </g>
    </g>
    <g id="xtick_20">
     <g id="line2d_20">
      <g>
       <use xlink:href="#mc43cf70b74" x="297.520661" y="315" style="stroke: #000000; stroke-width: 0.6"/>
      </g>
     </g>
    </g>
    <g id="xtick_21">
     <g id="line2d_21">
      <g>
       <use xlink:href="#mc43cf70b74" x="309.049587" y="315" style="stroke: #000000; stroke-width: 0.6"/>
      </g>
     </g>
    </g>
    <g id="xtick_22">
     <g id="line2d_22">
      <g>
       <use xlink:href="#mc43cf70b74" x="320.578512" y="315" style="stroke: #000000; stroke-width: 0.6"/>
      </g>
     </g>
    </g>
    <g id="xtick_23">
     <g id="line2d_23">
      <g>
       <use xlink:href="#mc43cf70b74" x="343.636364" y="315" style="stroke: #000000; stroke-width: 0.6"/>
      </g>
     </g>
    </g>
    <g id="text_7">
     <!-- Time (years) -->
     <g transform="translate(185.333807 339.776563) scale(0.1 -0.1)">
      <defs>
       <path id="DejaVuSans-54" d="M -19 4666 
L 3928 4666 
L 3928 4134 
L 2272 4134 
L 2272 0 
L 1638 0 
L 1638 4134 
L -19 4134 
L -19 4666 
z
" transform="scale(0.015625)"/>
       <path id="DejaVuSans-69" d="M 603 3500 
L 1178 3500 
L 1178 0 
L 603 0 
L 603 3500 
z
M 603 4863 
L 1178 4863 
L 1178 4134 
L 603 4134 
L 603 4863 
z
" transform="scale(0.015625)"/>
       <path id="DejaVuSans-6d" d="M 3328 2828 
Q 3544 3216 3844 3400 
Q 4144 3584 4550 3584 
Q 5097 3584 5394 3201 
Q 5691 2819 5691 2113 
L 5691 0 
L 5113 0 
L 5113 2094 
Q 5113 2597 4934 2840 
Q 4756 3084 4391 3084 
Q 3944 3084 3684 2787 
Q 3425 2491 3425 1978 
L 3425 0 
L 2847 0 
L 2847 2094 
Q 2847 2600 2669 2842 
Q 2491 3084 2119 3084 
Q 1678 3084 1418 2786 
Q 1159 2488 1159 1978 
L 1159 0 
L 581 0 
L 581 3500 
L 1159 3500 
L 1159 2956 
Q 1356 3278 1631 3431 
Q 1906 3584 2284 3584 
Q 2666 3584 2933 3390 
Q 3200 3197 3328 2828 
z
" transform="scale(0.015625)"/>
       <path id="DejaVuSans-65" d="M 3597 1894 
L 3597 1613 
L 953 1613 
Q 991 1019 1311 708 
Q 1631 397 2203 397 
Q 2534 397 2845 478 
Q 3156 559 3463 722 
L 3463 178 
Q 3153 47 2828 -22 
Q 2503 -91 2169 -91 
Q 1331 -91 842 396 
Q 353 884 353 1716 
Q 353 2575 817 3079 
Q 1281 3584 2069 3584 
Q 2775 3584 3186 3129 
Q 3597 2675 3597 1894 
z
M 3022 2063 
Q 3016 2534 2758 2815 
Q 2500 3097 2075 3097 
Q 1594 3097 1305 2825 
Q 1016 2553 972 2059 
L 3022 2063 
z
" transform="scale(0.015625)"/>
       <path id="DejaVuSans-20" transform="scale(0.015625)"/>
       <path id="DejaVuSans-28" d="M 1984 4856 
Q 1566 4138 1362 3434 
Q 1159 2731 1159 2009 
Q 1159 1288 1364 580 
Q 1569 -128 1984 -844 
L 1484 -844 
Q 1016 -109 783 600 
Q 550 1309 550 2009 
Q 550 2706 781 3412 
Q 1013 4119 1484 4856 
L 1984 4856 
z
" transform="scale(0.015625)"/>
       <path id="DejaVuSans-79" d="M 2059 -325 
Q 1816 -950 1584 -1140 
Q 1353 -1331 966 -1331 
L 506 -1331 
L 506 -850 
L 844 -850 
Q 1081 -850 1212 -737 
Q 1344 -625 1503 -206 
L 1606 56 
L 191 3500 
L 800 3500 
L 1894 763 
L 2988 3500 
L 3597 3500 
L 2059 -325 
z
" transform="scale(0.015625)"/>
       <path id="DejaVuSans-61" d="M 2194 1759 
Q 1497 1759 1228 1600 
Q 959 1441 959 1056 
Q 959 750 1161 570 
Q 1363 391 1709 391 
Q 2188 391 2477 730 
Q 2766 1069 2766 1631 
L 2766 1759 
L 2194 1759 
z
M 3341 1997 
L 3341 0 
L 2766 0 
L 2766 531 
Q 2569 213 2275 61 
Q 1981 -91 1556 -91 
Q 1019 -91 701 211 
Q 384 513 384 1019 
Q 384 1609 779 1909 
Q 1175 2209 1959 2209 
L 2766 2209 
L 2766 2266 
Q 2766 2663 2505 2880 
Q 2244 3097 1772 3097 
Q 1472 3097 1187 3025 
Q 903 2953 641 2809 
L 641 3341 
Q 956 3463 1253 3523 
Q 1550 3584 1831 3584 
Q 2591 3584 2966 3190 
Q 3341 2797 3341 1997 
z
" transform="scale(0.015625)"/>
       <path id="DejaVuSans-72" d="M 2631 2963 
Q 2534 3019 2420 3045 
Q 2306 3072 2169 3072 
Q 1681 3072 1420 2755 
Q 1159 2438 1159 1844 
L 1159 0 
L 581 0 
L 581 3500 
L 1159 3500 
L 1159 2956 
Q 1341 3275 1631 3429 
Q 1922 3584 2338 3584 
Q 2397 3584 2469 3576 
Q 2541 3569 2628 3553 
L 2631 2963 
z
" transform="scale(0.015625)"/>
       <path id="DejaVuSans-73" d="M 2834 3397 
L 2834 2853 
Q 2591 2978 2328 3040 
Q 2066 3103 1784 3103 
Q 1356 3103 1142 2972 
Q 928 2841 928 2578 
Q 928 2378 1081 2264 
Q 1234 2150 1697 2047 
L 1894 2003 
Q 2506 1872 2764 1633 
Q 3022 1394 3022 966 
Q 3022 478 2636 193 
Q 2250 -91 1575 -91 
Q 1294 -91 989 -36 
Q 684 19 347 128 
L 347 722 
Q 666 556 975 473 
Q 1284 391 1588 391 
Q 1994 391 2212 530 
Q 2431 669 2431 922 
Q 2431 1156 2273 1281 
Q 2116 1406 1581 1522 
L 1381 1569 
Q 847 1681 609 1914 
Q 372 2147 372 2553 
Q 372 3047 722 3315 
Q 1072 3584 1716 3584 
Q 2034 3584 2315 3537 
Q 2597 3491 2834 3397 
z
" transform="scale(0.015625)"/>
       <path id="DejaVuSans-29" d="M 513 4856 
L 1013 4856 
Q 1481 4119 1714 3412 
Q 1947 2706 1947 2009 
Q 1947 1309 1714 600 
Q 1481 -109 1013 -844 
L 513 -844 
Q 928 -128 1133 580 
Q 1338 1288 1338 2009 
Q 1338 2731 1133 3434 
Q 928 4138 513 4856 
z
" transform="scale(0.015625)"/>
      </defs>
      <use xlink:href="#DejaVuSans-54"/>
      <use xlink:href="#DejaVuSans-69" x="57.958984"/>
      <use xlink:href="#DejaVuSans-6d" x="85.742188"/>
      <use xlink:href="#DejaVuSans-65" x="183.154297"/>
      <use xlink:href="#DejaVuSans-20" x="244.677734"/>
      <use xlink:href="#DejaVuSans-28" x="276.464844"/>
      <use xlink:href="#DejaVuSans-79" x="315.478516"/>
      <use xlink:href="#DejaVuSans-65" x="374.658203"/>
      <use xlink:href="#DejaVuSans-61" x="436.181641"/>
      <use xlink:href="#DejaVuSans-72" x="497.460938"/>
      <use xlink:href="#DejaVuSans-73" x="538.574219"/>
      <use xlink:href="#DejaVuSans-29" x="590.673828"/>
     </g>
    </g>
   </g>
   <g id="matplotlib.axis_2">
    <g id="ytick_1">
     <g id="line2d_24">
      <defs>
       <path id="m0fa9fbb499" d="M 0 0 
L 3.5 0 
" style="stroke: #000000; stroke-width: 0.8"/>
      </defs>
      <g>
       <use xlink:href="#m0fa9fbb499" x="90" y="305.243073" style="stroke: #000000; stroke-width: 0.8"/>
      </g>
     </g>
     <g id="text_8">
      <!-- 0 -->
      <g transform="translate(80.1375 309.042291) scale(0.1 -0.1)">
       <use xlink:href="#DejaVuSans-30"/>
      </g>
     </g>
    </g>
    <g id="ytick_2">
     <g id="line2d_25">
      <g>
       <use xlink:href="#m0fa9fbb499" x="90" y="272.915842" style="stroke: #000000; stroke-width: 0.8"/>
      </g>
     </g>
     <g id="text_9">
      <!-- 5 -->
      <g transform="translate(80.1375 276.715061) scale(0.1 -0.1)">
       <defs>
        <path id="DejaVuSans-35" d="M 691 4666 
L 3169 4666 
L 3169 4134 
L 1269 4134 
L 1269 2991 
Q 1406 3038 1543 3061 
Q 1681 3084 1819 3084 
Q 2600 3084 3056 2656 
Q 3513 2228 3513 1497 
Q 3513 744 3044 326 
Q 2575 -91 1722 -91 
Q 1428 -91 1123 -41 
Q 819 9 494 109 
L 494 744 
Q 775 591 1075 516 
Q 1375 441 1709 441 
Q 2250 441 2565 725 
Q 2881 1009 2881 1497 
Q 2881 1984 2565 2268 
Q 2250 2553 1709 2553 
Q 1456 2553 1204 2497 
Q 953 2441 691 2322 
L 691 4666 
z
" transform="scale(0.015625)"/>
       </defs>
       <use xlink:href="#DejaVuSans-35"/>
      </g>
     </g>
    </g>
    <g id="ytick_3">
     <g id="line2d_26">
      <g>
       <use xlink:href="#m0fa9fbb499" x="90" y="240.588612" style="stroke: #000000; stroke-width: 0.8"/>
      </g>
     </g>
     <g id="text_10">
      <!-- 10 -->
      <g transform="translate(73.775 244.387831) scale(0.1 -0.1)">
       <use xlink:href="#DejaVuSans-31"/>
       <use xlink:href="#DejaVuSans-30" x="63.623047"/>
      </g>
     </g>
    </g>
    <g id="ytick_4">
     <g id="line2d_27">
      <g>
       <use xlink:href="#m0fa9fbb499" x="90" y="208.261382" style="stroke: #000000; stroke-width: 0.8"/>
      </g>
     </g>
     <g id="text_11">
      <!-- 15 -->
      <g transform="translate(73.775 212.060601) scale(0.1 -0.1)">
       <use xlink:href="#DejaVuSans-31"/>
       <use xlink:href="#DejaVuSans-35" x="63.623047"/>
      </g>
     </g>
    </g>
    <g id="ytick_5">
     <g id="line2d_28">
      <g>
       <use xlink:href="#m0fa9fbb499" x="90" y="175.934152" style="stroke: #000000; stroke-width: 0.8"/>
      </g>
     </g>
     <g id="text_12">
      <!-- 20 -->
      <g transform="translate(73.775 179.733371) scale(0.1 -0.1)">
       <use xlink:href="#DejaVuSans-32"/>
       <use xlink:href="#DejaVuSans-30" x="63.623047"/>
      </g>
     </g>
    </g>
    <g id="ytick_6">
     <g id="line2d_29">
      <g>
       <use xlink:href="#m0fa9fbb499" x="90" y="143.606922" style="stroke: #000000; stroke-width: 0.8"/>
      </g>
     </g>
     <g id="text_13">
      <!-- 25 -->
      <g transform="translate(73.775 147.406141) scale(0.1 -0.1)">
       <use xlink:href="#DejaVuSans-32"/>
       <use xlink:href="#DejaVuSans-35" x="63.623047"/>
      </g>
     </g>
    </g>
    <g id="ytick_7">
     <g id="line2d_30">
      <g>
       <use xlink:href="#m0fa9fbb499" x="90" y="111.279692" style="stroke: #000000; stroke-width: 0.8"/>
      </g>
     </g>
     <g id="text_14">
      <!-- 30 -->
      <g transform="translate(73.775 115.078911) scale(0.1 -0.1)">
       <defs>
        <path id="DejaVuSans-33" d="M 2597 2516 
Q 3050 2419 3304 2112 
Q 3559 1806 3559 1356 
Q 3559 666 3084 287 
Q 2609 -91 1734 -91 
Q 1441 -91 1130 -33 
Q 819 25 488 141 
L 488 750 
Q 750 597 1062 519 
Q 1375 441 1716 441 
Q 2309 441 2620 675 
Q 2931 909 2931 1356 
Q 2931 1769 2642 2001 
Q 2353 2234 1838 2234 
L 1294 2234 
L 1294 2753 
L 1863 2753 
Q 2328 2753 2575 2939 
Q 2822 3125 2822 3475 
Q 2822 3834 2567 4026 
Q 2313 4219 1838 4219 
Q 1578 4219 1281 4162 
Q 984 4106 628 3988 
L 628 4550 
Q 988 4650 1302 4700 
Q 1616 4750 1894 4750 
Q 2613 4750 3031 4423 
Q 3450 4097 3450 3541 
Q 3450 3153 3228 2886 
Q 3006 2619 2597 2516 
z
" transform="scale(0.015625)"/>
       </defs>
       <use xlink:href="#DejaVuSans-33"/>
       <use xlink:href="#DejaVuSans-30" x="63.623047"/>
      </g>
     </g>
    </g>
    <g id="ytick_8">
     <g id="line2d_31">
      <g>
       <use xlink:href="#m0fa9fbb499" x="90" y="78.952462" style="stroke: #000000; stroke-width: 0.8"/>
      </g>
     </g>
     <g id="text_15">
      <!-- 35 -->
      <g transform="translate(73.775 82.75168) scale(0.1 -0.1)">
       <use xlink:href="#DejaVuSans-33"/>
       <use xlink:href="#DejaVuSans-35" x="63.623047"/>
      </g>
     </g>
    </g>
    <g id="ytick_9">
     <g id="line2d_32">
      <g>
       <use xlink:href="#m0fa9fbb499" x="90" y="46.625232" style="stroke: #000000; stroke-width: 0.8"/>
      </g>
     </g>
     <g id="text_16">
      <!-- 40 -->
      <g transform="translate(73.775 50.42445) scale(0.1 -0.1)">
       <use xlink:href="#DejaVuSans-34"/>
       <use xlink:href="#DejaVuSans-30" x="63.623047"/>
      </g>
     </g>
    </g>
    <g id="ytick_10">
     <g id="line2d_33">
      <defs>
       <path id="mfcd4dfd66e" d="M 0 0 
L 2 0 
" style="stroke: #000000; stroke-width: 0.6"/>
      </defs>
      <g>
       <use xlink:href="#mfcd4dfd66e" x="90" y="311.708519" style="stroke: #000000; stroke-width: 0.6"/>
      </g>
     </g>
    </g>
    <g id="ytick_11">
     <g id="line2d_34">
      <g>
       <use xlink:href="#mfcd4dfd66e" x="90" y="298.777627" style="stroke: #000000; stroke-width: 0.6"/>
      </g>
     </g>
    </g>
    <g id="ytick_12">
     <g id="line2d_35">
      <g>
       <use xlink:href="#mfcd4dfd66e" x="90" y="292.312181" style="stroke: #000000; stroke-width: 0.6"/>
      </g>
     </g>
    </g>
    <g id="ytick_13">
     <g id="line2d_36">
      <g>
       <use xlink:href="#mfcd4dfd66e" x="90" y="285.846735" style="stroke: #000000; stroke-width: 0.6"/>
      </g>
     </g>
    </g>
    <g id="ytick_14">
     <g id="line2d_37">
      <g>
       <use xlink:href="#mfcd4dfd66e" x="90" y="279.381288" style="stroke: #000000; stroke-width: 0.6"/>
      </g>
     </g>
    </g>
    <g id="ytick_15">
     <g id="line2d_38">
      <g>
       <use xlink:href="#mfcd4dfd66e" x="90" y="266.450396" style="stroke: #000000; stroke-width: 0.6"/>
      </g>
     </g>
    </g>
    <g id="ytick_16">
     <g id="line2d_39">
      <g>
       <use xlink:href="#mfcd4dfd66e" x="90" y="259.98495" style="stroke: #000000; stroke-width: 0.6"/>
      </g>
     </g>
    </g>
    <g id="ytick_17">
     <g id="line2d_40">
      <g>
       <use xlink:href="#mfcd4dfd66e" x="90" y="253.519504" style="stroke: #000000; stroke-width: 0.6"/>
      </g>
     </g>
    </g>
    <g id="ytick_18">
     <g id="line2d_41">
      <g>
       <use xlink:href="#mfcd4dfd66e" x="90" y="247.054058" style="stroke: #000000; stroke-width: 0.6"/>
      </g>
     </g>
    </g>
    <g id="ytick_19">
     <g id="line2d_42">
      <g>
       <use xlink:href="#mfcd4dfd66e" x="90" y="234.123166" style="stroke: #000000; stroke-width: 0.6"/>
      </g>
     </g>
    </g>
    <g id="ytick_20">
     <g id="line2d_43">
      <g>
       <use xlink:href="#mfcd4dfd66e" x="90" y="227.65772" style="stroke: #000000; stroke-width: 0.6"/>
      </g>
     </g>
    </g>
    <g id="ytick_21">
     <g id="line2d_44">
      <g>
       <use xlink:href="#mfcd4dfd66e" x="90" y="221.192274" style="stroke: #000000; stroke-width: 0.6"/>
      </g>
     </g>
    </g>
    <g id="ytick_22">
     <g id="line2d_45">
      <g>
       <use xlink:href="#mfcd4dfd66e" x="90" y="214.726828" style="stroke: #000000; stroke-width: 0.6"/>
      </g>
     </g>
    </g>
    <g id="ytick_23">
     <g id="line2d_46">
      <g>
       <use xlink:href="#mfcd4dfd66e" x="90" y="201.795936" style="stroke: #000000; stroke-width: 0.6"/>
      </g>
     </g>
    </g>
    <g id="ytick_24">
     <g id="line2d_47">
      <g>
       <use xlink:href="#mfcd4dfd66e" x="90" y="195.33049" style="stroke: #000000; stroke-width: 0.6"/>
      </g>
     </g>
    </g>
    <g id="ytick_25">
     <g id="line2d_48">
      <g>
       <use xlink:href="#mfcd4dfd66e" x="90" y="188.865044" style="stroke: #000000; stroke-width: 0.6"/>
      </g>
     </g>
    </g>
    <g id="ytick_26">
     <g id="line2d_49">
      <g>
       <use xlink:href="#mfcd4dfd66e" x="90" y="182.399598" style="stroke: #000000; stroke-width: 0.6"/>
      </g>
     </g>
    </g>
    <g id="ytick_27">
     <g id="line2d_50">
      <g>
       <use xlink:href="#mfcd4dfd66e" x="90" y="169.468706" style="stroke: #000000; stroke-width: 0.6"/>
      </g>
     </g>
    </g>
    <g id="ytick_28">
     <g id="line2d_51">
      <g>
       <use xlink:href="#mfcd4dfd66e" x="90" y="163.00326" style="stroke: #000000; stroke-width: 0.6"/>
      </g>
     </g>
    </g>
    <g id="ytick_29">
     <g id="line2d_52">
      <g>
       <use xlink:href="#mfcd4dfd66e" x="90" y="156.537814" style="stroke: #000000; stroke-width: 0.6"/>
      </g>
     </g>
    </g>
    <g id="ytick_30">
     <g id="line2d_53">
      <g>
       <use xlink:href="#mfcd4dfd66e" x="90" y="150.072368" style="stroke: #000000; stroke-width: 0.6"/>
      </g>
     </g>
    </g>
    <g id="ytick_31">
     <g id="line2d_54">
      <g>
       <use xlink:href="#mfcd4dfd66e" x="90" y="137.141476" style="stroke: #000000; stroke-width: 0.6"/>
      </g>
     </g>
    </g>
    <g id="ytick_32">
     <g id="line2d_55">
      <g>
       <use xlink:href="#mfcd4dfd66e" x="90" y="130.67603" style="stroke: #000000; stroke-width: 0.6"/>
      </g>
     </g>
    </g>
    <g id="ytick_33">
     <g id="line2d_56">
      <g>
       <use xlink:href="#mfcd4dfd66e" x="90" y="124.210584" style="stroke: #000000; stroke-width: 0.6"/>
      </g>
     </g>
    </g>
    <g id="ytick_34">
     <g id="line2d_57">
      <g>
       <use xlink:href="#mfcd4dfd66e" x="90" y="117.745138" style="stroke: #000000; stroke-width: 0.6"/>
      </g>
     </g>
    </g>
    <g id="ytick_35">
     <g id="line2d_58">
      <g>
       <use xlink:href="#mfcd4dfd66e" x="90" y="104.814246" style="stroke: #000000; stroke-width: 0.6"/>
      </g>
     </g>
    </g>
    <g id="ytick_36">
     <g id="line2d_59">
      <g>
       <use xlink:href="#mfcd4dfd66e" x="90" y="98.3488" style="stroke: #000000; stroke-width: 0.6"/>
      </g>
     </g>
    </g>
    <g id="ytick_37">
     <g id="line2d_60">
      <g>
       <use xlink:href="#mfcd4dfd66e" x="90" y="91.883354" style="stroke: #000000; stroke-width: 0.6"/>
      </g>
     </g>
    </g>
    <g id="ytick_38">
     <g id="line2d_61">
      <g>
       <use xlink:href="#mfcd4dfd66e" x="90" y="85.417908" style="stroke: #000000; stroke-width: 0.6"/>
      </g>
     </g>
    </g>
    <g id="ytick_39">
     <g id="line2d_62">
      <g>
       <use xlink:href="#mfcd4dfd66e" x="90" y="72.487016" style="stroke: #000000; stroke-width: 0.6"/>
      </g>
     </g>
    </g>
    <g id="ytick_40">
     <g id="line2d_63">
      <g>
       <use xlink:href="#mfcd4dfd66e" x="90" y="66.02157" style="stroke: #000000; stroke-width: 0.6"/>
      </g>
     </g>
    </g>
    <g id="ytick_41">
     <g id="line2d_64">
      <g>
       <use xlink:href="#mfcd4dfd66e" x="90" y="59.556124" style="stroke: #000000; stroke-width: 0.6"/>
      </g>
     </g>
    </g>
    <g id="ytick_42">
     <g id="line2d_65">
      <g>
       <use xlink:href="#mfcd4dfd66e" x="90" y="53.090678" style="stroke: #000000; stroke-width: 0.6"/>
      </g>
     </g>
    </g>
    <g id="text_17">
     <!-- Population -->
     <g transform="translate(67.695312 205.366406) rotate(-90) scale(0.1 -0.1)">
      <defs>
       <path id="DejaVuSans-50" d="M 1259 4147 
L 1259 2394 
L 2053 2394 
Q 2494 2394 2734 2622 
Q 2975 2850 2975 3272 
Q 2975 3691 2734 3919 
Q 2494 4147 2053 4147 
L 1259 4147 
z
M 628 4666 
L 2053 4666 
Q 2838 4666 3239 4311 
Q 3641 3956 3641 3272 
Q 3641 2581 3239 2228 
Q 2838 1875 2053 1875 
L 1259 1875 
L 1259 0 
L 628 0 
L 628 4666 
z
" transform="scale(0.015625)"/>
       <path id="DejaVuSans-6f" d="M 1959 3097 
Q 1497 3097 1228 2736 
Q 959 2375 959 1747 
Q 959 1119 1226 758 
Q 1494 397 1959 397 
Q 2419 397 2687 759 
Q 2956 1122 2956 1747 
Q 2956 2369 2687 2733 
Q 2419 3097 1959 3097 
z
M 1959 3584 
Q 2709 3584 3137 3096 
Q 3566 2609 3566 1747 
Q 3566 888 3137 398 
Q 2709 -91 1959 -91 
Q 1206 -91 779 398 
Q 353 888 353 1747 
Q 353 2609 779 3096 
Q 1206 3584 1959 3584 
z
" transform="scale(0.015625)"/>
       <path id="DejaVuSans-70" d="M 1159 525 
L 1159 -1331 
L 581 -1331 
L 581 3500 
L 1159 3500 
L 1159 2969 
Q 1341 3281 1617 3432 
Q 1894 3584 2278 3584 
Q 2916 3584 3314 3078 
Q 3713 2572 3713 1747 
Q 3713 922 3314 415 
Q 2916 -91 2278 -91 
Q 1894 -91 1617 61 
Q 1341 213 1159 525 
z
M 3116 1747 
Q 3116 2381 2855 2742 
Q 2594 3103 2138 3103 
Q 1681 3103 1420 2742 
Q 1159 2381 1159 1747 
Q 1159 1113 1420 752 
Q 1681 391 2138 391 
Q 2594 391 2855 752 
Q 3116 1113 3116 1747 
z
" transform="scale(0.015625)"/>
       <path id="DejaVuSans-75" d="M 544 1381 
L 544 3500 
L 1119 3500 
L 1119 1403 
Q 1119 906 1312 657 
Q 1506 409 1894 409 
Q 2359 409 2629 706 
Q 2900 1003 2900 1516 
L 2900 3500 
L 3475 3500 
L 3475 0 
L 2900 0 
L 2900 538 
Q 2691 219 2414 64 
Q 2138 -91 1772 -91 
Q 1169 -91 856 284 
Q 544 659 544 1381 
z
M 1991 3584 
L 1991 3584 
z
" transform="scale(0.015625)"/>
       <path id="DejaVuSans-6c" d="M 603 4863 
L 1178 4863 
L 1178 0 
L 603 0 
L 603 4863 
z
" transform="scale(0.015625)"/>
       <path id="DejaVuSans-74" d="M 1172 4494 
L 1172 3500 
L 2356 3500 
L 2356 3053 
L 1172 3053 
L 1172 1153 
Q 1172 725 1289 603 
Q 1406 481 1766 481 
L 2356 481 
L 2356 0 
L 1766 0 
Q 1100 0 847 248 
Q 594 497 594 1153 
L 594 3053 
L 172 3053 
L 172 3500 
L 594 3500 
L 594 4494 
L 1172 4494 
z
" transform="scale(0.015625)"/>
       <path id="DejaVuSans-6e" d="M 3513 2113 
L 3513 0 
L 2938 0 
L 2938 2094 
Q 2938 2591 2744 2837 
Q 2550 3084 2163 3084 
Q 1697 3084 1428 2787 
Q 1159 2491 1159 1978 
L 1159 0 
L 581 0 
L 581 3500 
L 1159 3500 
L 1159 2956 
Q 1366 3272 1645 3428 
Q 1925 3584 2291 3584 
Q 2894 3584 3203 3211 
Q 3513 2838 3513 2113 
z
" transform="scale(0.015625)"/>
      </defs>
      <use xlink:href="#DejaVuSans-50"/>
      <use xlink:href="#DejaVuSans-6f" x="56.677734"/>
      <use xlink:href="#DejaVuSans-70" x="117.859375"/>
      <use xlink:href="#DejaVuSans-75" x="181.335938"/>
      <use xlink:href="#DejaVuSans-6c" x="244.714844"/>
      <use xlink:href="#DejaVuSans-61" x="272.498047"/>
      <use xlink:href="#DejaVuSans-74" x="333.777344"/>
      <use xlink:href="#DejaVuSans-69" x="372.986328"/>
      <use xlink:href="#DejaVuSans-6f" x="400.769531"/>
      <use xlink:href="#DejaVuSans-6e" x="461.951172"/>
     </g>
    </g>
   </g>
   <g id="line2d_66">
    <path d="M 101.528926 279.381288 
L 102.221354 279.215908 
L 102.913782 278.737773 
L 103.60621 277.97975 
L 104.298637 276.946138 
L 105.221875 275.10914 
L 106.145112 272.711351 
L 107.068349 269.714839 
L 108.222396 265.072514 
L 109.376443 259.372254 
L 110.530489 252.47993 
L 111.684536 244.152611 
L 112.838582 234.17001 
L 113.992629 222.302893 
L 115.146676 208.312985 
L 116.531532 188.433886 
L 117.916387 164.958315 
L 119.532053 133.156662 
L 122.070955 81.870746 
L 122.763383 71.057199 
L 123.225002 65.823307 
L 123.686621 62.702956 
L 123.91743 62.082655 
L 124.148239 62.169262 
L 124.379048 63.024011 
L 124.609858 64.694007 
L 125.071476 70.605439 
L 125.533095 80.001001 
L 126.225523 100.10562 
L 127.37957 143.853029 
L 128.764426 195.868152 
L 129.687663 223.411211 
L 130.380091 238.618008 
L 131.072519 250.016363 
L 131.764947 258.657029 
L 132.457375 265.199271 
L 133.149803 270.043608 
L 133.842231 273.499505 
L 134.534659 275.991265 
L 135.227087 277.749124 
L 135.919515 278.933555 
L 136.611943 279.637564 
L 137.30437 279.922486 
L 137.765989 279.915542 
L 138.458417 279.633655 
L 139.150845 279.047609 
L 139.843273 278.174166 
L 140.76651 276.576256 
L 141.689748 274.485392 
L 142.612985 271.862869 
L 143.536222 268.651779 
L 144.690269 263.714289 
L 145.844315 257.623993 
L 146.998362 250.232026 
L 148.152409 241.370635 
L 149.306455 230.777239 
L 150.460502 218.160628 
L 151.614548 203.287383 
L 152.999404 182.219951 
L 154.38426 157.501551 
L 155.999926 124.652494 
L 158.308019 77.476934 
L 159.000447 67.061335 
L 159.462065 62.217272 
L 159.923684 59.642807 
L 160.154493 59.381621 
L 160.385303 59.884159 
L 160.616112 61.203048 
L 161.077731 66.452024 
L 161.539349 75.299007 
L 162.231777 95.031143 
L 163.155015 129.835971 
L 165.001489 200.667099 
L 165.924726 226.413981 
L 166.847964 244.85141 
L 167.540392 254.810469 
L 168.23282 262.181472 
L 168.925248 267.628088 
L 169.617676 271.703891 
L 170.310103 274.671728 
L 171.002531 276.808086 
L 171.694959 278.308485 
L 172.387387 279.283525 
L 173.079815 279.781277 
L 173.541434 279.897753 
L 174.233862 279.786369 
L 174.92629 279.358786 
L 175.618718 278.637003 
L 176.311146 277.633741 
L 177.234383 275.874036 
L 178.15762 273.61789 
L 179.080858 270.802004 
L 180.004095 267.360392 
L 181.158142 262.075491 
L 182.312188 255.572219 
L 183.466235 247.711796 
L 184.620281 238.339519 
L 185.774328 227.16684 
L 186.928375 213.878788 
L 188.082421 198.247691 
L 189.467277 176.208801 
L 190.852133 150.545424 
L 192.929417 107.002899 
L 194.314273 79.155879 
L 195.006701 68.214357 
L 195.46832 62.916973 
L 195.929938 59.770083 
L 196.160748 59.16742 
L 196.391557 59.301832 
L 196.622366 60.232358 
L 196.853175 62.008226 
L 197.314794 68.221638 
L 197.776413 78.039575 
L 198.468841 98.938851 
L 199.622887 143.631486 
L 201.238553 206.230217 
L 201.930981 226.393281 
L 202.623409 241.131015 
L 203.315836 252.306257 
L 204.008264 260.726567 
L 204.700692 266.974738 
L 205.39312 271.489791 
L 206.085548 274.771849 
L 206.777976 277.148107 
L 207.470404 278.84032 
L 208.162832 279.970708 
L 208.85526 280.59994 
L 209.547688 280.838315 
L 210.240116 280.735104 
L 210.932544 280.32414 
L 211.624972 279.628261 
L 212.548209 278.280477 
L 213.471447 276.462085 
L 214.394684 274.127791 
L 215.317921 271.224416 
L 216.471968 266.711144 
L 217.626014 261.111828 
L 218.780061 254.311239 
L 219.934108 246.130624 
L 221.088154 236.298212 
L 222.242201 224.555687 
L 223.396247 210.656441 
L 224.550294 194.365573 
L 225.93515 171.417348 
L 227.320006 144.779514 
L 231.243764 64.991595 
L 231.705383 59.481029 
L 232.167002 56.183892 
L 232.397811 55.554545 
L 232.62862 55.691453 
L 232.85943 56.653598 
L 233.090239 58.494432 
L 233.551858 64.955055 
L 234.013476 75.180189 
L 234.705904 96.945708 
L 235.859951 143.674182 
L 237.244807 199.031349 
L 237.937235 220.302078 
L 238.860472 241.158987 
L 239.5529 252.504127 
L 240.245328 260.987246 
L 240.937756 267.218542 
L 241.630184 271.742753 
L 242.322612 275.038438 
L 243.01504 277.444922 
L 243.707468 279.180973 
L 244.399896 280.344808 
L 245.092324 280.982161 
L 245.784752 281.22982 
L 246.47718 281.138249 
L 247.169608 280.742042 
L 247.862036 280.064187 
L 248.785273 278.747116 
L 249.70851 276.961465 
L 250.631747 274.662008 
L 251.554985 271.799087 
L 252.709031 267.349869 
L 253.863078 261.836563 
L 255.017125 255.147441 
L 256.171171 247.074165 
L 257.325218 237.362564 
L 258.479264 225.763192 
L 259.633311 212.022689 
L 260.787358 195.883781 
L 262.172214 173.17049 
L 263.557069 146.469938 
L 267.480828 65.866049 
L 268.173256 58.242535 
L 268.634875 55.933391 
L 268.865684 55.826519 
L 269.096493 56.529306 
L 269.327303 58.097147 
L 269.788921 63.97539 
L 270.25054 73.605466 
L 270.942968 94.585756 
L 272.097014 140.640394 
L 273.71268 203.893818 
L 274.405108 224.42574 
L 275.097536 239.80193 
L 275.789964 251.446309 
L 276.482391 260.20658 
L 277.174819 266.699663 
L 277.867247 271.389294 
L 278.559675 274.796734 
L 279.252103 277.268632 
L 279.944531 279.038398 
L 280.636959 280.232705 
L 281.329387 280.913394 
L 282.021815 281.198076 
L 282.714243 281.138925 
L 283.406671 280.771834 
L 284.099099 280.121108 
L 284.791527 279.201132 
L 285.714764 277.570822 
L 286.638002 275.442772 
L 287.561239 272.767843 
L 288.484476 269.495175 
L 289.638523 264.483496 
L 290.792569 258.349072 
L 291.946616 250.943563 
L 293.100663 242.0137 
L 294.254709 231.310785 
L 295.408756 218.583469 
L 296.562802 203.577151 
L 297.947658 182.238913 
L 299.332514 157.157945 
L 300.94818 122.931856 
L 303.025463 78.468609 
L 303.948701 63.762466 
L 304.410319 58.888492 
L 304.871938 56.246255 
L 305.102747 55.928591 
L 305.333557 56.400185 
L 305.564366 57.721562 
L 306.025985 63.078288 
L 306.487603 72.175085 
L 307.180031 92.453537 
L 308.103269 128.3227 
L 309.949743 201.654892 
L 310.87298 228.506809 
L 311.565408 242.888984 
L 312.257836 253.76203 
L 312.950264 261.93046 
L 313.642692 267.958256 
L 314.33512 272.300765 
L 315.027548 275.456037 
L 315.719976 277.73774 
L 316.412404 279.355884 
L 317.104832 280.417837 
L 317.79726 280.995042 
L 318.489688 281.193185 
L 319.182116 281.05696 
L 319.874544 280.619269 
L 320.566972 279.901695 
L 321.490209 278.532971 
L 322.413447 276.693978 
L 323.336684 274.337251 
L 324.259921 271.411358 
L 325.413968 266.872729 
L 326.568014 261.254962 
L 327.722061 254.443523 
L 328.876108 246.227439 
L 330.030154 236.35867 
L 331.184201 224.585747 
L 332.107438 213.61516 
L 332.107438 213.61516 
" clip-path="url(#p45a1c34b41)" style="fill: none; stroke: #1f77b4; stroke-width: 1.5; stroke-linecap: square"/>
   </g>
   <g id="line2d_67">
    <path d="M 101.528926 292.312181 
L 102.913782 294.861083 
L 104.067828 296.568825 
L 105.452684 298.207293 
L 106.83754 299.487049 
L 108.222396 300.475588 
L 109.607252 301.212349 
L 111.222917 301.814267 
L 112.838582 302.199012 
L 114.685057 302.398185 
L 116.300722 302.345466 
L 117.685578 302.075827 
L 118.839625 301.648223 
L 119.762862 301.097348 
L 120.686099 300.258465 
L 121.378527 299.362907 
L 122.070955 298.164484 
L 122.763383 296.559568 
L 123.455811 294.430727 
L 124.148239 291.69267 
L 125.071476 287.033427 
L 127.610379 272.859574 
L 128.302807 270.702872 
L 128.764426 269.914065 
L 129.226044 269.646761 
L 129.456854 269.704428 
L 129.918472 270.185395 
L 130.380091 271.098741 
L 131.072519 272.973614 
L 132.457375 277.582917 
L 134.765468 285.315739 
L 136.150324 289.187796 
L 137.53518 292.372053 
L 138.920036 294.92724 
L 140.304892 296.943346 
L 141.689748 298.512625 
L 143.074604 299.723272 
L 144.459459 300.653911 
L 146.075125 301.458531 
L 147.69079 302.005082 
L 149.537265 302.365413 
L 151.383739 302.481509 
L 152.999404 302.345483 
L 154.38426 301.979482 
L 155.538307 301.402746 
L 156.461544 300.679428 
L 157.153972 299.910112 
L 157.8464 298.868611 
L 158.538828 297.46554 
L 159.231256 295.593599 
L 159.923684 293.133865 
L 160.846921 288.812359 
L 162.000968 281.986294 
L 163.385824 273.911895 
L 164.078252 271.128123 
L 164.53987 269.95665 
L 165.001489 269.370208 
L 165.232298 269.294108 
L 165.463108 269.353163 
L 165.924726 269.82252 
L 166.386345 270.676893 
L 167.078773 272.48461 
L 168.23282 276.285988 
L 170.771722 284.906093 
L 172.156578 288.835107 
L 173.541434 292.083374 
L 174.92629 294.696645 
L 176.311146 296.761179 
L 177.696002 298.367383 
L 179.080858 299.607213 
L 180.465714 300.566448 
L 182.081379 301.406369 
L 183.697044 301.98482 
L 185.312709 302.325182 
L 187.159184 302.485078 
L 188.774849 302.404958 
L 190.159705 302.106609 
L 191.313752 301.622232 
L 192.236989 301.000546 
L 193.160226 300.061111 
L 193.852654 299.057987 
L 194.545082 297.708593 
L 195.23751 295.914695 
L 195.929938 293.562459 
L 196.622366 290.538696 
L 197.545603 285.489129 
L 199.622887 273.384287 
L 200.315315 270.731456 
L 200.776934 269.588952 
L 201.238553 269.011545 
L 201.469362 268.949675 
L 201.700171 269.046069 
L 202.16179 269.691394 
L 202.854218 271.340253 
L 203.777455 274.265838 
L 207.470404 286.821362 
L 208.85526 290.477978 
L 210.240116 293.447845 
L 211.394163 295.451575 
L 212.548209 297.087639 
L 213.933065 298.644429 
L 215.317921 299.849953 
L 216.702777 300.779404 
L 218.318442 301.577884 
L 219.934108 302.112147 
L 221.780582 302.475744 
L 223.627057 302.598013 
L 225.242722 302.47574 
L 226.396769 302.20217 
L 227.550815 301.714906 
L 228.474053 301.104984 
L 229.39729 300.180701 
L 230.089718 299.183468 
L 230.782146 297.827815 
L 231.474574 296.007571 
L 232.167002 293.600491 
L 232.85943 290.500661 
L 233.782667 285.299699 
L 235.859951 272.749384 
L 236.552379 270.053606 
L 237.013997 268.980884 
L 237.475616 268.541871 
L 237.706425 268.564999 
L 238.168044 269.020514 
L 238.629663 269.889519 
L 239.322091 271.748147 
L 240.476137 275.667053 
L 243.245849 285.33278 
L 244.630705 289.257038 
L 246.015561 292.482348 
L 247.169608 294.668573 
L 248.323654 296.459385 
L 249.70851 298.167957 
L 251.093366 299.491935 
L 252.478222 300.514527 
L 253.863078 301.292277 
L 255.478743 301.935077 
L 257.325218 302.400718 
L 259.171692 302.624521 
L 260.787358 302.613892 
L 262.172214 302.410986 
L 263.32626 302.055011 
L 264.249497 301.586565 
L 265.172735 300.855087 
L 265.865163 300.053215 
L 266.557591 298.954206 
L 267.250019 297.471627 
L 267.942447 295.505768 
L 268.634875 292.9437 
L 269.558112 288.439455 
L 270.712158 281.346353 
L 271.866205 274.300563 
L 272.558633 271.172604 
L 273.020252 269.739269 
L 273.48187 268.87609 
L 273.943489 268.6012 
L 274.174298 268.684319 
L 274.635917 269.267242 
L 275.328345 270.859779 
L 276.251582 273.771319 
L 280.175341 287.181785 
L 281.560197 290.793082 
L 282.945052 293.713454 
L 284.099099 295.678533 
L 285.253146 297.279918 
L 286.638002 298.803378 
L 288.022858 299.982873 
L 289.407713 300.889716 
L 291.023379 301.661385 
L 292.639044 302.179422 
L 294.485519 302.530961 
L 296.331993 302.642005 
L 297.947658 302.511402 
L 299.332514 302.164894 
L 300.486561 301.625793 
L 301.409798 300.91592 
L 302.102226 300.13678 
L 302.794654 299.067729 
L 303.487082 297.623942 
L 304.17951 295.707442 
L 304.871938 293.207103 
L 305.795175 288.794789 
L 306.949222 281.77319 
L 308.334078 273.469589 
L 309.026506 270.619219 
L 309.488124 269.391166 
L 309.949743 268.738093 
L 310.180552 268.630899 
L 310.411362 268.669421 
L 310.87298 269.171825 
L 311.334599 270.110589 
L 312.027027 272.04588 
L 313.411883 276.850828 
L 315.719976 284.908376 
L 317.104832 288.90984 
L 318.489688 292.200499 
L 319.643735 294.435254 
L 320.797781 296.268092 
L 322.182637 298.018559 
L 323.567493 299.374553 
L 324.952349 300.422748 
L 326.337205 301.223024 
L 327.95287 301.888948 
L 329.799345 302.373399 
L 331.645819 302.612443 
L 332.107438 302.63463 
L 332.107438 302.63463 
" clip-path="url(#p45a1c34b41)" style="fill: none; stroke: #ff7f0e; stroke-width: 1.5; stroke-linecap: square"/>
   </g>
   <g id="patch_3">
    <path d="M 90 315 
L 90 43.2 
" style="fill: none; stroke: #000000; stroke-width: 0.8; stroke-linejoin: miter; stroke-linecap: square"/>
   </g>
   <g id="patch_4">
    <path d="M 343.636364 315 
L 343.636364 43.2 
" style="fill: none; stroke: #000000; stroke-width: 0.8; stroke-linejoin: miter; stroke-linecap: square"/>
   </g>
   <g id="patch_5">
    <path d="M 90 315 
L 343.636364 315 
" style="fill: none; stroke: #000000; stroke-width: 0.8; stroke-linejoin: miter; stroke-linecap: square"/>
   </g>
   <g id="patch_6">
    <path d="M 90 43.2 
L 343.636364 43.2 
" style="fill: none; stroke: #000000; stroke-width: 0.8; stroke-linejoin: miter; stroke-linecap: square"/>
   </g>
   <g id="text_18">
    <!-- (a) -->
    <g transform="translate(208.459432 37.2) scale(0.12 -0.12)">
     <use xlink:href="#DejaVuSans-28"/>
     <use xlink:href="#DejaVuSans-61" x="39.013672"/>
     <use xlink:href="#DejaVuSans-29" x="100.292969"/>
    </g>
   </g>
   <g id="legend_1">
    <g id="patch_7">
     <path d="M 262.116051 80.55625 
L 336.636364 80.55625 
Q 338.636364 80.55625 338.636364 78.55625 
L 338.636364 50.2 
Q 338.636364 48.2 336.636364 48.2 
L 262.116051 48.2 
Q 260.116051 48.2 260.116051 50.2 
L 260.116051 78.55625 
Q 260.116051 80.55625 262.116051 80.55625 
z
" style="fill: #ffffff; opacity: 0.8; stroke: #cccccc; stroke-linejoin: miter"/>
    </g>
    <g id="line2d_68">
     <path d="M 264.116051 56.298437 
L 274.116051 56.298437 
L 284.116051 56.298437 
" style="fill: none; stroke: #1f77b4; stroke-width: 1.5; stroke-linecap: square"/>
    </g>
    <g id="text_19">
     <!-- Prey -->
     <g transform="translate(292.116051 59.798437) scale(0.1 -0.1)">
      <use xlink:href="#DejaVuSans-50"/>
      <use xlink:href="#DejaVuSans-72" x="58.552734"/>
      <use xlink:href="#DejaVuSans-65" x="97.416016"/>
      <use xlink:href="#DejaVuSans-79" x="158.939453"/>
     </g>
    </g>
    <g id="line2d_69">
     <path d="M 264.116051 70.976562 
L 274.116051 70.976562 
L 284.116051 70.976562 
" style="fill: none; stroke: #ff7f0e; stroke-width: 1.5; stroke-linecap: square"/>
    </g>
    <g id="text_20">
     <!-- Predator -->
     <g transform="translate(292.116051 74.476562) scale(0.1 -0.1)">
      <defs>
       <path id="DejaVuSans-64" d="M 2906 2969 
L 2906 4863 
L 3481 4863 
L 3481 0 
L 2906 0 
L 2906 525 
Q 2725 213 2448 61 
Q 2172 -91 1784 -91 
Q 1150 -91 751 415 
Q 353 922 353 1747 
Q 353 2572 751 3078 
Q 1150 3584 1784 3584 
Q 2172 3584 2448 3432 
Q 2725 3281 2906 2969 
z
M 947 1747 
Q 947 1113 1208 752 
Q 1469 391 1925 391 
Q 2381 391 2643 752 
Q 2906 1113 2906 1747 
Q 2906 2381 2643 2742 
Q 2381 3103 1925 3103 
Q 1469 3103 1208 2742 
Q 947 2381 947 1747 
z
" transform="scale(0.015625)"/>
      </defs>
      <use xlink:href="#DejaVuSans-50"/>
      <use xlink:href="#DejaVuSans-72" x="58.552734"/>
      <use xlink:href="#DejaVuSans-65" x="97.416016"/>
      <use xlink:href="#DejaVuSans-64" x="158.939453"/>
      <use xlink:href="#DejaVuSans-61" x="222.416016"/>
      <use xlink:href="#DejaVuSans-74" x="283.695312"/>
      <use xlink:href="#DejaVuSans-6f" x="322.904297"/>
      <use xlink:href="#DejaVuSans-72" x="384.085938"/>
     </g>
    </g>
   </g>
  </g>
  <g id="axes_2">
   <g id="patch_8">
    <path d="M 394.363636 315 
L 648 315 
L 648 43.2 
L 394.363636 43.2 
z
" style="fill: #ffffff"/>
   </g>
   <g id="matplotlib.axis_3">
    <g id="xtick_24">
     <g id="line2d_70">
      <g>
       <use xlink:href="#mf59c0fae71" x="414.392315" y="315" style="stroke: #000000; stroke-width: 0.8"/>
      </g>
     </g>
     <g id="text_21">
      <!-- 5 -->
      <g transform="translate(411.211065 326.098437) scale(0.1 -0.1)">
       <use xlink:href="#DejaVuSans-35"/>
      </g>
     </g>
    </g>
    <g id="xtick_25">
     <g id="line2d_71">
      <g>
       <use xlink:href="#mf59c0fae71" x="447.421154" y="315" style="stroke: #000000; stroke-width: 0.8"/>
      </g>
     </g>
     <g id="text_22">
      <!-- 10 -->
      <g transform="translate(441.058654 326.098437) scale(0.1 -0.1)">
       <use xlink:href="#DejaVuSans-31"/>
       <use xlink:href="#DejaVuSans-30" x="63.623047"/>
      </g>
     </g>
    </g>
    <g id="xtick_26">
     <g id="line2d_72">
      <g>
       <use xlink:href="#mf59c0fae71" x="480.449992" y="315" style="stroke: #000000; stroke-width: 0.8"/>
      </g>
     </g>
     <g id="text_23">
      <!-- 15 -->
      <g transform="translate(474.087492 326.098437) scale(0.1 -0.1)">
       <use xlink:href="#DejaVuSans-31"/>
       <use xlink:href="#DejaVuSans-35" x="63.623047"/>
      </g>
     </g>
    </g>
    <g id="xtick_27">
     <g id="line2d_73">
      <g>
       <use xlink:href="#mf59c0fae71" x="513.478831" y="315" style="stroke: #000000; stroke-width: 0.8"/>
      </g>
     </g>
     <g id="text_24">
      <!-- 20 -->
      <g transform="translate(507.116331 326.098437) scale(0.1 -0.1)">
       <use xlink:href="#DejaVuSans-32"/>
       <use xlink:href="#DejaVuSans-30" x="63.623047"/>
      </g>
     </g>
    </g>
    <g id="xtick_28">
     <g id="line2d_74">
      <g>
       <use xlink:href="#mf59c0fae71" x="546.507669" y="315" style="stroke: #000000; stroke-width: 0.8"/>
      </g>
     </g>
     <g id="text_25">
      <!-- 25 -->
      <g transform="translate(540.145169 326.098437) scale(0.1 -0.1)">
       <use xlink:href="#DejaVuSans-32"/>
       <use xlink:href="#DejaVuSans-35" x="63.623047"/>
      </g>
     </g>
    </g>
    <g id="xtick_29">
     <g id="line2d_75">
      <g>
       <use xlink:href="#mf59c0fae71" x="579.536507" y="315" style="stroke: #000000; stroke-width: 0.8"/>
      </g>
     </g>
     <g id="text_26">
      <!-- 30 -->
      <g transform="translate(573.174007 326.098437) scale(0.1 -0.1)">
       <use xlink:href="#DejaVuSans-33"/>
       <use xlink:href="#DejaVuSans-30" x="63.623047"/>
      </g>
     </g>
    </g>
    <g id="xtick_30">
     <g id="line2d_76">
      <g>
       <use xlink:href="#mf59c0fae71" x="612.565346" y="315" style="stroke: #000000; stroke-width: 0.8"/>
      </g>
     </g>
     <g id="text_27">
      <!-- 35 -->
      <g transform="translate(606.202846 326.098437) scale(0.1 -0.1)">
       <use xlink:href="#DejaVuSans-33"/>
       <use xlink:href="#DejaVuSans-35" x="63.623047"/>
      </g>
     </g>
    </g>
    <g id="xtick_31">
     <g id="line2d_77">
      <g>
       <use xlink:href="#mf59c0fae71" x="645.594184" y="315" style="stroke: #000000; stroke-width: 0.8"/>
      </g>
     </g>
     <g id="text_28">
      <!-- 40 -->
      <g transform="translate(639.231684 326.098437) scale(0.1 -0.1)">
       <use xlink:href="#DejaVuSans-34"/>
       <use xlink:href="#DejaVuSans-30" x="63.623047"/>
      </g>
     </g>
    </g>
    <g id="xtick_32">
     <g id="line2d_78">
      <g>
       <use xlink:href="#mc43cf70b74" x="394.575012" y="315" style="stroke: #000000; stroke-width: 0.6"/>
      </g>
     </g>
    </g>
    <g id="xtick_33">
     <g id="line2d_79">
      <g>
       <use xlink:href="#mc43cf70b74" x="401.18078" y="315" style="stroke: #000000; stroke-width: 0.6"/>
      </g>
     </g>
    </g>
    <g id="xtick_34">
     <g id="line2d_80">
      <g>
       <use xlink:href="#mc43cf70b74" x="407.786548" y="315" style="stroke: #000000; stroke-width: 0.6"/>
      </g>
     </g>
    </g>
    <g id="xtick_35">
     <g id="line2d_81">
      <g>
       <use xlink:href="#mc43cf70b74" x="420.998083" y="315" style="stroke: #000000; stroke-width: 0.6"/>
      </g>
     </g>
    </g>
    <g id="xtick_36">
     <g id="line2d_82">
      <g>
       <use xlink:href="#mc43cf70b74" x="427.603851" y="315" style="stroke: #000000; stroke-width: 0.6"/>
      </g>
     </g>
    </g>
    <g id="xtick_37">
     <g id="line2d_83">
      <g>
       <use xlink:href="#mc43cf70b74" x="434.209618" y="315" style="stroke: #000000; stroke-width: 0.6"/>
      </g>
     </g>
    </g>
    <g id="xtick_38">
     <g id="line2d_84">
      <g>
       <use xlink:href="#mc43cf70b74" x="440.815386" y="315" style="stroke: #000000; stroke-width: 0.6"/>
      </g>
     </g>
    </g>
    <g id="xtick_39">
     <g id="line2d_85">
      <g>
       <use xlink:href="#mc43cf70b74" x="454.026921" y="315" style="stroke: #000000; stroke-width: 0.6"/>
      </g>
     </g>
    </g>
    <g id="xtick_40">
     <g id="line2d_86">
      <g>
       <use xlink:href="#mc43cf70b74" x="460.632689" y="315" style="stroke: #000000; stroke-width: 0.6"/>
      </g>
     </g>
    </g>
    <g id="xtick_41">
     <g id="line2d_87">
      <g>
       <use xlink:href="#mc43cf70b74" x="467.238457" y="315" style="stroke: #000000; stroke-width: 0.6"/>
      </g>
     </g>
    </g>
    <g id="xtick_42">
     <g id="line2d_88">
      <g>
       <use xlink:href="#mc43cf70b74" x="473.844224" y="315" style="stroke: #000000; stroke-width: 0.6"/>
      </g>
     </g>
    </g>
    <g id="xtick_43">
     <g id="line2d_89">
      <g>
       <use xlink:href="#mc43cf70b74" x="487.05576" y="315" style="stroke: #000000; stroke-width: 0.6"/>
      </g>
     </g>
    </g>
    <g id="xtick_44">
     <g id="line2d_90">
      <g>
       <use xlink:href="#mc43cf70b74" x="493.661527" y="315" style="stroke: #000000; stroke-width: 0.6"/>
      </g>
     </g>
    </g>
    <g id="xtick_45">
     <g id="line2d_91">
      <g>
       <use xlink:href="#mc43cf70b74" x="500.267295" y="315" style="stroke: #000000; stroke-width: 0.6"/>
      </g>
     </g>
    </g>
    <g id="xtick_46">
     <g id="line2d_92">
      <g>
       <use xlink:href="#mc43cf70b74" x="506.873063" y="315" style="stroke: #000000; stroke-width: 0.6"/>
      </g>
     </g>
    </g>
    <g id="xtick_47">
     <g id="line2d_93">
      <g>
       <use xlink:href="#mc43cf70b74" x="520.084598" y="315" style="stroke: #000000; stroke-width: 0.6"/>
      </g>
     </g>
    </g>
    <g id="xtick_48">
     <g id="line2d_94">
      <g>
       <use xlink:href="#mc43cf70b74" x="526.690366" y="315" style="stroke: #000000; stroke-width: 0.6"/>
      </g>
     </g>
    </g>
    <g id="xtick_49">
     <g id="line2d_95">
      <g>
       <use xlink:href="#mc43cf70b74" x="533.296134" y="315" style="stroke: #000000; stroke-width: 0.6"/>
      </g>
     </g>
    </g>
    <g id="xtick_50">
     <g id="line2d_96">
      <g>
       <use xlink:href="#mc43cf70b74" x="539.901901" y="315" style="stroke: #000000; stroke-width: 0.6"/>
      </g>
     </g>
    </g>
    <g id="xtick_51">
     <g id="line2d_97">
      <g>
       <use xlink:href="#mc43cf70b74" x="553.113437" y="315" style="stroke: #000000; stroke-width: 0.6"/>
      </g>
     </g>
    </g>
    <g id="xtick_52">
     <g id="line2d_98">
      <g>
       <use xlink:href="#mc43cf70b74" x="559.719204" y="315" style="stroke: #000000; stroke-width: 0.6"/>
      </g>
     </g>
    </g>
    <g id="xtick_53">
     <g id="line2d_99">
      <g>
       <use xlink:href="#mc43cf70b74" x="566.324972" y="315" style="stroke: #000000; stroke-width: 0.6"/>
      </g>
     </g>
    </g>
    <g id="xtick_54">
     <g id="line2d_100">
      <g>
       <use xlink:href="#mc43cf70b74" x="572.93074" y="315" style="stroke: #000000; stroke-width: 0.6"/>
      </g>
     </g>
    </g>
    <g id="xtick_55">
     <g id="line2d_101">
      <g>
       <use xlink:href="#mc43cf70b74" x="586.142275" y="315" style="stroke: #000000; stroke-width: 0.6"/>
      </g>
     </g>
    </g>
    <g id="xtick_56">
     <g id="line2d_102">
      <g>
       <use xlink:href="#mc43cf70b74" x="592.748043" y="315" style="stroke: #000000; stroke-width: 0.6"/>
      </g>
     </g>
    </g>
    <g id="xtick_57">
     <g id="line2d_103">
      <g>
       <use xlink:href="#mc43cf70b74" x="599.35381" y="315" style="stroke: #000000; stroke-width: 0.6"/>
      </g>
     </g>
    </g>
    <g id="xtick_58">
     <g id="line2d_104">
      <g>
       <use xlink:href="#mc43cf70b74" x="605.959578" y="315" style="stroke: #000000; stroke-width: 0.6"/>
      </g>
     </g>
    </g>
    <g id="xtick_59">
     <g id="line2d_105">
      <g>
       <use xlink:href="#mc43cf70b74" x="619.171113" y="315" style="stroke: #000000; stroke-width: 0.6"/>
      </g>
     </g>
    </g>
    <g id="xtick_60">
     <g id="line2d_106">
      <g>
       <use xlink:href="#mc43cf70b74" x="625.776881" y="315" style="stroke: #000000; stroke-width: 0.6"/>
      </g>
     </g>
    </g>
    <g id="xtick_61">
     <g id="line2d_107">
      <g>
       <use xlink:href="#mc43cf70b74" x="632.382649" y="315" style="stroke: #000000; stroke-width: 0.6"/>
      </g>
     </g>
    </g>
    <g id="xtick_62">
     <g id="line2d_108">
      <g>
       <use xlink:href="#mc43cf70b74" x="638.988416" y="315" style="stroke: #000000; stroke-width: 0.6"/>
      </g>
     </g>
    </g>
    <g id="text_29">
     <!-- Prey -->
     <g transform="translate(510.275568 339.776563) scale(0.1 -0.1)">
      <use xlink:href="#DejaVuSans-50"/>
      <use xlink:href="#DejaVuSans-72" x="58.552734"/>
      <use xlink:href="#DejaVuSans-65" x="97.416016"/>
      <use xlink:href="#DejaVuSans-79" x="158.939453"/>
     </g>
    </g>
   </g>
   <g id="matplotlib.axis_4">
    <g id="ytick_43">
     <g id="line2d_109">
      <g>
       <use xlink:href="#m0fa9fbb499" x="394.363636" y="274.621856" style="stroke: #000000; stroke-width: 0.8"/>
      </g>
     </g>
     <g id="text_30">
      <!-- 1 -->
      <g transform="translate(384.501136 278.421075) scale(0.1 -0.1)">
       <use xlink:href="#DejaVuSans-31"/>
      </g>
     </g>
    </g>
    <g id="ytick_44">
     <g id="line2d_110">
      <g>
       <use xlink:href="#m0fa9fbb499" x="394.363636" y="227.777719" style="stroke: #000000; stroke-width: 0.8"/>
      </g>
     </g>
     <g id="text_31">
      <!-- 2 -->
      <g transform="translate(384.501136 231.576937) scale(0.1 -0.1)">
       <use xlink:href="#DejaVuSans-32"/>
      </g>
     </g>
    </g>
    <g id="ytick_45">
     <g id="line2d_111">
      <g>
       <use xlink:href="#m0fa9fbb499" x="394.363636" y="180.933581" style="stroke: #000000; stroke-width: 0.8"/>
      </g>
     </g>
     <g id="text_32">
      <!-- 3 -->
      <g transform="translate(384.501136 184.7328) scale(0.1 -0.1)">
       <use xlink:href="#DejaVuSans-33"/>
      </g>
     </g>
    </g>
    <g id="ytick_46">
     <g id="line2d_112">
      <g>
       <use xlink:href="#m0fa9fbb499" x="394.363636" y="134.089444" style="stroke: #000000; stroke-width: 0.8"/>
      </g>
     </g>
     <g id="text_33">
      <!-- 4 -->
      <g transform="translate(384.501136 137.888663) scale(0.1 -0.1)">
       <use xlink:href="#DejaVuSans-34"/>
      </g>
     </g>
    </g>
    <g id="ytick_47">
     <g id="line2d_113">
      <g>
       <use xlink:href="#m0fa9fbb499" x="394.363636" y="87.245307" style="stroke: #000000; stroke-width: 0.8"/>
      </g>
     </g>
     <g id="text_34">
      <!-- 5 -->
      <g transform="translate(384.501136 91.044526) scale(0.1 -0.1)">
       <use xlink:href="#DejaVuSans-35"/>
      </g>
     </g>
    </g>
    <g id="ytick_48">
     <g id="line2d_114">
      <g>
       <use xlink:href="#mfcd4dfd66e" x="394.363636" y="312.097166" style="stroke: #000000; stroke-width: 0.6"/>
      </g>
     </g>
    </g>
    <g id="ytick_49">
     <g id="line2d_115">
      <g>
       <use xlink:href="#mfcd4dfd66e" x="394.363636" y="302.728338" style="stroke: #000000; stroke-width: 0.6"/>
      </g>
     </g>
    </g>
    <g id="ytick_50">
     <g id="line2d_116">
      <g>
       <use xlink:href="#mfcd4dfd66e" x="394.363636" y="293.359511" style="stroke: #000000; stroke-width: 0.6"/>
      </g>
     </g>
    </g>
    <g id="ytick_51">
     <g id="line2d_117">
      <g>
       <use xlink:href="#mfcd4dfd66e" x="394.363636" y="283.990683" style="stroke: #000000; stroke-width: 0.6"/>
      </g>
     </g>
    </g>
    <g id="ytick_52">
     <g id="line2d_118">
      <g>
       <use xlink:href="#mfcd4dfd66e" x="394.363636" y="265.253028" style="stroke: #000000; stroke-width: 0.6"/>
      </g>
     </g>
    </g>
    <g id="ytick_53">
     <g id="line2d_119">
      <g>
       <use xlink:href="#mfcd4dfd66e" x="394.363636" y="255.884201" style="stroke: #000000; stroke-width: 0.6"/>
      </g>
     </g>
    </g>
    <g id="ytick_54">
     <g id="line2d_120">
      <g>
       <use xlink:href="#mfcd4dfd66e" x="394.363636" y="246.515374" style="stroke: #000000; stroke-width: 0.6"/>
      </g>
     </g>
    </g>
    <g id="ytick_55">
     <g id="line2d_121">
      <g>
       <use xlink:href="#mfcd4dfd66e" x="394.363636" y="237.146546" style="stroke: #000000; stroke-width: 0.6"/>
      </g>
     </g>
    </g>
    <g id="ytick_56">
     <g id="line2d_122">
      <g>
       <use xlink:href="#mfcd4dfd66e" x="394.363636" y="218.408891" style="stroke: #000000; stroke-width: 0.6"/>
      </g>
     </g>
    </g>
    <g id="ytick_57">
     <g id="line2d_123">
      <g>
       <use xlink:href="#mfcd4dfd66e" x="394.363636" y="209.040064" style="stroke: #000000; stroke-width: 0.6"/>
      </g>
     </g>
    </g>
    <g id="ytick_58">
     <g id="line2d_124">
      <g>
       <use xlink:href="#mfcd4dfd66e" x="394.363636" y="199.671236" style="stroke: #000000; stroke-width: 0.6"/>
      </g>
     </g>
    </g>
    <g id="ytick_59">
     <g id="line2d_125">
      <g>
       <use xlink:href="#mfcd4dfd66e" x="394.363636" y="190.302409" style="stroke: #000000; stroke-width: 0.6"/>
      </g>
     </g>
    </g>
    <g id="ytick_60">
     <g id="line2d_126">
      <g>
       <use xlink:href="#mfcd4dfd66e" x="394.363636" y="171.564754" style="stroke: #000000; stroke-width: 0.6"/>
      </g>
     </g>
    </g>
    <g id="ytick_61">
     <g id="line2d_127">
      <g>
       <use xlink:href="#mfcd4dfd66e" x="394.363636" y="162.195927" style="stroke: #000000; stroke-width: 0.6"/>
      </g>
     </g>
    </g>
    <g id="ytick_62">
     <g id="line2d_128">
      <g>
       <use xlink:href="#mfcd4dfd66e" x="394.363636" y="152.827099" style="stroke: #000000; stroke-width: 0.6"/>
      </g>
     </g>
    </g>
    <g id="ytick_63">
     <g id="line2d_129">
      <g>
       <use xlink:href="#mfcd4dfd66e" x="394.363636" y="143.458272" style="stroke: #000000; stroke-width: 0.6"/>
      </g>
     </g>
    </g>
    <g id="ytick_64">
     <g id="line2d_130">
      <g>
       <use xlink:href="#mfcd4dfd66e" x="394.363636" y="124.720617" style="stroke: #000000; stroke-width: 0.6"/>
      </g>
     </g>
    </g>
    <g id="ytick_65">
     <g id="line2d_131">
      <g>
       <use xlink:href="#mfcd4dfd66e" x="394.363636" y="115.351789" style="stroke: #000000; stroke-width: 0.6"/>
      </g>
     </g>
    </g>
    <g id="ytick_66">
     <g id="line2d_132">
      <g>
       <use xlink:href="#mfcd4dfd66e" x="394.363636" y="105.982962" style="stroke: #000000; stroke-width: 0.6"/>
      </g>
     </g>
    </g>
    <g id="ytick_67">
     <g id="line2d_133">
      <g>
       <use xlink:href="#mfcd4dfd66e" x="394.363636" y="96.614134" style="stroke: #000000; stroke-width: 0.6"/>
      </g>
     </g>
    </g>
    <g id="ytick_68">
     <g id="line2d_134">
      <g>
       <use xlink:href="#mfcd4dfd66e" x="394.363636" y="77.87648" style="stroke: #000000; stroke-width: 0.6"/>
      </g>
     </g>
    </g>
    <g id="ytick_69">
     <g id="line2d_135">
      <g>
       <use xlink:href="#mfcd4dfd66e" x="394.363636" y="68.507652" style="stroke: #000000; stroke-width: 0.6"/>
      </g>
     </g>
    </g>
    <g id="ytick_70">
     <g id="line2d_136">
      <g>
       <use xlink:href="#mfcd4dfd66e" x="394.363636" y="59.138825" style="stroke: #000000; stroke-width: 0.6"/>
      </g>
     </g>
    </g>
    <g id="ytick_71">
     <g id="line2d_137">
      <g>
       <use xlink:href="#mfcd4dfd66e" x="394.363636" y="49.769997" style="stroke: #000000; stroke-width: 0.6"/>
      </g>
     </g>
    </g>
    <g id="text_35">
     <!-- Predator -->
     <g transform="translate(378.421449 200.360156) rotate(-90) scale(0.1 -0.1)">
      <use xlink:href="#DejaVuSans-50"/>
      <use xlink:href="#DejaVuSans-72" x="58.552734"/>
      <use xlink:href="#DejaVuSans-65" x="97.416016"/>
      <use xlink:href="#DejaVuSans-64" x="158.939453"/>
      <use xlink:href="#DejaVuSans-61" x="222.416016"/>
      <use xlink:href="#DejaVuSans-74" x="283.695312"/>
      <use xlink:href="#DejaVuSans-6f" x="322.904297"/>
      <use xlink:href="#DejaVuSans-72" x="384.085938"/>
     </g>
    </g>
   </g>
   <g id="line2d_138">
    <path d="M 407.786548 227.777719 
L 407.862428 234.406463 
L 408.084012 240.554027 
L 408.44403 246.245296 
L 408.929961 251.499093 
L 409.538338 256.341424 
L 410.274549 260.804375 
L 411.14386 264.917494 
L 412.151416 268.707787 
L 413.302243 272.199718 
L 414.601245 275.415211 
L 416.053207 278.37365 
L 417.662791 281.091876 
L 419.434542 283.58419 
L 421.37288 285.862354 
L 423.48211 287.935585 
L 425.766411 289.810563 
L 428.229845 291.491425 
L 430.88473 292.993336 
L 433.753129 294.342851 
L 436.849 295.550021 
L 440.186446 296.623245 
L 443.779805 297.569426 
L 447.643654 298.393968 
L 451.792804 299.100778 
L 456.242305 299.692263 
L 461.007441 300.169334 
L 468.780979 300.66872 
L 477.353058 300.900699 
L 486.778256 300.849386 
L 493.556546 300.642022 
L 500.70781 300.257173 
L 512.208257 299.351053 
L 520.422306 298.518325 
L 529.068867 297.474872 
L 538.117581 296.179481 
L 547.515029 294.575495 
L 557.184734 292.590811 
L 562.09148 291.428951 
L 567.027163 290.137878 
L 571.975739 288.704235 
L 576.919723 287.1137 
L 581.840186 285.350984 
L 586.716762 283.399834 
L 591.52764 281.243032 
L 596.249571 278.862394 
L 600.857862 276.238769 
L 605.320134 273.354079 
L 609.583724 270.179453 
L 613.594017 266.676951 
L 617.295551 262.811571 
L 620.631961 258.551339 
L 623.545982 253.867312 
L 625.979446 248.733573 
L 627.873283 243.127234 
L 629.167519 237.028437 
L 629.801283 230.420352 
L 629.712796 223.289177 
L 628.839497 215.62408 
L 627.133256 207.419162 
L 624.558973 198.704207 
L 621.093527 189.531535 
L 616.733273 179.967072 
L 611.494049 170.090353 
L 605.411169 159.994521 
L 598.539426 149.786326 
L 590.953094 139.586127 
L 582.745922 129.52789 
L 574.031142 119.759191 
L 564.941461 110.441211 
L 555.630335 101.751209 
L 546.25622 93.863606 
L 536.911762 86.837628 
L 527.672946 80.705021 
L 518.61057 75.49048 
L 509.790239 71.211655 
L 501.272372 67.879146 
L 493.112197 65.496508 
L 485.359753 64.060244 
L 478.059891 63.559813 
L 471.25227 63.977626 
L 464.971362 65.289043 
L 459.246448 67.462379 
L 454.097057 70.452775 
L 449.434527 74.079852 
L 445.187096 78.210712 
L 441.316763 82.763626 
L 437.78879 87.663881 
L 434.5717 92.84378 
L 431.637283 98.242643 
L 428.960593 103.806804 
L 426.519945 109.489618 
L 424.29692 115.251451 
L 422.276362 121.05969 
L 420.446378 126.888737 
L 418.798342 132.720008 
L 417.326887 138.541938 
L 416.021957 144.338107 
L 413.795986 155.689184 
L 412.005362 166.630182 
L 410.577676 177.086354 
L 409.454136 187.005764 
L 408.589565 196.359284 
L 407.952404 205.140594 
L 407.52471 213.366184 
L 407.28899 221.055494 
L 407.217927 228.21151 
L 407.300768 234.858463 
L 407.528704 241.021172 
L 407.894582 246.724625 
L 408.392914 251.993984 
L 409.019869 256.854585 
L 409.773279 261.331934 
L 410.652459 265.451397 
L 411.656086 269.233127 
L 412.788701 272.701836 
L 414.057025 275.882925 
L 415.468142 278.799696 
L 417.029502 281.473349 
L 418.748923 283.922986 
L 420.634584 286.165606 
L 422.695033 288.216111 
L 424.93918 290.087302 
L 427.376305 291.789879 
L 430.016049 293.332442 
L 432.868421 294.721493 
L 435.943793 295.961432 
L 439.252905 297.054558 
L 442.806647 298.005759 
L 446.622158 298.829885 
L 450.721216 299.536005 
L 455.124135 300.13034 
L 462.33887 300.81934 
L 470.3359 301.265131 
L 479.164116 301.45519 
L 488.864537 301.363585 
L 499.470311 300.950974 
L 507.056609 300.472066 
L 515.06223 299.808379 
L 523.491167 298.938324 
L 532.31148 297.820276 
L 541.484434 296.40375 
L 551.014765 294.656342 
L 560.859736 292.520736 
L 565.873471 291.282439 
L 570.927658 289.913982 
L 576.003187 288.400993 
L 581.077889 286.727496 
L 586.126534 284.875911 
L 591.120835 282.82706 
L 596.029442 280.560159 
L 600.817949 278.052824 
L 605.448889 275.281069 
L 609.881733 272.219304 
L 614.072897 268.84034 
L 617.975735 265.115384 
L 621.54054 261.01404 
L 624.714549 256.504311 
L 627.441937 251.552599 
L 629.663745 246.123768 
L 631.306537 240.190749 
L 632.294084 233.731073 
L 632.560939 226.726709 
L 632.047494 219.169827 
L 630.699981 211.062793 
L 628.47357 202.42044 
L 625.337085 193.27502 
L 621.276369 183.677509 
L 616.298092 173.699317 
L 610.429757 163.432298 
L 603.692116 152.963506 
L 596.137703 142.408235 
L 587.911963 131.958083 
L 579.155564 121.78907 
L 570.001981 112.059413 
L 560.577495 102.909524 
L 551.001194 94.46201 
L 541.384974 86.821675 
L 531.833535 80.075518 
L 522.444387 74.292735 
L 513.307844 69.524716 
L 504.507028 65.80505 
L 496.117867 63.149518 
L 488.209097 61.5561 
L 480.841724 61.004732 
L 474.022304 61.432601 
L 467.717587 62.740139 
L 461.903422 64.833238 
L 456.555558 67.622538 
L 451.649649 71.023435 
L 447.161256 74.956071 
L 443.065839 79.345343 
L 439.338766 84.120895 
L 435.955307 89.217125 
L 432.890636 94.57318 
L 430.119832 100.132959 
L 427.617877 105.845113 
L 425.359657 111.66304 
L 423.319963 117.544894 
L 421.473488 123.453576 
L 419.794831 129.356739 
L 418.261948 135.227577 
L 416.877125 141.049442 
L 414.509528 152.480927 
L 412.598321 163.533875 
L 411.062896 174.118348 
L 409.839779 184.172656 
L 408.882635 193.663358 
L 408.162265 202.585259 
L 407.666611 210.961414 
L 407.377878 218.809833 
L 407.258874 226.119944 
L 407.297463 232.914637 
L 407.483706 239.217809 
L 407.809539 245.053896 
L 408.26877 250.447871 
L 408.85708 255.425247 
L 409.572023 260.012078 
L 410.411172 264.232109 
L 411.369919 268.10161 
L 412.455143 271.649518 
L 413.675031 274.903976 
L 415.037868 277.890596 
L 416.552031 280.632463 
L 418.225998 283.150128 
L 420.068338 285.461616 
L 422.087719 287.582418 
L 424.292904 289.525498 
L 426.692752 291.301288 
L 429.296218 292.917693 
L 432.112353 294.380083 
L 435.150302 295.691303 
L 438.419309 296.851665 
L 441.928711 297.858953 
L 445.688706 298.71588 
L 449.71906 299.445854 
L 454.044447 300.059561 
L 461.134223 300.775565 
L 469.00381 301.252649 
L 477.707387 301.483475 
L 487.287329 301.444654 
L 497.774204 301.096757 
L 505.279058 300.66638 
L 513.198221 300.053909 
L 521.532006 299.235775 
L 530.278394 298.185239 
L 539.418578 296.868863 
L 548.889836 295.231893 
L 558.669748 293.212305 
L 563.656901 292.034116 
L 568.692321 290.727587 
L 573.759462 289.278916 
L 578.838457 287.672904 
L 583.90612 285.892959 
L 588.935947 283.921093 
L 593.898113 281.737921 
L 598.759475 279.322665 
L 603.48357 276.653151 
L 608.030617 273.705808 
L 612.357513 270.45567 
L 616.41784 266.876379 
L 620.161856 262.940176 
L 623.536503 258.617912 
L 626.485402 253.879039 
L 628.948857 248.691615 
L 630.86385 243.022303 
L 632.164046 236.836369 
L 632.779788 230.097685 
L 632.64246 222.790959 
L 631.691737 214.928277 
L 629.877328 206.517926 
L 627.163491 197.585417 
L 623.529063 188.1736 
L 618.968208 178.342619 
L 613.498045 168.175223 
L 607.159271 157.776857 
L 600.013882 147.268416 
L 592.145186 136.785926 
L 583.663736 126.489062 
L 574.757594 116.628312 
L 565.536513 107.319913 
L 556.083395 98.634486 
L 546.482572 90.639333 
L 536.819805 83.398437 
L 527.182287 76.972464 
L 517.658638 71.418761 
L 508.338912 66.791358 
L 499.314591 63.140967 
L 490.678586 60.51498 
L 482.52524 58.957474 
L 474.950326 58.509206 
L 468.051046 59.207614 
L 461.924571 61.08492 
L 456.440568 63.883191 
L 451.434392 67.334667 
L 446.866979 71.345623 
L 442.702099 75.82968 
L 438.906358 80.707805 
L 435.449198 85.90831 
L 432.302894 91.366853 
L 429.442559 97.026437 
L 426.846139 102.837411 
L 424.494415 108.757469 
L 422.371006 114.751652 
L 420.462362 120.792344 
L 418.756909 126.857797 
L 417.226546 132.901515 
L 415.849317 138.891805 
L 413.496844 150.639239 
L 411.597203 161.975168 
L 410.068197 172.807935 
L 408.847716 183.079162 
L 407.89374 192.763745 
L 407.184335 201.869858 
L 406.707776 210.424863 
L 406.418891 218.4107 
L 406.29621 229.35926 
L 406.509757 239.142864 
L 406.823233 245.059925 
L 407.265855 250.523596 
L 407.833481 255.561563 
L 408.522944 260.200984 
L 409.329205 264.462978 
L 410.257312 268.376855 
L 411.313839 271.971187 
L 412.505468 275.272149 
L 413.838991 278.303518 
L 415.321308 281.086669 
L 416.95943 283.640582 
L 418.760477 285.981835 
L 420.731676 288.12461 
L 422.880366 290.080688 
L 425.213993 291.859453 
L 427.740115 293.467888 
L 430.466396 294.910581 
L 433.400701 296.189936 
L 436.558837 297.322636 
L 439.960874 298.325805 
L 443.624395 299.207739 
L 447.566671 299.97487 
L 451.80467 300.631769 
L 458.752514 301.415846 
L 466.458093 301.958844 
L 474.974797 302.252622 
L 484.354465 302.27961 
L 494.647386 302.012816 
L 505.902301 301.415818 
L 513.937135 300.796913 
L 522.352613 299.945681 
L 531.199984 298.862624 
L 540.49762 297.529306 
L 550.222197 295.903345 
L 560.308691 293.918422 
L 565.455936 292.764079 
L 570.650381 291.484276 
L 575.872172 290.063991 
L 581.098846 288.486703 
L 586.305336 286.734398 
L 591.463968 284.787562 
L 596.544461 282.625187 
L 601.51393 280.224767 
L 606.336881 277.562302 
L 610.975216 274.612295 
L 615.388231 271.34775 
L 619.532613 267.740178 
L 623.362447 263.759592 
L 626.82921 259.37451 
L 629.88177 254.551952 
L 632.459373 249.257565 
L 634.467425 243.455157 
L 635.828069 237.111921 
L 636.471074 230.204532 
L 636.331195 222.719407 
L 635.348168 214.652702 
L 633.467383 206.01069 
L 630.648686 196.816891 
L 626.866542 187.115064 
L 622.116992 176.970141 
L 616.419489 166.468854 
L 609.816905 155.719745 
L 602.375325 144.853294 
L 594.181586 134.030545 
L 585.362494 123.422142 
L 576.051927 113.183783 
L 566.379016 103.457387 
L 556.468145 94.371094 
L 546.438949 86.039267 
L 536.406316 78.562489 
L 526.480386 72.027568 
L 516.766553 66.50753 
L 507.365462 62.061626 
L 498.37301 58.735328 
L 489.880348 56.56033 
L 481.973878 55.554545 
L 474.735254 55.722113 
L 468.147973 56.947234 
L 462.099218 59.022462 
L 456.553537 61.844935 
L 451.477304 65.318669 
L 446.8384 69.354173 
L 442.606209 73.868451 
L 438.751621 78.784998 
L 435.247033 84.033803 
L 432.066345 89.55135 
L 429.184964 95.280615 
L 426.579802 101.171067 
L 424.229275 107.17867 
L 422.113307 113.265878 
L 420.213266 119.401432 
L 418.506531 125.542222 
L 416.971532 131.652503 
L 415.590865 137.709467 
L 413.230526 149.584363 
L 411.316709 161.033049 
L 409.76494 171.960555 
L 408.515073 182.310799 
L 407.531293 192.066587 
L 406.802116 201.249615 
L 406.320114 209.892353 
L 406.025406 217.957549 
L 405.892562 229.010632 
L 406.093211 238.882555 
L 406.396261 244.850505 
L 406.82696 250.359614 
L 407.381279 255.438561 
L 408.054613 260.113572 
L 408.844085 264.408585 
L 409.75552 268.354036 
L 410.795061 271.978215 
L 411.96895 275.307028 
L 413.283528 278.363997 
L 414.745238 281.170256 
L 416.360623 283.744556 
L 418.136325 286.103263 
L 420.079089 288.260358 
L 422.195759 290.227436 
L 424.493277 292.013707 
L 426.978689 293.625997 
L 429.65914 295.068747 
L 432.54635 296.352289 
L 435.661026 297.498549 
L 439.019319 298.516983 
L 442.63731 299.41509 
L 446.531181 300.198758 
L 450.717219 300.872264 
L 457.579962 301.681356 
L 465.192717 302.250395 
L 473.611741 302.573419 
L 482.893813 302.636305 
L 493.096229 302.416773 
L 504.258313 301.879441 
L 512.179965 301.303396 
L 520.542927 300.542078 
L 529.393016 299.576208 
L 538.735732 298.367507 
L 548.536248 296.858692 
L 558.719416 294.973476 
L 563.919986 293.860684 
L 569.169768 292.616574 
L 574.448028 291.226266 
L 579.731511 289.673692 
L 584.994443 287.941598 
L 590.208529 286.011539 
L 595.342955 283.863885 
L 600.364385 281.477818 
L 605.236966 278.831331 
L 609.922321 275.90123 
L 614.379555 272.663134 
L 618.565253 269.091474 
L 622.433479 265.159492 
L 625.935777 260.839245 
L 629.021172 256.1016 
L 631.636167 250.916237 
L 633.724746 245.25165 
L 635.228373 239.075141 
L 636.084007 232.353274 
L 636.193198 225.061668 
L 635.475159 217.187076 
L 633.87329 208.73236 
L 631.346154 199.718634 
L 627.86747 190.18526 
L 623.426118 180.189852 
L 618.028389 169.807345 
L 611.711921 159.14356 
L 604.539309 148.326937 
L 596.592757 137.496831 
L 587.974072 126.803478 
L 578.80466 116.407988 
L 569.233524 106.495341 
L 559.440388 97.278032 
L 549.53858 88.848146 
L 539.627859 81.274141 
L 529.802824 74.615011 
L 520.152905 68.920293 
L 510.762374 64.230063 
L 501.710336 60.574934 
L 493.070734 57.976061 
L 484.912347 56.445139 
L 477.298791 55.984401 
L 470.288517 56.586622 
L 463.934814 58.235112 
L 458.210709 60.810077 
L 452.988127 64.085848 
L 448.22491 67.962225 
L 443.883247 72.3485 
L 439.928221 77.16154 
L 436.327809 82.325783 
L 433.052879 87.773242 
L 430.077195 93.4435 
L 427.377411 99.283715 
L 424.933075 105.248619 
L 422.726629 111.300513 
L 420.743407 117.409276 
L 418.97108 123.551389 
L 417.381795 129.680085 
L 415.951995 135.760817 
L 413.509944 147.700199 
L 411.536569 159.235359 
L 409.945055 170.267632 
L 408.67013 180.733868 
L 407.668059 190.606428 
L 406.916652 199.893189 
L 406.404253 208.621981 
L 406.082454 216.771384 
L 405.913497 227.945252 
L 406.082296 237.930376 
L 406.365822 243.969082 
L 406.777902 249.544853 
L 407.3141 254.686109 
L 407.970614 259.420383 
L 408.742962 263.770495 
L 409.636307 267.766515 
L 410.656761 271.437075 
L 411.810543 274.80843 
L 413.103985 277.904465 
L 414.543526 280.746689 
L 416.135719 283.354238 
L 417.887223 285.743876 
L 419.804808 287.929989 
L 421.895357 289.924593 
L 424.165858 291.737329 
L 426.623414 293.375464 
L 429.275233 294.843892 
L 432.131216 296.150004 
L 435.211752 297.31624 
L 438.533493 298.353282 
L 442.112554 299.268905 
L 445.965137 300.06926 
L 450.107528 300.758878 
L 454.556099 301.340668 
L 461.839064 302.013546 
L 469.903881 302.443826 
L 478.806882 302.620796 
L 488.604829 302.525536 
L 499.354915 302.130913 
L 507.037235 301.674203 
L 515.108755 301.036221 
L 523.639751 300.208316 
L 532.662543 299.163649 
L 542.168945 297.856561 
L 552.110256 296.222572 
L 562.397266 294.178383 
L 567.631452 292.971287 
L 572.900254 291.621876 
L 578.181125 290.114446 
L 583.448989 288.432114 
L 588.676237 286.556823 
L 593.832728 284.469338 
L 598.885791 282.14925 
L 603.80022 279.574971 
L 608.538278 276.72374 
L 613.059699 273.571617 
L 617.321681 270.093488 
L 621.278892 266.26306 
L 624.883469 262.052866 
L 628.085014 257.434262 
L 630.830601 252.377428 
L 633.06477 246.851369 
L 634.729528 240.82391 
L 635.764352 234.261705 
L 636.088911 227.135766 
L 635.607082 219.431107 
L 634.257026 211.14499 
L 631.992794 202.293137 
L 628.784042 192.909811 
L 624.616029 183.047819 
L 619.489814 172.777756 
L 613.432092 162.193326 
L 606.500193 151.419507 
L 598.771252 140.593259 
L 590.341439 129.861578 
L 581.32596 119.381492 
L 571.859447 109.320694 
L 562.123609 99.901383 
L 552.256561 91.257369 
L 542.357409 83.456024 
L 532.520193 76.555668 
L 522.833888 70.605569 
L 513.382398 65.64594 
L 504.244562 61.707944 
L 495.49415 58.81369 
L 487.199865 56.976234 
L 479.425343 56.19958 
L 472.229152 56.47868 
L 465.664793 57.799432 
L 459.765172 60.118751 
L 454.407849 63.205195 
L 449.522926 66.920384 
L 445.070857 71.170868 
L 441.01513 75.870846 
L 437.322269 80.942166 
L 433.96183 86.314324 
L 430.906403 91.924466 
L 428.131612 97.717385 
L 425.616117 103.645525 
L 423.34161 109.668977 
L 421.292817 115.755482 
L 419.457498 121.880429 
L 417.819187 128.014855 
L 416.345855 134.108528 
L 415.020742 140.13932 
L 412.758787 151.941646 
L 410.933499 163.30202 
L 409.465766 174.134884 
L 408.297192 184.388939 
L 407.390093 194.047144 
L 406.727502 203.126716 
L 406.288642 211.64414 
L 405.962857 223.344254 
L 405.992469 233.82161 
L 406.340011 243.160036 
L 406.735064 248.796984 
L 407.254847 253.995543 
L 407.8962 258.784159 
L 408.653277 263.184895 
L 409.52983 267.226666 
L 410.532182 270.938728 
L 411.666751 274.34794 
L 412.940057 277.478766 
L 414.358718 280.353267 
L 415.929452 282.991111 
L 417.659075 285.409565 
L 419.554505 287.623499 
L 421.622755 289.645386 
L 423.87094 291.485298 
L 426.306275 293.150914 
L 428.936073 294.647511 
L 431.768064 295.978547 
L 434.821014 297.164332 
L 438.113288 298.220419 
L 441.659946 299.153855 
L 445.476553 299.970361 
L 449.579175 300.67433 
L 453.984381 301.268831 
L 461.197017 301.958768 
L 469.188733 302.406276 
L 474.980019 302.567025 
L 474.980019 302.567025 
" clip-path="url(#pc6f1c4ef3d)" style="fill: none; stroke: #000000; stroke-width: 1.5; stroke-linecap: square"/>
   </g>
   <g id="patch_9">
    <path d="M 394.363636 315 
L 394.363636 43.2 
" style="fill: none; stroke: #000000; stroke-width: 0.8; stroke-linejoin: miter; stroke-linecap: square"/>
   </g>
   <g id="patch_10">
    <path d="M 648 315 
L 648 43.2 
" style="fill: none; stroke: #000000; stroke-width: 0.8; stroke-linejoin: miter; stroke-linecap: square"/>
   </g>
   <g id="patch_11">
    <path d="M 394.363636 315 
L 648 315 
" style="fill: none; stroke: #000000; stroke-width: 0.8; stroke-linejoin: miter; stroke-linecap: square"/>
   </g>
   <g id="patch_12">
    <path d="M 394.363636 43.2 
L 648 43.2 
" style="fill: none; stroke: #000000; stroke-width: 0.8; stroke-linejoin: miter; stroke-linecap: square"/>
   </g>
   <g id="text_36">
    <!-- (b) -->
    <g transform="translate(512.690881 37.2) scale(0.12 -0.12)">
     <defs>
      <path id="DejaVuSans-62" d="M 3116 1747 
Q 3116 2381 2855 2742 
Q 2594 3103 2138 3103 
Q 1681 3103 1420 2742 
Q 1159 2381 1159 1747 
Q 1159 1113 1420 752 
Q 1681 391 2138 391 
Q 2594 391 2855 752 
Q 3116 1113 3116 1747 
z
M 1159 2969 
Q 1341 3281 1617 3432 
Q 1894 3584 2278 3584 
Q 2916 3584 3314 3078 
Q 3713 2572 3713 1747 
Q 3713 922 3314 415 
Q 2916 -91 2278 -91 
Q 1894 -91 1617 61 
Q 1341 213 1159 525 
L 1159 0 
L 581 0 
L 581 4863 
L 1159 4863 
L 1159 2969 
z
" transform="scale(0.015625)"/>
     </defs>
     <use xlink:href="#DejaVuSans-28"/>
     <use xlink:href="#DejaVuSans-62" x="39.013672"/>
     <use xlink:href="#DejaVuSans-29" x="102.490234"/>
    </g>
   </g>
  </g>
 </g>
 <defs>
  <clipPath id="p45a1c34b41">
   <rect x="90" y="43.2" width="253.636364" height="271.8"/>
  </clipPath>
  <clipPath id="pc6f1c4ef3d">
   <rect x="394.363636" y="43.2" width="253.636364" height="271.8"/>
  </clipPath>
 </defs>
</svg>
