<?xml version="1.0" encoding="utf-8" standalone="no"?>
<!DOCTYPE svg PUBLIC "-//W3C//DTD SVG 1.1//EN"
  "http://www.w3.org/Graphics/SVG/1.1/DTD/svg11.dtd">
<svg xmlns:xlink="http://www.w3.org/1999/xlink" width="720pt" height="360pt" viewBox="0 0 720 360" xmlns="http://www.w3.org/2000/svg" version="1.1">
 <metadata>
  <rdf:RDF xmlns:dc="http://purl.org/dc/elements/1.1/" xmlns:cc="http://creativecommons.org/ns#" xmlns:rdf="http://www.w3.org/1999/02/22-rdf-syntax-ns#">
   <cc:Work>
    <dc:type rdf:resource="http://purl.org/dc/dcmitype/StillImage"/>
    <dc:date>2024-10-09T00:11:33.717332</dc:date>
    <dc:format>image/svg+xml</dc:format>
    <dc:creator>
     <cc:Agent>
      <dc:title>Matplotlib v3.8.3, https://matplotlib.org/</dc:title>
     </cc:Agent>
    </dc:creator>
   </cc:Work>
  </rdf:RDF>
 </metadata>
 <defs>
  <style type="text/css">*{stroke-linejoin: round; stroke-linecap: butt}</style>
 </defs>
 <g id="figure_1">
  <g id="patch_1">
   <path d="M 0 360 
L 720 360 
L 720 0 
L 0 0 
z
" style="fill: #ffffff"/>
  </g>
  <g id="axes_1">
   <g id="patch_2">
    <path d="M 90 315 
L 343.636364 315 
L 343.636364 43.2 
L 90 43.2 
z
" style="fill: #ffffff"/>
   </g>
   <g id="matplotlib.axis_1">
    <g id="xtick_1">
     <g id="line2d_1">
      <defs>
       <path id="mab4d4b15e1" d="M 0 0 
L 0 -3.5 
" style="stroke: #000000; stroke-width: 0.8"/>
      </defs>
      <g>
       <use xlink:href="#mab4d4b15e1" x="101.528926" y="315" style="stroke: #000000; stroke-width: 0.8"/>
      </g>
     </g>
     <g id="text_1">
      <!-- 0 -->
      <g transform="translate(98.347676 326.098437) scale(0.1 -0.1)">
       <defs>
        <path id="DejaVuSans-30" d="M 2034 4250 
Q 1547 4250 1301 3770 
Q 1056 3291 1056 2328 
Q 1056 1369 1301 889 
Q 1547 409 2034 409 
Q 2525 409 2770 889 
Q 3016 1369 3016 2328 
Q 3016 3291 2770 3770 
Q 2525 4250 2034 4250 
z
M 2034 4750 
Q 2819 4750 3233 4129 
Q 3647 3509 3647 2328 
Q 3647 1150 3233 529 
Q 2819 -91 2034 -91 
Q 1250 -91 836 529 
Q 422 1150 422 2328 
Q 422 3509 836 4129 
Q 1250 4750 2034 4750 
z
" transform="scale(0.015625)"/>
       </defs>
       <use xlink:href="#DejaVuSans-30"/>
      </g>
     </g>
    </g>
    <g id="xtick_2">
     <g id="line2d_2">
      <g>
       <use xlink:href="#mab4d4b15e1" x="147.644628" y="315" style="stroke: #000000; stroke-width: 0.8"/>
      </g>
     </g>
     <g id="text_2">
      <!-- 2 -->
      <g transform="translate(144.463378 326.098437) scale(0.1 -0.1)">
       <defs>
        <path id="DejaVuSans-32" d="M 1228 531 
L 3431 531 
L 3431 0 
L 469 0 
L 469 531 
Q 828 903 1448 1529 
Q 2069 2156 2228 2338 
Q 2531 2678 2651 2914 
Q 2772 3150 2772 3378 
Q 2772 3750 2511 3984 
Q 2250 4219 1831 4219 
Q 1534 4219 1204 4116 
Q 875 4013 500 3803 
L 500 4441 
Q 881 4594 1212 4672 
Q 1544 4750 1819 4750 
Q 2544 4750 2975 4387 
Q 3406 4025 3406 3419 
Q 3406 3131 3298 2873 
Q 3191 2616 2906 2266 
Q 2828 2175 2409 1742 
Q 1991 1309 1228 531 
z
" transform="scale(0.015625)"/>
       </defs>
       <use xlink:href="#DejaVuSans-32"/>
      </g>
     </g>
    </g>
    <g id="xtick_3">
     <g id="line2d_3">
      <g>
       <use xlink:href="#mab4d4b15e1" x="193.760331" y="315" style="stroke: #000000; stroke-width: 0.8"/>
      </g>
     </g>
     <g id="text_3">
      <!-- 4 -->
      <g transform="translate(190.579081 326.098437) scale(0.1 -0.1)">
       <defs>
        <path id="DejaVuSans-34" d="M 2419 4116 
L 825 1625 
L 2419 1625 
L 2419 4116 
z
M 2253 4666 
L 3047 4666 
L 3047 1625 
L 3713 1625 
L 3713 1100 
L 3047 1100 
L 3047 0 
L 2419 0 
L 2419 1100 
L 313 1100 
L 313 1709 
L 2253 4666 
z
" transform="scale(0.015625)"/>
       </defs>
       <use xlink:href="#DejaVuSans-34"/>
      </g>
     </g>
    </g>
    <g id="xtick_4">
     <g id="line2d_4">
      <g>
       <use xlink:href="#mab4d4b15e1" x="239.876033" y="315" style="stroke: #000000; stroke-width: 0.8"/>
      </g>
     </g>
     <g id="text_4">
      <!-- 6 -->
      <g transform="translate(236.694783 326.098437) scale(0.1 -0.1)">
       <defs>
        <path id="DejaVuSans-36" d="M 2113 2584 
Q 1688 2584 1439 2293 
Q 1191 2003 1191 1497 
Q 1191 994 1439 701 
Q 1688 409 2113 409 
Q 2538 409 2786 701 
Q 3034 994 3034 1497 
Q 3034 2003 2786 2293 
Q 2538 2584 2113 2584 
z
M 3366 4563 
L 3366 3988 
Q 3128 4100 2886 4159 
Q 2644 4219 2406 4219 
Q 1781 4219 1451 3797 
Q 1122 3375 1075 2522 
Q 1259 2794 1537 2939 
Q 1816 3084 2150 3084 
Q 2853 3084 3261 2657 
Q 3669 2231 3669 1497 
Q 3669 778 3244 343 
Q 2819 -91 2113 -91 
Q 1303 -91 875 529 
Q 447 1150 447 2328 
Q 447 3434 972 4092 
Q 1497 4750 2381 4750 
Q 2619 4750 2861 4703 
Q 3103 4656 3366 4563 
z
" transform="scale(0.015625)"/>
       </defs>
       <use xlink:href="#DejaVuSans-36"/>
      </g>
     </g>
    </g>
    <g id="xtick_5">
     <g id="line2d_5">
      <g>
       <use xlink:href="#mab4d4b15e1" x="285.991736" y="315" style="stroke: #000000; stroke-width: 0.8"/>
      </g>
     </g>
     <g id="text_5">
      <!-- 8 -->
      <g transform="translate(282.810486 326.098437) scale(0.1 -0.1)">
       <defs>
        <path id="DejaVuSans-38" d="M 2034 2216 
Q 1584 2216 1326 1975 
Q 1069 1734 1069 1313 
Q 1069 891 1326 650 
Q 1584 409 2034 409 
Q 2484 409 2743 651 
Q 3003 894 3003 1313 
Q 3003 1734 2745 1975 
Q 2488 2216 2034 2216 
z
M 1403 2484 
Q 997 2584 770 2862 
Q 544 3141 544 3541 
Q 544 4100 942 4425 
Q 1341 4750 2034 4750 
Q 2731 4750 3128 4425 
Q 3525 4100 3525 3541 
Q 3525 3141 3298 2862 
Q 3072 2584 2669 2484 
Q 3125 2378 3379 2068 
Q 3634 1759 3634 1313 
Q 3634 634 3220 271 
Q 2806 -91 2034 -91 
Q 1263 -91 848 271 
Q 434 634 434 1313 
Q 434 1759 690 2068 
Q 947 2378 1403 2484 
z
M 1172 3481 
Q 1172 3119 1398 2916 
Q 1625 2713 2034 2713 
Q 2441 2713 2670 2916 
Q 2900 3119 2900 3481 
Q 2900 3844 2670 4047 
Q 2441 4250 2034 4250 
Q 1625 4250 1398 4047 
Q 1172 3844 1172 3481 
z
" transform="scale(0.015625)"/>
       </defs>
       <use xlink:href="#DejaVuSans-38"/>
      </g>
     </g>
    </g>
    <g id="xtick_6">
     <g id="line2d_6">
      <g>
       <use xlink:href="#mab4d4b15e1" x="332.107438" y="315" style="stroke: #000000; stroke-width: 0.8"/>
      </g>
     </g>
     <g id="text_6">
      <!-- 10 -->
      <g transform="translate(325.744938 326.098437) scale(0.1 -0.1)">
       <defs>
        <path id="DejaVuSans-31" d="M 794 531 
L 1825 531 
L 1825 4091 
L 703 3866 
L 703 4441 
L 1819 4666 
L 2450 4666 
L 2450 531 
L 3481 531 
L 3481 0 
L 794 0 
L 794 531 
z
" transform="scale(0.015625)"/>
       </defs>
       <use xlink:href="#DejaVuSans-31"/>
       <use xlink:href="#DejaVuSans-30" x="63.623047"/>
      </g>
     </g>
    </g>
    <g id="xtick_7">
     <g id="line2d_7">
      <defs>
       <path id="mf55671d684" d="M 0 0 
L 0 -2 
" style="stroke: #000000; stroke-width: 0.6"/>
      </defs>
      <g>
       <use xlink:href="#mf55671d684" x="90" y="315" style="stroke: #000000; stroke-width: 0.6"/>
      </g>
     </g>
    </g>
    <g id="xtick_8">
     <g id="line2d_8">
      <g>
       <use xlink:href="#mf55671d684" x="113.057851" y="315" style="stroke: #000000; stroke-width: 0.6"/>
      </g>
     </g>
    </g>
    <g id="xtick_9">
     <g id="line2d_9">
      <g>
       <use xlink:href="#mf55671d684" x="124.586777" y="315" style="stroke: #000000; stroke-width: 0.6"/>
      </g>
     </g>
    </g>
    <g id="xtick_10">
     <g id="line2d_10">
      <g>
       <use xlink:href="#mf55671d684" x="136.115702" y="315" style="stroke: #000000; stroke-width: 0.6"/>
      </g>
     </g>
    </g>
    <g id="xtick_11">
     <g id="line2d_11">
      <g>
       <use xlink:href="#mf55671d684" x="159.173554" y="315" style="stroke: #000000; stroke-width: 0.6"/>
      </g>
     </g>
    </g>
    <g id="xtick_12">
     <g id="line2d_12">
      <g>
       <use xlink:href="#mf55671d684" x="170.702479" y="315" style="stroke: #000000; stroke-width: 0.6"/>
      </g>
     </g>
    </g>
    <g id="xtick_13">
     <g id="line2d_13">
      <g>
       <use xlink:href="#mf55671d684" x="182.231405" y="315" style="stroke: #000000; stroke-width: 0.6"/>
      </g>
     </g>
    </g>
    <g id="xtick_14">
     <g id="line2d_14">
      <g>
       <use xlink:href="#mf55671d684" x="205.289256" y="315" style="stroke: #000000; stroke-width: 0.6"/>
      </g>
     </g>
    </g>
    <g id="xtick_15">
     <g id="line2d_15">
      <g>
       <use xlink:href="#mf55671d684" x="216.818182" y="315" style="stroke: #000000; stroke-width: 0.6"/>
      </g>
     </g>
    </g>
    <g id="xtick_16">
     <g id="line2d_16">
      <g>
       <use xlink:href="#mf55671d684" x="228.347107" y="315" style="stroke: #000000; stroke-width: 0.6"/>
      </g>
     </g>
    </g>
    <g id="xtick_17">
     <g id="line2d_17">
      <g>
       <use xlink:href="#mf55671d684" x="251.404959" y="315" style="stroke: #000000; stroke-width: 0.6"/>
      </g>
     </g>
    </g>
    <g id="xtick_18">
     <g id="line2d_18">
      <g>
       <use xlink:href="#mf55671d684" x="262.933884" y="315" style="stroke: #000000; stroke-width: 0.6"/>
      </g>
     </g>
    </g>
    <g id="xtick_19">
     <g id="line2d_19">
      <g>
       <use xlink:href="#mf55671d684" x="274.46281" y="315" style="stroke: #000000; stroke-width: 0.6"/>
      </g>
     </g>
    </g>
    <g id="xtick_20">
     <g id="line2d_20">
      <g>
       <use xlink:href="#mf55671d684" x="297.520661" y="315" style="stroke: #000000; stroke-width: 0.6"/>
      </g>
     </g>
    </g>
    <g id="xtick_21">
     <g id="line2d_21">
      <g>
       <use xlink:href="#mf55671d684" x="309.049587" y="315" style="stroke: #000000; stroke-width: 0.6"/>
      </g>
     </g>
    </g>
    <g id="xtick_22">
     <g id="line2d_22">
      <g>
       <use xlink:href="#mf55671d684" x="320.578512" y="315" style="stroke: #000000; stroke-width: 0.6"/>
      </g>
     </g>
    </g>
    <g id="xtick_23">
     <g id="line2d_23">
      <g>
       <use xlink:href="#mf55671d684" x="343.636364" y="315" style="stroke: #000000; stroke-width: 0.6"/>
      </g>
     </g>
    </g>
    <g id="text_7">
     <!-- Time (years) -->
     <g transform="translate(185.333807 339.776563) scale(0.1 -0.1)">
      <defs>
       <path id="DejaVuSans-54" d="M -19 4666 
L 3928 4666 
L 3928 4134 
L 2272 4134 
L 2272 0 
L 1638 0 
L 1638 4134 
L -19 4134 
L -19 4666 
z
" transform="scale(0.015625)"/>
       <path id="DejaVuSans-69" d="M 603 3500 
L 1178 3500 
L 1178 0 
L 603 0 
L 603 3500 
z
M 603 4863 
L 1178 4863 
L 1178 4134 
L 603 4134 
L 603 4863 
z
" transform="scale(0.015625)"/>
       <path id="DejaVuSans-6d" d="M 3328 2828 
Q 3544 3216 3844 3400 
Q 4144 3584 4550 3584 
Q 5097 3584 5394 3201 
Q 5691 2819 5691 2113 
L 5691 0 
L 5113 0 
L 5113 2094 
Q 5113 2597 4934 2840 
Q 4756 3084 4391 3084 
Q 3944 3084 3684 2787 
Q 3425 2491 3425 1978 
L 3425 0 
L 2847 0 
L 2847 2094 
Q 2847 2600 2669 2842 
Q 2491 3084 2119 3084 
Q 1678 3084 1418 2786 
Q 1159 2488 1159 1978 
L 1159 0 
L 581 0 
L 581 3500 
L 1159 3500 
L 1159 2956 
Q 1356 3278 1631 3431 
Q 1906 3584 2284 3584 
Q 2666 3584 2933 3390 
Q 3200 3197 3328 2828 
z
" transform="scale(0.015625)"/>
       <path id="DejaVuSans-65" d="M 3597 1894 
L 3597 1613 
L 953 1613 
Q 991 1019 1311 708 
Q 1631 397 2203 397 
Q 2534 397 2845 478 
Q 3156 559 3463 722 
L 3463 178 
Q 3153 47 2828 -22 
Q 2503 -91 2169 -91 
Q 1331 -91 842 396 
Q 353 884 353 1716 
Q 353 2575 817 3079 
Q 1281 3584 2069 3584 
Q 2775 3584 3186 3129 
Q 3597 2675 3597 1894 
z
M 3022 2063 
Q 3016 2534 2758 2815 
Q 2500 3097 2075 3097 
Q 1594 3097 1305 2825 
Q 1016 2553 972 2059 
L 3022 2063 
z
" transform="scale(0.015625)"/>
       <path id="DejaVuSans-20" transform="scale(0.015625)"/>
       <path id="DejaVuSans-28" d="M 1984 4856 
Q 1566 4138 1362 3434 
Q 1159 2731 1159 2009 
Q 1159 1288 1364 580 
Q 1569 -128 1984 -844 
L 1484 -844 
Q 1016 -109 783 600 
Q 550 1309 550 2009 
Q 550 2706 781 3412 
Q 1013 4119 1484 4856 
L 1984 4856 
z
" transform="scale(0.015625)"/>
       <path id="DejaVuSans-79" d="M 2059 -325 
Q 1816 -950 1584 -1140 
Q 1353 -1331 966 -1331 
L 506 -1331 
L 506 -850 
L 844 -850 
Q 1081 -850 1212 -737 
Q 1344 -625 1503 -206 
L 1606 56 
L 191 3500 
L 800 3500 
L 1894 763 
L 2988 3500 
L 3597 3500 
L 2059 -325 
z
" transform="scale(0.015625)"/>
       <path id="DejaVuSans-61" d="M 2194 1759 
Q 1497 1759 1228 1600 
Q 959 1441 959 1056 
Q 959 750 1161 570 
Q 1363 391 1709 391 
Q 2188 391 2477 730 
Q 2766 1069 2766 1631 
L 2766 1759 
L 2194 1759 
z
M 3341 1997 
L 3341 0 
L 2766 0 
L 2766 531 
Q 2569 213 2275 61 
Q 1981 -91 1556 -91 
Q 1019 -91 701 211 
Q 384 513 384 1019 
Q 384 1609 779 1909 
Q 1175 2209 1959 2209 
L 2766 2209 
L 2766 2266 
Q 2766 2663 2505 2880 
Q 2244 3097 1772 3097 
Q 1472 3097 1187 3025 
Q 903 2953 641 2809 
L 641 3341 
Q 956 3463 1253 3523 
Q 1550 3584 1831 3584 
Q 2591 3584 2966 3190 
Q 3341 2797 3341 1997 
z
" transform="scale(0.015625)"/>
       <path id="DejaVuSans-72" d="M 2631 2963 
Q 2534 3019 2420 3045 
Q 2306 3072 2169 3072 
Q 1681 3072 1420 2755 
Q 1159 2438 1159 1844 
L 1159 0 
L 581 0 
L 581 3500 
L 1159 3500 
L 1159 2956 
Q 1341 3275 1631 3429 
Q 1922 3584 2338 3584 
Q 2397 3584 2469 3576 
Q 2541 3569 2628 3553 
L 2631 2963 
z
" transform="scale(0.015625)"/>
       <path id="DejaVuSans-73" d="M 2834 3397 
L 2834 2853 
Q 2591 2978 2328 3040 
Q 2066 3103 1784 3103 
Q 1356 3103 1142 2972 
Q 928 2841 928 2578 
Q 928 2378 1081 2264 
Q 1234 2150 1697 2047 
L 1894 2003 
Q 2506 1872 2764 1633 
Q 3022 1394 3022 966 
Q 3022 478 2636 193 
Q 2250 -91 1575 -91 
Q 1294 -91 989 -36 
Q 684 19 347 128 
L 347 722 
Q 666 556 975 473 
Q 1284 391 1588 391 
Q 1994 391 2212 530 
Q 2431 669 2431 922 
Q 2431 1156 2273 1281 
Q 2116 1406 1581 1522 
L 1381 1569 
Q 847 1681 609 1914 
Q 372 2147 372 2553 
Q 372 3047 722 3315 
Q 1072 3584 1716 3584 
Q 2034 3584 2315 3537 
Q 2597 3491 2834 3397 
z
" transform="scale(0.015625)"/>
       <path id="DejaVuSans-29" d="M 513 4856 
L 1013 4856 
Q 1481 4119 1714 3412 
Q 1947 2706 1947 2009 
Q 1947 1309 1714 600 
Q 1481 -109 1013 -844 
L 513 -844 
Q 928 -128 1133 580 
Q 1338 1288 1338 2009 
Q 1338 2731 1133 3434 
Q 928 4138 513 4856 
z
" transform="scale(0.015625)"/>
      </defs>
      <use xlink:href="#DejaVuSans-54"/>
      <use xlink:href="#DejaVuSans-69" x="57.958984"/>
      <use xlink:href="#DejaVuSans-6d" x="85.742188"/>
      <use xlink:href="#DejaVuSans-65" x="183.154297"/>
      <use xlink:href="#DejaVuSans-20" x="244.677734"/>
      <use xlink:href="#DejaVuSans-28" x="276.464844"/>
      <use xlink:href="#DejaVuSans-79" x="315.478516"/>
      <use xlink:href="#DejaVuSans-65" x="374.658203"/>
      <use xlink:href="#DejaVuSans-61" x="436.181641"/>
      <use xlink:href="#DejaVuSans-72" x="497.460938"/>
      <use xlink:href="#DejaVuSans-73" x="538.574219"/>
      <use xlink:href="#DejaVuSans-29" x="590.673828"/>
     </g>
    </g>
   </g>
   <g id="matplotlib.axis_2">
    <g id="ytick_1">
     <g id="line2d_24">
      <defs>
       <path id="m80e06b18fc" d="M 0 0 
L 3.5 0 
" style="stroke: #000000; stroke-width: 0.8"/>
      </defs>
      <g>
       <use xlink:href="#m80e06b18fc" x="90" y="303.220028" style="stroke: #000000; stroke-width: 0.8"/>
      </g>
     </g>
     <g id="text_8">
      <!-- 0 -->
      <g transform="translate(80.1375 307.019247) scale(0.1 -0.1)">
       <use xlink:href="#DejaVuSans-30"/>
      </g>
     </g>
    </g>
    <g id="ytick_2">
     <g id="line2d_25">
      <g>
       <use xlink:href="#m80e06b18fc" x="90" y="259.03015" style="stroke: #000000; stroke-width: 0.8"/>
      </g>
     </g>
     <g id="text_9">
      <!-- 10 -->
      <g transform="translate(73.775 262.829368) scale(0.1 -0.1)">
       <use xlink:href="#DejaVuSans-31"/>
       <use xlink:href="#DejaVuSans-30" x="63.623047"/>
      </g>
     </g>
    </g>
    <g id="ytick_3">
     <g id="line2d_26">
      <g>
       <use xlink:href="#m80e06b18fc" x="90" y="214.840271" style="stroke: #000000; stroke-width: 0.8"/>
      </g>
     </g>
     <g id="text_10">
      <!-- 20 -->
      <g transform="translate(73.775 218.63949) scale(0.1 -0.1)">
       <use xlink:href="#DejaVuSans-32"/>
       <use xlink:href="#DejaVuSans-30" x="63.623047"/>
      </g>
     </g>
    </g>
    <g id="ytick_4">
     <g id="line2d_27">
      <g>
       <use xlink:href="#m80e06b18fc" x="90" y="170.650393" style="stroke: #000000; stroke-width: 0.8"/>
      </g>
     </g>
     <g id="text_11">
      <!-- 30 -->
      <g transform="translate(73.775 174.449611) scale(0.1 -0.1)">
       <defs>
        <path id="DejaVuSans-33" d="M 2597 2516 
Q 3050 2419 3304 2112 
Q 3559 1806 3559 1356 
Q 3559 666 3084 287 
Q 2609 -91 1734 -91 
Q 1441 -91 1130 -33 
Q 819 25 488 141 
L 488 750 
Q 750 597 1062 519 
Q 1375 441 1716 441 
Q 2309 441 2620 675 
Q 2931 909 2931 1356 
Q 2931 1769 2642 2001 
Q 2353 2234 1838 2234 
L 1294 2234 
L 1294 2753 
L 1863 2753 
Q 2328 2753 2575 2939 
Q 2822 3125 2822 3475 
Q 2822 3834 2567 4026 
Q 2313 4219 1838 4219 
Q 1578 4219 1281 4162 
Q 984 4106 628 3988 
L 628 4550 
Q 988 4650 1302 4700 
Q 1616 4750 1894 4750 
Q 2613 4750 3031 4423 
Q 3450 4097 3450 3541 
Q 3450 3153 3228 2886 
Q 3006 2619 2597 2516 
z
" transform="scale(0.015625)"/>
       </defs>
       <use xlink:href="#DejaVuSans-33"/>
       <use xlink:href="#DejaVuSans-30" x="63.623047"/>
      </g>
     </g>
    </g>
    <g id="ytick_5">
     <g id="line2d_28">
      <g>
       <use xlink:href="#m80e06b18fc" x="90" y="126.460514" style="stroke: #000000; stroke-width: 0.8"/>
      </g>
     </g>
     <g id="text_12">
      <!-- 40 -->
      <g transform="translate(73.775 130.259733) scale(0.1 -0.1)">
       <use xlink:href="#DejaVuSans-34"/>
       <use xlink:href="#DejaVuSans-30" x="63.623047"/>
      </g>
     </g>
    </g>
    <g id="ytick_6">
     <g id="line2d_29">
      <g>
       <use xlink:href="#m80e06b18fc" x="90" y="82.270636" style="stroke: #000000; stroke-width: 0.8"/>
      </g>
     </g>
     <g id="text_13">
      <!-- 50 -->
      <g transform="translate(73.775 86.069855) scale(0.1 -0.1)">
       <defs>
        <path id="DejaVuSans-35" d="M 691 4666 
L 3169 4666 
L 3169 4134 
L 1269 4134 
L 1269 2991 
Q 1406 3038 1543 3061 
Q 1681 3084 1819 3084 
Q 2600 3084 3056 2656 
Q 3513 2228 3513 1497 
Q 3513 744 3044 326 
Q 2575 -91 1722 -91 
Q 1428 -91 1123 -41 
Q 819 9 494 109 
L 494 744 
Q 775 591 1075 516 
Q 1375 441 1709 441 
Q 2250 441 2565 725 
Q 2881 1009 2881 1497 
Q 2881 1984 2565 2268 
Q 2250 2553 1709 2553 
Q 1456 2553 1204 2497 
Q 953 2441 691 2322 
L 691 4666 
z
" transform="scale(0.015625)"/>
       </defs>
       <use xlink:href="#DejaVuSans-35"/>
       <use xlink:href="#DejaVuSans-30" x="63.623047"/>
      </g>
     </g>
    </g>
    <g id="ytick_7">
     <g id="line2d_30">
      <defs>
       <path id="me4d031693d" d="M 0 0 
L 2 0 
" style="stroke: #000000; stroke-width: 0.6"/>
      </defs>
      <g>
       <use xlink:href="#me4d031693d" x="90" y="312.058004" style="stroke: #000000; stroke-width: 0.6"/>
      </g>
     </g>
    </g>
    <g id="ytick_8">
     <g id="line2d_31">
      <g>
       <use xlink:href="#me4d031693d" x="90" y="294.382052" style="stroke: #000000; stroke-width: 0.6"/>
      </g>
     </g>
    </g>
    <g id="ytick_9">
     <g id="line2d_32">
      <g>
       <use xlink:href="#me4d031693d" x="90" y="285.544077" style="stroke: #000000; stroke-width: 0.6"/>
      </g>
     </g>
    </g>
    <g id="ytick_10">
     <g id="line2d_33">
      <g>
       <use xlink:href="#me4d031693d" x="90" y="276.706101" style="stroke: #000000; stroke-width: 0.6"/>
      </g>
     </g>
    </g>
    <g id="ytick_11">
     <g id="line2d_34">
      <g>
       <use xlink:href="#me4d031693d" x="90" y="267.868125" style="stroke: #000000; stroke-width: 0.6"/>
      </g>
     </g>
    </g>
    <g id="ytick_12">
     <g id="line2d_35">
      <g>
       <use xlink:href="#me4d031693d" x="90" y="250.192174" style="stroke: #000000; stroke-width: 0.6"/>
      </g>
     </g>
    </g>
    <g id="ytick_13">
     <g id="line2d_36">
      <g>
       <use xlink:href="#me4d031693d" x="90" y="241.354198" style="stroke: #000000; stroke-width: 0.6"/>
      </g>
     </g>
    </g>
    <g id="ytick_14">
     <g id="line2d_37">
      <g>
       <use xlink:href="#me4d031693d" x="90" y="232.516223" style="stroke: #000000; stroke-width: 0.6"/>
      </g>
     </g>
    </g>
    <g id="ytick_15">
     <g id="line2d_38">
      <g>
       <use xlink:href="#me4d031693d" x="90" y="223.678247" style="stroke: #000000; stroke-width: 0.6"/>
      </g>
     </g>
    </g>
    <g id="ytick_16">
     <g id="line2d_39">
      <g>
       <use xlink:href="#me4d031693d" x="90" y="206.002295" style="stroke: #000000; stroke-width: 0.6"/>
      </g>
     </g>
    </g>
    <g id="ytick_17">
     <g id="line2d_40">
      <g>
       <use xlink:href="#me4d031693d" x="90" y="197.16432" style="stroke: #000000; stroke-width: 0.6"/>
      </g>
     </g>
    </g>
    <g id="ytick_18">
     <g id="line2d_41">
      <g>
       <use xlink:href="#me4d031693d" x="90" y="188.326344" style="stroke: #000000; stroke-width: 0.6"/>
      </g>
     </g>
    </g>
    <g id="ytick_19">
     <g id="line2d_42">
      <g>
       <use xlink:href="#me4d031693d" x="90" y="179.488368" style="stroke: #000000; stroke-width: 0.6"/>
      </g>
     </g>
    </g>
    <g id="ytick_20">
     <g id="line2d_43">
      <g>
       <use xlink:href="#me4d031693d" x="90" y="161.812417" style="stroke: #000000; stroke-width: 0.6"/>
      </g>
     </g>
    </g>
    <g id="ytick_21">
     <g id="line2d_44">
      <g>
       <use xlink:href="#me4d031693d" x="90" y="152.974441" style="stroke: #000000; stroke-width: 0.6"/>
      </g>
     </g>
    </g>
    <g id="ytick_22">
     <g id="line2d_45">
      <g>
       <use xlink:href="#me4d031693d" x="90" y="144.136466" style="stroke: #000000; stroke-width: 0.6"/>
      </g>
     </g>
    </g>
    <g id="ytick_23">
     <g id="line2d_46">
      <g>
       <use xlink:href="#me4d031693d" x="90" y="135.29849" style="stroke: #000000; stroke-width: 0.6"/>
      </g>
     </g>
    </g>
    <g id="ytick_24">
     <g id="line2d_47">
      <g>
       <use xlink:href="#me4d031693d" x="90" y="117.622539" style="stroke: #000000; stroke-width: 0.6"/>
      </g>
     </g>
    </g>
    <g id="ytick_25">
     <g id="line2d_48">
      <g>
       <use xlink:href="#me4d031693d" x="90" y="108.784563" style="stroke: #000000; stroke-width: 0.6"/>
      </g>
     </g>
    </g>
    <g id="ytick_26">
     <g id="line2d_49">
      <g>
       <use xlink:href="#me4d031693d" x="90" y="99.946587" style="stroke: #000000; stroke-width: 0.6"/>
      </g>
     </g>
    </g>
    <g id="ytick_27">
     <g id="line2d_50">
      <g>
       <use xlink:href="#me4d031693d" x="90" y="91.108611" style="stroke: #000000; stroke-width: 0.6"/>
      </g>
     </g>
    </g>
    <g id="ytick_28">
     <g id="line2d_51">
      <g>
       <use xlink:href="#me4d031693d" x="90" y="73.43266" style="stroke: #000000; stroke-width: 0.6"/>
      </g>
     </g>
    </g>
    <g id="ytick_29">
     <g id="line2d_52">
      <g>
       <use xlink:href="#me4d031693d" x="90" y="64.594684" style="stroke: #000000; stroke-width: 0.6"/>
      </g>
     </g>
    </g>
    <g id="ytick_30">
     <g id="line2d_53">
      <g>
       <use xlink:href="#me4d031693d" x="90" y="55.756709" style="stroke: #000000; stroke-width: 0.6"/>
      </g>
     </g>
    </g>
    <g id="ytick_31">
     <g id="line2d_54">
      <g>
       <use xlink:href="#me4d031693d" x="90" y="46.918733" style="stroke: #000000; stroke-width: 0.6"/>
      </g>
     </g>
    </g>
    <g id="text_14">
     <!-- Population -->
     <g transform="translate(67.695312 205.366406) rotate(-90) scale(0.1 -0.1)">
      <defs>
       <path id="DejaVuSans-50" d="M 1259 4147 
L 1259 2394 
L 2053 2394 
Q 2494 2394 2734 2622 
Q 2975 2850 2975 3272 
Q 2975 3691 2734 3919 
Q 2494 4147 2053 4147 
L 1259 4147 
z
M 628 4666 
L 2053 4666 
Q 2838 4666 3239 4311 
Q 3641 3956 3641 3272 
Q 3641 2581 3239 2228 
Q 2838 1875 2053 1875 
L 1259 1875 
L 1259 0 
L 628 0 
L 628 4666 
z
" transform="scale(0.015625)"/>
       <path id="DejaVuSans-6f" d="M 1959 3097 
Q 1497 3097 1228 2736 
Q 959 2375 959 1747 
Q 959 1119 1226 758 
Q 1494 397 1959 397 
Q 2419 397 2687 759 
Q 2956 1122 2956 1747 
Q 2956 2369 2687 2733 
Q 2419 3097 1959 3097 
z
M 1959 3584 
Q 2709 3584 3137 3096 
Q 3566 2609 3566 1747 
Q 3566 888 3137 398 
Q 2709 -91 1959 -91 
Q 1206 -91 779 398 
Q 353 888 353 1747 
Q 353 2609 779 3096 
Q 1206 3584 1959 3584 
z
" transform="scale(0.015625)"/>
       <path id="DejaVuSans-70" d="M 1159 525 
L 1159 -1331 
L 581 -1331 
L 581 3500 
L 1159 3500 
L 1159 2969 
Q 1341 3281 1617 3432 
Q 1894 3584 2278 3584 
Q 2916 3584 3314 3078 
Q 3713 2572 3713 1747 
Q 3713 922 3314 415 
Q 2916 -91 2278 -91 
Q 1894 -91 1617 61 
Q 1341 213 1159 525 
z
M 3116 1747 
Q 3116 2381 2855 2742 
Q 2594 3103 2138 3103 
Q 1681 3103 1420 2742 
Q 1159 2381 1159 1747 
Q 1159 1113 1420 752 
Q 1681 391 2138 391 
Q 2594 391 2855 752 
Q 3116 1113 3116 1747 
z
" transform="scale(0.015625)"/>
       <path id="DejaVuSans-75" d="M 544 1381 
L 544 3500 
L 1119 3500 
L 1119 1403 
Q 1119 906 1312 657 
Q 1506 409 1894 409 
Q 2359 409 2629 706 
Q 2900 1003 2900 1516 
L 2900 3500 
L 3475 3500 
L 3475 0 
L 2900 0 
L 2900 538 
Q 2691 219 2414 64 
Q 2138 -91 1772 -91 
Q 1169 -91 856 284 
Q 544 659 544 1381 
z
M 1991 3584 
L 1991 3584 
z
" transform="scale(0.015625)"/>
       <path id="DejaVuSans-6c" d="M 603 4863 
L 1178 4863 
L 1178 0 
L 603 0 
L 603 4863 
z
" transform="scale(0.015625)"/>
       <path id="DejaVuSans-74" d="M 1172 4494 
L 1172 3500 
L 2356 3500 
L 2356 3053 
L 1172 3053 
L 1172 1153 
Q 1172 725 1289 603 
Q 1406 481 1766 481 
L 2356 481 
L 2356 0 
L 1766 0 
Q 1100 0 847 248 
Q 594 497 594 1153 
L 594 3053 
L 172 3053 
L 172 3500 
L 594 3500 
L 594 4494 
L 1172 4494 
z
" transform="scale(0.015625)"/>
       <path id="DejaVuSans-6e" d="M 3513 2113 
L 3513 0 
L 2938 0 
L 2938 2094 
Q 2938 2591 2744 2837 
Q 2550 3084 2163 3084 
Q 1697 3084 1428 2787 
Q 1159 2491 1159 1978 
L 1159 0 
L 581 0 
L 581 3500 
L 1159 3500 
L 1159 2956 
Q 1366 3272 1645 3428 
Q 1925 3584 2291 3584 
Q 2894 3584 3203 3211 
Q 3513 2838 3513 2113 
z
" transform="scale(0.015625)"/>
      </defs>
      <use xlink:href="#DejaVuSans-50"/>
      <use xlink:href="#DejaVuSans-6f" x="56.677734"/>
      <use xlink:href="#DejaVuSans-70" x="117.859375"/>
      <use xlink:href="#DejaVuSans-75" x="181.335938"/>
      <use xlink:href="#DejaVuSans-6c" x="244.714844"/>
      <use xlink:href="#DejaVuSans-61" x="272.498047"/>
      <use xlink:href="#DejaVuSans-74" x="333.777344"/>
      <use xlink:href="#DejaVuSans-69" x="372.986328"/>
      <use xlink:href="#DejaVuSans-6f" x="400.769531"/>
      <use xlink:href="#DejaVuSans-6e" x="461.951172"/>
     </g>
    </g>
   </g>
   <g id="line2d_55">
    <path d="M 101.528926 294.382052 
L 102.221354 295.263497 
L 102.913782 295.855878 
L 103.837019 296.327751 
L 104.760256 296.513557 
L 105.683493 296.477336 
L 106.83754 296.196413 
L 107.991587 295.679761 
L 109.145633 294.906281 
L 110.29968 293.855864 
L 111.453726 292.50914 
L 112.607773 290.823734 
L 113.76182 288.729912 
L 114.915866 286.148586 
L 116.069913 282.982781 
L 117.223959 279.112436 
L 118.378006 274.396198 
L 119.532053 268.66551 
L 120.686099 261.709947 
L 121.840146 253.277105 
L 122.994193 243.076973 
L 124.148239 230.771012 
L 125.302286 215.957607 
L 126.456332 198.248505 
L 127.610379 177.277004 
L 128.995235 147.728549 
L 130.6109 107.095594 
L 131.995756 74.208571 
L 132.688184 63.053131 
L 133.149803 59.513204 
L 133.380612 59.479453 
L 133.611421 60.833314 
L 133.842231 63.73487 
L 134.303849 74.660701 
L 134.765468 92.608311 
L 135.457896 130.471593 
L 136.842752 210.59604 
L 137.53518 239.454975 
L 138.227608 259.290171 
L 138.920036 272.277555 
L 139.612464 280.575561 
L 140.304892 286.007514 
L 140.99732 289.583047 
L 141.689748 291.957845 
L 142.382176 293.583323 
L 143.074604 294.721057 
L 143.767031 295.484881 
L 144.459459 295.981388 
L 145.382697 296.348136 
L 146.305934 296.463938 
L 147.459981 296.343239 
L 148.614027 295.955674 
L 149.768074 295.300898 
L 150.92212 294.384624 
L 152.076167 293.204191 
L 153.230214 291.704158 
L 154.38426 289.826916 
L 155.538307 287.503182 
L 156.692354 284.647724 
L 157.8464 281.152849 
L 159.000447 276.891905 
L 160.154493 271.705554 
L 161.30854 265.400854 
L 162.462587 257.753671 
L 163.616633 248.49335 
L 164.77068 237.298102 
L 165.924726 223.812591 
L 167.078773 207.648267 
L 168.23282 188.420372 
L 169.386866 165.741894 
L 170.771722 133.989529 
L 173.541434 67.63033 
L 174.003053 61.459536 
L 174.233862 59.717657 
L 174.464671 59.053126 
L 174.695481 59.609838 
L 174.92629 61.537802 
L 175.157099 64.993141 
L 175.618718 77.140316 
L 176.080337 96.522147 
L 177.003574 149.718391 
L 178.15762 215.152512 
L 178.850048 242.808372 
L 179.542476 261.454023 
L 180.234904 273.822345 
L 180.927332 281.818614 
L 181.61976 286.828631 
L 182.312188 290.177813 
L 183.004616 292.477353 
L 183.697044 293.988755 
L 184.389472 295.016603 
L 185.0819 295.710672 
L 186.005137 296.277923 
L 186.928375 296.548163 
L 187.851612 296.58921 
L 189.005659 296.37945 
L 190.159705 295.927176 
L 191.313752 295.234433 
L 192.467798 294.272873 
L 193.621845 293.014734 
L 194.775892 291.433307 
L 195.929938 289.471968 
L 197.083985 287.05093 
L 198.238031 284.078532 
L 199.392078 280.442543 
L 200.546125 276.004327 
L 201.700171 270.603288 
L 202.854218 264.048364 
L 204.008264 256.10246 
L 205.162311 246.482392 
L 206.316358 234.859761 
L 207.470404 220.876583 
L 208.624451 204.090502 
L 209.778498 184.121541 
L 211.163353 155.611096 
L 212.548209 122.375593 
L 214.625493 71.280816 
L 215.087112 63.540756 
L 215.548731 58.91881 
L 215.77954 58.117228 
L 216.010349 58.580225 
L 216.241159 60.518593 
L 216.471968 64.083491 
L 216.933586 76.481798 
L 217.395205 95.904733 
L 218.318442 149.430808 
L 219.472489 215.679152 
L 220.164917 243.368855 
L 220.857345 262.012164 
L 221.549773 274.322175 
L 222.242201 282.024291 
L 222.934629 286.999731 
L 223.627057 290.428319 
L 224.319485 292.724311 
L 225.011913 294.197298 
L 225.704341 295.199457 
L 226.396769 295.878832 
L 227.320006 296.433332 
L 228.243243 296.694763 
L 229.166481 296.730855 
L 230.320527 296.524184 
L 231.474574 296.083457 
L 232.62862 295.400645 
L 233.782667 294.448646 
L 234.936714 293.205466 
L 236.09076 291.651009 
L 237.244807 289.721875 
L 238.398853 287.340176 
L 239.5529 284.415314 
L 240.706947 280.837094 
L 241.860993 276.468254 
L 243.01504 271.153518 
L 244.169086 264.700809 
L 245.323133 256.873696 
L 246.47718 247.391403 
L 247.631226 235.935776 
L 248.785273 222.129263 
L 249.939319 205.54809 
L 251.093366 185.809138 
L 252.478222 157.633933 
L 253.863078 124.323651 
L 255.940362 72.27974 
L 256.63279 60.622737 
L 257.094408 56.733763 
L 257.325218 56.51894 
L 257.556027 57.710478 
L 257.786836 60.476222 
L 258.248455 71.254162 
L 258.710074 89.277343 
L 259.402502 127.754243 
L 260.787358 210.106681 
L 261.479786 239.539314 
L 262.172214 259.620836 
L 262.864642 272.846073 
L 263.557069 281.130753 
L 264.249497 286.476398 
L 264.941925 290.04675 
L 265.634353 292.381519 
L 266.326781 293.957961 
L 267.019209 295.040042 
L 267.711637 295.784772 
L 268.634875 296.387524 
L 269.558112 296.68031 
L 270.481349 296.742557 
L 271.635396 296.571851 
L 272.789442 296.156407 
L 273.943489 295.489447 
L 275.097536 294.564297 
L 276.251582 293.372697 
L 277.405629 291.867058 
L 278.559675 289.987607 
L 279.713722 287.66361 
L 280.867769 284.808976 
L 282.021815 281.314903 
L 283.175862 277.055083 
L 284.329908 271.870613 
L 285.483955 265.567265 
L 286.638002 257.916985 
L 287.792048 248.651725 
L 288.946095 237.443185 
L 290.100141 223.928317 
L 291.254188 207.712321 
L 292.408235 188.390524 
L 293.562281 165.585219 
L 294.947137 133.494726 
L 297.716849 65.271115 
L 298.178468 58.530454 
L 298.409277 56.501548 
L 298.640086 55.554545 
L 298.870896 55.837584 
L 299.101705 57.504736 
L 299.332514 60.716008 
L 299.794133 72.44062 
L 300.255752 91.757501 
L 300.94818 131.343331 
L 302.333036 213.709089 
L 303.025463 242.246897 
L 303.717891 261.428755 
L 304.410319 274.081841 
L 305.102747 282.050327 
L 305.795175 287.101267 
L 306.487603 290.507188 
L 307.180031 292.798547 
L 307.872459 294.292924 
L 308.564887 295.308761 
L 309.257315 295.997774 
L 310.180552 296.562892 
L 311.10379 296.834513 
L 312.027027 296.881904 
L 313.181074 296.69217 
L 314.33512 296.272569 
L 315.489167 295.615767 
L 316.643213 294.695691 
L 317.79726 293.491896 
L 318.951307 291.9861 
L 320.105353 290.116205 
L 321.2594 287.806373 
L 322.413447 284.968537 
L 323.567493 281.495567 
L 324.72154 277.254102 
L 325.875586 272.092884 
L 327.029633 265.823796 
L 328.18368 258.215359 
L 329.337726 248.992726 
L 330.491773 237.837862 
L 331.645819 224.385295 
L 332.107438 218.270551 
L 332.107438 218.270551 
" clip-path="url(#p7d3d2a33f2)" style="fill: none; stroke: #1f77b4; stroke-width: 1.5; stroke-linecap: square"/>
   </g>
   <g id="line2d_56">
    <path d="M 101.528926 285.544077 
L 102.682972 289.029204 
L 103.837019 291.867606 
L 104.991065 294.153935 
L 106.145112 295.980811 
L 107.299159 297.433393 
L 108.684015 298.786686 
L 110.068871 299.807807 
L 111.684536 300.685408 
L 113.300201 301.315507 
L 115.377485 301.868433 
L 117.916387 302.282622 
L 120.916909 302.534416 
L 124.379048 302.596496 
L 126.917951 302.445177 
L 128.302807 302.188205 
L 129.687663 301.685557 
L 130.380091 301.255862 
L 131.072519 300.566979 
L 131.764947 299.4507 
L 132.457375 297.688411 
L 133.149803 294.991887 
L 133.842231 290.949444 
L 134.534659 285.387891 
L 136.150324 270.968194 
L 136.611943 268.404863 
L 137.073561 266.978043 
L 137.30437 266.68649 
L 137.53518 266.644668 
L 137.765989 266.820375 
L 138.227608 267.705608 
L 138.920036 269.975621 
L 140.304892 275.875982 
L 141.920557 282.537483 
L 143.074604 286.526271 
L 144.22865 289.828127 
L 145.382697 292.510799 
L 146.536743 294.665495 
L 147.69079 296.386727 
L 148.844837 297.755834 
L 150.229693 299.028911 
L 151.614548 299.989363 
L 153.230214 300.8154 
L 155.076688 301.476564 
L 157.153972 301.971502 
L 159.692875 302.338897 
L 162.924205 302.563746 
L 166.155536 302.57919 
L 168.463629 302.390302 
L 170.079294 302.032223 
L 171.002531 301.625906 
L 171.925769 300.934411 
L 172.618197 300.129015 
L 173.079815 299.306495 
L 173.541434 298.148378 
L 174.233862 295.595451 
L 174.92629 291.827509 
L 175.618718 286.603388 
L 177.465192 270.273527 
L 177.926811 267.917184 
L 178.38843 266.71501 
L 178.619239 266.525002 
L 178.850048 266.57744 
L 179.080858 266.842201 
L 179.542476 267.876392 
L 180.234904 270.252397 
L 181.61976 276.228448 
L 183.235426 282.8586 
L 184.389472 286.813019 
L 185.543519 290.072497 
L 186.697565 292.712544 
L 187.851612 294.831516 
L 189.005659 296.521332 
L 190.159705 297.864329 
L 191.544561 299.114716 
L 192.929417 300.057229 
L 194.545082 300.866228 
L 196.391557 301.514722 
L 198.468841 301.999128 
L 201.007743 302.359398 
L 204.239074 302.579326 
L 207.470404 302.590164 
L 209.778498 302.413425 
L 211.163353 302.126096 
L 212.3174 301.649586 
L 213.009828 301.189175 
L 213.702256 300.468522 
L 214.394684 299.303788 
L 215.087112 297.444283 
L 215.77954 294.572428 
L 216.471968 290.306755 
L 217.164396 284.515448 
L 218.780061 270.177827 
L 219.24168 267.75584 
L 219.703298 266.520974 
L 219.934108 266.348818 
L 220.164917 266.423447 
L 220.626536 267.159566 
L 221.088154 268.473016 
L 222.011392 272.115827 
L 224.550294 282.855152 
L 225.704341 286.823393 
L 226.858387 290.088682 
L 228.012434 292.731721 
L 229.166481 294.851386 
L 230.320527 296.540627 
L 231.474574 297.883479 
L 232.85943 299.132653 
L 234.244286 300.073534 
L 235.859951 300.880878 
L 237.706425 301.527772 
L 239.783709 302.010934 
L 242.322612 302.370678 
L 245.553942 302.591832 
L 249.016082 302.602801 
L 251.324175 302.414893 
L 252.709031 302.098927 
L 253.863078 301.612186 
L 254.555506 301.127178 
L 255.247934 300.345004 
L 255.940362 299.073195 
L 256.63279 297.061219 
L 257.325218 293.973471 
L 258.017646 289.39917 
L 258.940883 281.042342 
L 259.86412 272.397395 
L 260.556548 267.988523 
L 261.018167 266.501231 
L 261.248976 266.201611 
L 261.479786 266.162409 
L 261.710595 266.346769 
L 262.172214 267.255302 
L 262.864642 269.562654 
L 264.249497 275.603305 
L 265.865163 282.37371 
L 267.019209 286.421636 
L 268.173256 289.759633 
L 269.327303 292.467348 
L 270.481349 294.64018 
L 271.635396 296.373083 
L 272.789442 297.751014 
L 274.174298 299.031369 
L 275.559154 299.9965 
L 277.174819 300.82633 
L 279.021294 301.490448 
L 281.098578 301.987355 
L 283.63748 302.357451 
L 286.868811 302.588058 
L 290.330951 302.612106 
L 292.639044 302.433893 
L 294.254709 302.091853 
L 295.177947 301.706186 
L 295.870375 301.237377 
L 296.562802 300.561194 
L 297.024421 299.907733 
L 297.48604 298.970584 
L 297.947658 297.652485 
L 298.640086 294.765653 
L 299.332514 290.545662 
L 300.024942 284.76749 
L 301.640608 269.982472 
L 302.102226 267.479365 
L 302.563845 266.18303 
L 302.794654 265.96548 
L 303.025463 266.001458 
L 303.256273 266.259127 
L 303.717891 267.294145 
L 304.410319 269.711933 
L 305.795175 275.831944 
L 307.410841 282.588181 
L 308.564887 286.614499 
L 309.718934 289.927312 
L 310.87298 292.608064 
L 312.027027 294.757307 
L 313.181074 296.469584 
L 314.33512 297.830414 
L 315.719976 299.095895 
L 317.104832 300.048635 
L 318.720497 300.865925 
L 320.566972 301.52078 
L 322.644256 302.009982 
L 325.183158 302.37492 
L 328.414489 302.602219 
L 331.876629 302.626917 
L 332.107438 302.619207 
L 332.107438 302.619207 
" clip-path="url(#p7d3d2a33f2)" style="fill: none; stroke: #ff7f0e; stroke-width: 1.5; stroke-linecap: square"/>
   </g>
   <g id="patch_3">
    <path d="M 90 315 
L 90 43.2 
" style="fill: none; stroke: #000000; stroke-width: 0.8; stroke-linejoin: miter; stroke-linecap: square"/>
   </g>
   <g id="patch_4">
    <path d="M 343.636364 315 
L 343.636364 43.2 
" style="fill: none; stroke: #000000; stroke-width: 0.8; stroke-linejoin: miter; stroke-linecap: square"/>
   </g>
   <g id="patch_5">
    <path d="M 90 315 
L 343.636364 315 
" style="fill: none; stroke: #000000; stroke-width: 0.8; stroke-linejoin: miter; stroke-linecap: square"/>
   </g>
   <g id="patch_6">
    <path d="M 90 43.2 
L 343.636364 43.2 
" style="fill: none; stroke: #000000; stroke-width: 0.8; stroke-linejoin: miter; stroke-linecap: square"/>
   </g>
   <g id="text_15">
    <!-- (a) -->
    <g transform="translate(208.459432 37.2) scale(0.12 -0.12)">
     <use xlink:href="#DejaVuSans-28"/>
     <use xlink:href="#DejaVuSans-61" x="39.013672"/>
     <use xlink:href="#DejaVuSans-29" x="100.292969"/>
    </g>
   </g>
   <g id="legend_1">
    <g id="patch_7">
     <path d="M 262.116051 80.55625 
L 336.636364 80.55625 
Q 338.636364 80.55625 338.636364 78.55625 
L 338.636364 50.2 
Q 338.636364 48.2 336.636364 48.2 
L 262.116051 48.2 
Q 260.116051 48.2 260.116051 50.2 
L 260.116051 78.55625 
Q 260.116051 80.55625 262.116051 80.55625 
z
" style="fill: #ffffff; opacity: 0.8; stroke: #cccccc; stroke-linejoin: miter"/>
    </g>
    <g id="line2d_57">
     <path d="M 264.116051 56.298437 
L 274.116051 56.298437 
L 284.116051 56.298437 
" style="fill: none; stroke: #1f77b4; stroke-width: 1.5; stroke-linecap: square"/>
    </g>
    <g id="text_16">
     <!-- Prey -->
     <g transform="translate(292.116051 59.798437) scale(0.1 -0.1)">
      <use xlink:href="#DejaVuSans-50"/>
      <use xlink:href="#DejaVuSans-72" x="58.552734"/>
      <use xlink:href="#DejaVuSans-65" x="97.416016"/>
      <use xlink:href="#DejaVuSans-79" x="158.939453"/>
     </g>
    </g>
    <g id="line2d_58">
     <path d="M 264.116051 70.976562 
L 274.116051 70.976562 
L 284.116051 70.976562 
" style="fill: none; stroke: #ff7f0e; stroke-width: 1.5; stroke-linecap: square"/>
    </g>
    <g id="text_17">
     <!-- Predator -->
     <g transform="translate(292.116051 74.476562) scale(0.1 -0.1)">
      <defs>
       <path id="DejaVuSans-64" d="M 2906 2969 
L 2906 4863 
L 3481 4863 
L 3481 0 
L 2906 0 
L 2906 525 
Q 2725 213 2448 61 
Q 2172 -91 1784 -91 
Q 1150 -91 751 415 
Q 353 922 353 1747 
Q 353 2572 751 3078 
Q 1150 3584 1784 3584 
Q 2172 3584 2448 3432 
Q 2725 3281 2906 2969 
z
M 947 1747 
Q 947 1113 1208 752 
Q 1469 391 1925 391 
Q 2381 391 2643 752 
Q 2906 1113 2906 1747 
Q 2906 2381 2643 2742 
Q 2381 3103 1925 3103 
Q 1469 3103 1208 2742 
Q 947 2381 947 1747 
z
" transform="scale(0.015625)"/>
      </defs>
      <use xlink:href="#DejaVuSans-50"/>
      <use xlink:href="#DejaVuSans-72" x="58.552734"/>
      <use xlink:href="#DejaVuSans-65" x="97.416016"/>
      <use xlink:href="#DejaVuSans-64" x="158.939453"/>
      <use xlink:href="#DejaVuSans-61" x="222.416016"/>
      <use xlink:href="#DejaVuSans-74" x="283.695312"/>
      <use xlink:href="#DejaVuSans-6f" x="322.904297"/>
      <use xlink:href="#DejaVuSans-72" x="384.085938"/>
     </g>
    </g>
   </g>
  </g>
  <g id="axes_2">
   <g id="patch_8">
    <path d="M 394.363636 315 
L 648 315 
L 648 43.2 
L 394.363636 43.2 
z
" style="fill: #ffffff"/>
   </g>
   <g id="matplotlib.axis_3">
    <g id="xtick_24">
     <g id="line2d_59">
      <g>
       <use xlink:href="#mab4d4b15e1" x="399.843092" y="315" style="stroke: #000000; stroke-width: 0.8"/>
      </g>
     </g>
     <g id="text_18">
      <!-- 0 -->
      <g transform="translate(396.661842 326.098437) scale(0.1 -0.1)">
       <use xlink:href="#DejaVuSans-30"/>
      </g>
     </g>
    </g>
    <g id="xtick_25">
     <g id="line2d_60">
      <g>
       <use xlink:href="#mab4d4b15e1" x="442.063597" y="315" style="stroke: #000000; stroke-width: 0.8"/>
      </g>
     </g>
     <g id="text_19">
      <!-- 10 -->
      <g transform="translate(435.701097 326.098437) scale(0.1 -0.1)">
       <use xlink:href="#DejaVuSans-31"/>
       <use xlink:href="#DejaVuSans-30" x="63.623047"/>
      </g>
     </g>
    </g>
    <g id="xtick_26">
     <g id="line2d_61">
      <g>
       <use xlink:href="#mab4d4b15e1" x="484.284102" y="315" style="stroke: #000000; stroke-width: 0.8"/>
      </g>
     </g>
     <g id="text_20">
      <!-- 20 -->
      <g transform="translate(477.921602 326.098437) scale(0.1 -0.1)">
       <use xlink:href="#DejaVuSans-32"/>
       <use xlink:href="#DejaVuSans-30" x="63.623047"/>
      </g>
     </g>
    </g>
    <g id="xtick_27">
     <g id="line2d_62">
      <g>
       <use xlink:href="#mab4d4b15e1" x="526.504607" y="315" style="stroke: #000000; stroke-width: 0.8"/>
      </g>
     </g>
     <g id="text_21">
      <!-- 30 -->
      <g transform="translate(520.142107 326.098437) scale(0.1 -0.1)">
       <use xlink:href="#DejaVuSans-33"/>
       <use xlink:href="#DejaVuSans-30" x="63.623047"/>
      </g>
     </g>
    </g>
    <g id="xtick_28">
     <g id="line2d_63">
      <g>
       <use xlink:href="#mab4d4b15e1" x="568.725112" y="315" style="stroke: #000000; stroke-width: 0.8"/>
      </g>
     </g>
     <g id="text_22">
      <!-- 40 -->
      <g transform="translate(562.362612 326.098437) scale(0.1 -0.1)">
       <use xlink:href="#DejaVuSans-34"/>
       <use xlink:href="#DejaVuSans-30" x="63.623047"/>
      </g>
     </g>
    </g>
    <g id="xtick_29">
     <g id="line2d_64">
      <g>
       <use xlink:href="#mab4d4b15e1" x="610.945618" y="315" style="stroke: #000000; stroke-width: 0.8"/>
      </g>
     </g>
     <g id="text_23">
      <!-- 50 -->
      <g transform="translate(604.583118 326.098437) scale(0.1 -0.1)">
       <use xlink:href="#DejaVuSans-35"/>
       <use xlink:href="#DejaVuSans-30" x="63.623047"/>
      </g>
     </g>
    </g>
    <g id="xtick_30">
     <g id="line2d_65">
      <g>
       <use xlink:href="#mf55671d684" x="408.287193" y="315" style="stroke: #000000; stroke-width: 0.6"/>
      </g>
     </g>
    </g>
    <g id="xtick_31">
     <g id="line2d_66">
      <g>
       <use xlink:href="#mf55671d684" x="416.731294" y="315" style="stroke: #000000; stroke-width: 0.6"/>
      </g>
     </g>
    </g>
    <g id="xtick_32">
     <g id="line2d_67">
      <g>
       <use xlink:href="#mf55671d684" x="425.175395" y="315" style="stroke: #000000; stroke-width: 0.6"/>
      </g>
     </g>
    </g>
    <g id="xtick_33">
     <g id="line2d_68">
      <g>
       <use xlink:href="#mf55671d684" x="433.619496" y="315" style="stroke: #000000; stroke-width: 0.6"/>
      </g>
     </g>
    </g>
    <g id="xtick_34">
     <g id="line2d_69">
      <g>
       <use xlink:href="#mf55671d684" x="450.507698" y="315" style="stroke: #000000; stroke-width: 0.6"/>
      </g>
     </g>
    </g>
    <g id="xtick_35">
     <g id="line2d_70">
      <g>
       <use xlink:href="#mf55671d684" x="458.951799" y="315" style="stroke: #000000; stroke-width: 0.6"/>
      </g>
     </g>
    </g>
    <g id="xtick_36">
     <g id="line2d_71">
      <g>
       <use xlink:href="#mf55671d684" x="467.3959" y="315" style="stroke: #000000; stroke-width: 0.6"/>
      </g>
     </g>
    </g>
    <g id="xtick_37">
     <g id="line2d_72">
      <g>
       <use xlink:href="#mf55671d684" x="475.840001" y="315" style="stroke: #000000; stroke-width: 0.6"/>
      </g>
     </g>
    </g>
    <g id="xtick_38">
     <g id="line2d_73">
      <g>
       <use xlink:href="#mf55671d684" x="492.728203" y="315" style="stroke: #000000; stroke-width: 0.6"/>
      </g>
     </g>
    </g>
    <g id="xtick_39">
     <g id="line2d_74">
      <g>
       <use xlink:href="#mf55671d684" x="501.172304" y="315" style="stroke: #000000; stroke-width: 0.6"/>
      </g>
     </g>
    </g>
    <g id="xtick_40">
     <g id="line2d_75">
      <g>
       <use xlink:href="#mf55671d684" x="509.616405" y="315" style="stroke: #000000; stroke-width: 0.6"/>
      </g>
     </g>
    </g>
    <g id="xtick_41">
     <g id="line2d_76">
      <g>
       <use xlink:href="#mf55671d684" x="518.060506" y="315" style="stroke: #000000; stroke-width: 0.6"/>
      </g>
     </g>
    </g>
    <g id="xtick_42">
     <g id="line2d_77">
      <g>
       <use xlink:href="#mf55671d684" x="534.948708" y="315" style="stroke: #000000; stroke-width: 0.6"/>
      </g>
     </g>
    </g>
    <g id="xtick_43">
     <g id="line2d_78">
      <g>
       <use xlink:href="#mf55671d684" x="543.392809" y="315" style="stroke: #000000; stroke-width: 0.6"/>
      </g>
     </g>
    </g>
    <g id="xtick_44">
     <g id="line2d_79">
      <g>
       <use xlink:href="#mf55671d684" x="551.83691" y="315" style="stroke: #000000; stroke-width: 0.6"/>
      </g>
     </g>
    </g>
    <g id="xtick_45">
     <g id="line2d_80">
      <g>
       <use xlink:href="#mf55671d684" x="560.281011" y="315" style="stroke: #000000; stroke-width: 0.6"/>
      </g>
     </g>
    </g>
    <g id="xtick_46">
     <g id="line2d_81">
      <g>
       <use xlink:href="#mf55671d684" x="577.169214" y="315" style="stroke: #000000; stroke-width: 0.6"/>
      </g>
     </g>
    </g>
    <g id="xtick_47">
     <g id="line2d_82">
      <g>
       <use xlink:href="#mf55671d684" x="585.613315" y="315" style="stroke: #000000; stroke-width: 0.6"/>
      </g>
     </g>
    </g>
    <g id="xtick_48">
     <g id="line2d_83">
      <g>
       <use xlink:href="#mf55671d684" x="594.057416" y="315" style="stroke: #000000; stroke-width: 0.6"/>
      </g>
     </g>
    </g>
    <g id="xtick_49">
     <g id="line2d_84">
      <g>
       <use xlink:href="#mf55671d684" x="602.501517" y="315" style="stroke: #000000; stroke-width: 0.6"/>
      </g>
     </g>
    </g>
    <g id="xtick_50">
     <g id="line2d_85">
      <g>
       <use xlink:href="#mf55671d684" x="619.389719" y="315" style="stroke: #000000; stroke-width: 0.6"/>
      </g>
     </g>
    </g>
    <g id="xtick_51">
     <g id="line2d_86">
      <g>
       <use xlink:href="#mf55671d684" x="627.83382" y="315" style="stroke: #000000; stroke-width: 0.6"/>
      </g>
     </g>
    </g>
    <g id="xtick_52">
     <g id="line2d_87">
      <g>
       <use xlink:href="#mf55671d684" x="636.277921" y="315" style="stroke: #000000; stroke-width: 0.6"/>
      </g>
     </g>
    </g>
    <g id="xtick_53">
     <g id="line2d_88">
      <g>
       <use xlink:href="#mf55671d684" x="644.722022" y="315" style="stroke: #000000; stroke-width: 0.6"/>
      </g>
     </g>
    </g>
    <g id="text_24">
     <!-- Prey -->
     <g transform="translate(510.275568 339.776563) scale(0.1 -0.1)">
      <use xlink:href="#DejaVuSans-50"/>
      <use xlink:href="#DejaVuSans-72" x="58.552734"/>
      <use xlink:href="#DejaVuSans-65" x="97.416016"/>
      <use xlink:href="#DejaVuSans-79" x="158.939453"/>
     </g>
    </g>
   </g>
   <g id="matplotlib.axis_4">
    <g id="ytick_32">
     <g id="line2d_89">
      <g>
       <use xlink:href="#m80e06b18fc" x="394.363636" y="306.516011" style="stroke: #000000; stroke-width: 0.8"/>
      </g>
     </g>
     <g id="text_25">
      <!-- 0 -->
      <g transform="translate(384.501136 310.315229) scale(0.1 -0.1)">
       <use xlink:href="#DejaVuSans-30"/>
      </g>
     </g>
    </g>
    <g id="ytick_33">
     <g id="line2d_90">
      <g>
       <use xlink:href="#m80e06b18fc" x="394.363636" y="246.979888" style="stroke: #000000; stroke-width: 0.8"/>
      </g>
     </g>
     <g id="text_26">
      <!-- 2 -->
      <g transform="translate(384.501136 250.779107) scale(0.1 -0.1)">
       <use xlink:href="#DejaVuSans-32"/>
      </g>
     </g>
    </g>
    <g id="ytick_34">
     <g id="line2d_91">
      <g>
       <use xlink:href="#m80e06b18fc" x="394.363636" y="187.443766" style="stroke: #000000; stroke-width: 0.8"/>
      </g>
     </g>
     <g id="text_27">
      <!-- 4 -->
      <g transform="translate(384.501136 191.242985) scale(0.1 -0.1)">
       <use xlink:href="#DejaVuSans-34"/>
      </g>
     </g>
    </g>
    <g id="ytick_35">
     <g id="line2d_92">
      <g>
       <use xlink:href="#m80e06b18fc" x="394.363636" y="127.907644" style="stroke: #000000; stroke-width: 0.8"/>
      </g>
     </g>
     <g id="text_28">
      <!-- 6 -->
      <g transform="translate(384.501136 131.706863) scale(0.1 -0.1)">
       <use xlink:href="#DejaVuSans-36"/>
      </g>
     </g>
    </g>
    <g id="ytick_36">
     <g id="line2d_93">
      <g>
       <use xlink:href="#m80e06b18fc" x="394.363636" y="68.371522" style="stroke: #000000; stroke-width: 0.8"/>
      </g>
     </g>
     <g id="text_29">
      <!-- 8 -->
      <g transform="translate(384.501136 72.170741) scale(0.1 -0.1)">
       <use xlink:href="#DejaVuSans-38"/>
      </g>
     </g>
    </g>
    <g id="ytick_37">
     <g id="line2d_94">
      <g>
       <use xlink:href="#me4d031693d" x="394.363636" y="291.63198" style="stroke: #000000; stroke-width: 0.6"/>
      </g>
     </g>
    </g>
    <g id="ytick_38">
     <g id="line2d_95">
      <g>
       <use xlink:href="#me4d031693d" x="394.363636" y="276.74795" style="stroke: #000000; stroke-width: 0.6"/>
      </g>
     </g>
    </g>
    <g id="ytick_39">
     <g id="line2d_96">
      <g>
       <use xlink:href="#me4d031693d" x="394.363636" y="261.863919" style="stroke: #000000; stroke-width: 0.6"/>
      </g>
     </g>
    </g>
    <g id="ytick_40">
     <g id="line2d_97">
      <g>
       <use xlink:href="#me4d031693d" x="394.363636" y="232.095858" style="stroke: #000000; stroke-width: 0.6"/>
      </g>
     </g>
    </g>
    <g id="ytick_41">
     <g id="line2d_98">
      <g>
       <use xlink:href="#me4d031693d" x="394.363636" y="217.211827" style="stroke: #000000; stroke-width: 0.6"/>
      </g>
     </g>
    </g>
    <g id="ytick_42">
     <g id="line2d_99">
      <g>
       <use xlink:href="#me4d031693d" x="394.363636" y="202.327797" style="stroke: #000000; stroke-width: 0.6"/>
      </g>
     </g>
    </g>
    <g id="ytick_43">
     <g id="line2d_100">
      <g>
       <use xlink:href="#me4d031693d" x="394.363636" y="172.559736" style="stroke: #000000; stroke-width: 0.6"/>
      </g>
     </g>
    </g>
    <g id="ytick_44">
     <g id="line2d_101">
      <g>
       <use xlink:href="#me4d031693d" x="394.363636" y="157.675705" style="stroke: #000000; stroke-width: 0.6"/>
      </g>
     </g>
    </g>
    <g id="ytick_45">
     <g id="line2d_102">
      <g>
       <use xlink:href="#me4d031693d" x="394.363636" y="142.791675" style="stroke: #000000; stroke-width: 0.6"/>
      </g>
     </g>
    </g>
    <g id="ytick_46">
     <g id="line2d_103">
      <g>
       <use xlink:href="#me4d031693d" x="394.363636" y="113.023614" style="stroke: #000000; stroke-width: 0.6"/>
      </g>
     </g>
    </g>
    <g id="ytick_47">
     <g id="line2d_104">
      <g>
       <use xlink:href="#me4d031693d" x="394.363636" y="98.139583" style="stroke: #000000; stroke-width: 0.6"/>
      </g>
     </g>
    </g>
    <g id="ytick_48">
     <g id="line2d_105">
      <g>
       <use xlink:href="#me4d031693d" x="394.363636" y="83.255553" style="stroke: #000000; stroke-width: 0.6"/>
      </g>
     </g>
    </g>
    <g id="ytick_49">
     <g id="line2d_106">
      <g>
       <use xlink:href="#me4d031693d" x="394.363636" y="53.487491" style="stroke: #000000; stroke-width: 0.6"/>
      </g>
     </g>
    </g>
    <g id="text_30">
     <!-- Predator -->
     <g transform="translate(378.421449 200.360156) rotate(-90) scale(0.1 -0.1)">
      <use xlink:href="#DejaVuSans-50"/>
      <use xlink:href="#DejaVuSans-72" x="58.552734"/>
      <use xlink:href="#DejaVuSans-65" x="97.416016"/>
      <use xlink:href="#DejaVuSans-64" x="158.939453"/>
      <use xlink:href="#DejaVuSans-61" x="222.416016"/>
      <use xlink:href="#DejaVuSans-74" x="283.695312"/>
      <use xlink:href="#DejaVuSans-6f" x="322.904297"/>
      <use xlink:href="#DejaVuSans-72" x="384.085938"/>
     </g>
    </g>
   </g>
   <g id="line2d_107">
    <path d="M 408.287193 187.443766 
L 407.445031 202.083863 
L 406.736926 219.057791 
L 406.360793 233.398635 
L 406.241576 245.4432 
L 406.366245 257.749763 
L 406.722958 267.53493 
L 407.174863 273.891386 
L 407.786327 279.163514 
L 408.35554 282.51439 
L 409.024039 285.422628 
L 409.795738 287.946813 
L 410.678054 290.138089 
L 411.686931 292.039223 
L 412.835956 293.686398 
L 414.140715 295.112123 
L 415.619004 296.34528 
L 417.290837 297.411127 
L 419.178442 298.331299 
L 421.307868 299.12396 
L 423.708275 299.804091 
L 427.382355 300.557355 
L 431.675977 301.15781 
L 436.690025 301.625251 
L 444.150966 302.044062 
L 453.186901 302.293467 
L 464.094244 302.362011 
L 477.243623 302.243604 
L 493.013534 301.873043 
L 507.75855 301.296307 
L 520.173319 300.625207 
L 529.034462 299.965339 
L 543.33144 298.645413 
L 553.631178 297.544812 
L 564.497009 296.179204 
L 570.098888 295.352363 
L 575.778184 294.397293 
L 581.500909 293.284604 
L 587.227012 291.98071 
L 592.910385 290.447837 
L 598.498861 288.644017 
L 603.934213 286.52309 
L 609.152157 284.034705 
L 614.082349 281.124318 
L 618.648388 277.733195 
L 622.767811 273.798408 
L 626.352098 269.252839 
L 629.306672 264.025176 
L 631.493451 258.018231 
L 632.688838 251.08798 
L 632.721085 243.133518 
L 631.42756 234.075292 
L 628.655315 223.856469 
L 624.278082 212.460749 
L 618.216407 199.93125 
L 610.463793 186.391635 
L 601.068653 172.027256 
L 590.0826 157.028866 
L 577.887606 141.90729 
L 564.892792 127.169052 
L 551.469984 113.249692 
L 537.95371 100.51376 
L 524.641205 89.254817 
L 511.792405 79.695436 
L 499.62995 71.987202 
L 488.339184 66.210712 
L 478.068156 62.375574 
L 468.896884 60.411557 
L 460.766381 60.129827 
L 453.59533 61.31346 
L 447.304213 63.759037 
L 441.815164 67.276742 
L 437.051971 71.690357 
L 432.940079 76.837268 
L 429.406577 82.568452 
L 426.369395 88.733858 
L 423.74791 95.202416 
L 421.478382 101.872981 
L 419.506696 108.659766 
L 417.78836 115.492342 
L 416.28851 122.315633 
L 414.981904 129.089921 
L 413.852548 135.790337 
L 412.014855 148.828032 
L 410.603362 161.244796 
L 409.506972 172.949194 
L 408.283114 189.071021 
L 407.441893 203.488904 
L 406.759134 220.232254 
L 406.40873 234.374381 
L 406.300731 248.889269 
L 406.466988 260.484177 
L 406.783702 268.029198 
L 407.263927 274.295661 
L 407.905184 279.492036 
L 408.702791 283.797214 
L 409.412561 286.535018 
L 410.232509 288.911398 
L 411.173689 290.97178 
L 412.248779 292.757013 
L 413.472075 294.303367 
L 414.859499 295.642531 
L 416.429003 296.801632 
L 418.203198 297.80324 
L 420.204749 298.666232 
L 422.459604 299.407315 
L 424.997871 300.04115 
L 428.882924 300.740953 
L 433.425966 301.296558 
L 438.732633 301.725404 
L 446.620802 302.095032 
L 456.169195 302.298433 
L 467.698275 302.328351 
L 481.560235 302.140828 
L 498.138852 301.655077 
L 513.582976 300.926647 
L 526.58268 300.125094 
L 540.822428 298.996413 
L 550.955677 297.963723 
L 561.531637 296.608531 
L 572.463727 294.823917 
L 578.029669 293.731658 
L 589.324041 291.119187 
L 595.029417 289.587957 
L 600.679941 287.806896 
L 606.190703 285.693716 
L 611.47095 283.168338 
L 616.424089 280.152892 
L 620.947685 276.571716 
L 624.933461 272.35136 
L 628.267301 267.42058 
L 630.829246 261.710343 
L 632.493497 255.153824 
L 633.128413 247.686408 
L 632.596511 239.245689 
L 630.754468 229.77147 
L 627.453121 219.205763 
L 622.537462 207.492789 
L 615.847299 194.579707 
L 607.376814 180.597935 
L 597.329242 165.917307 
L 585.928153 150.902025 
L 573.4414 135.931795 
L 560.181124 121.401828 
L 546.50375 107.72284 
L 532.809901 95.32101 
L 519.481099 84.575265 
L 506.777625 75.671205 
L 494.898972 68.702002 
L 483.985776 63.693394 
L 474.119813 60.603676 
L 465.323997 59.323709 
L 457.562432 59.67695 
L 450.782109 61.460491 
L 444.885404 64.452643 
L 439.747746 68.427207 
L 435.263717 73.187954 
L 431.347051 78.568623 
L 427.930633 84.432926 
L 424.966503 90.674546 
L 422.425853 97.217135 
L 420.290727 104.004336 
L 418.463559 110.896283 
L 416.880957 117.80885 
L 415.503987 124.689986 
L 414.299485 131.495974 
L 412.304065 144.749353 
L 410.744749 157.386061 
L 409.561128 169.353324 
L 408.662962 180.587198 
L 407.680921 195.991864 
L 407.017784 209.703283 
L 406.475813 225.525768 
L 406.217617 238.848351 
L 406.1784 250.007653 
L 406.378812 261.390926 
L 406.706935 268.790848 
L 407.178767 274.944497 
L 407.807943 280.048245 
L 408.391507 283.290867 
L 409.07711 286.103612 
L 409.87022 288.54335 
L 410.776109 290.659877 
L 411.806178 292.496227 
L 412.978453 294.087926 
L 414.308468 295.465593 
L 415.814289 296.656664 
L 417.516532 297.685386 
L 419.438357 298.572822 
L 421.605472 299.336851 
L 424.04809 299.992367 
L 427.790398 300.718464 
L 432.163976 301.296563 
L 437.269025 301.744726 
L 444.86081 302.141261 
L 454.052149 302.368017 
L 465.156804 302.424925 
L 478.516805 302.272994 
L 494.554795 301.875983 
L 509.560861 301.285441 
L 522.178079 300.589879 
L 536.011048 299.582517 
L 545.841694 298.642412 
L 556.161548 297.43832 
L 567.019561 295.936891 
L 572.627984 295.03993 
L 578.326842 294.015821 
L 584.083482 292.835378 
L 589.856635 291.463854 
L 595.596418 289.86094 
L 601.244329 287.98077 
L 606.73325 285.771918 
L 611.987449 283.177396 
L 616.922575 280.134659 
L 621.445663 276.5756 
L 625.455131 272.426553 
L 628.840779 267.608292 
L 631.483793 262.036031 
L 633.256743 255.619424 
L 634.022601 248.262332 
L 633.580238 239.85037 
L 631.728255 230.285956 
L 628.322231 219.527062 
L 623.258274 207.585782 
L 616.476469 194.530114 
L 607.994291 180.514513 
L 597.91914 165.786607 
L 586.4449 150.669888 
L 573.852036 135.563733 
L 560.50117 120.947847 
L 546.778517 107.249963 
L 533.036074 94.816562 
L 519.585104 83.930595 
L 506.696132 74.811484 
L 494.598948 67.615123 
L 483.482607 62.433875 
L 473.495427 59.296574 
L 464.720275 58.136864 
L 457.026928 58.639593 
L 450.28182 60.535655 
L 444.37602 63.598382 
L 439.214479 67.626935 
L 434.716024 72.446304 
L 430.813361 77.907308 
L 427.453078 83.886594 
L 424.59564 90.286638 
L 422.175903 96.985729 
L 420.094216 103.840504 
L 418.292441 110.771728 
L 416.721373 117.712317 
L 415.340513 124.607014 
L 414.118062 131.412395 
L 412.064723 144.640656 
L 410.481055 157.286299 
L 409.340973 169.330099 
L 408.463713 180.607796 
L 407.506216 196.06175 
L 406.692726 214.016232 
L 406.241878 229.200945 
L 406.050621 241.960769 
L 406.092961 255.008277 
L 406.383046 265.3901 
L 406.772688 272.138642 
L 407.313995 277.738958 
L 408.019998 282.376083 
L 408.664282 285.319971 
L 409.411343 287.873078 
L 410.264439 290.087601 
L 411.234099 292.008892 
L 412.338905 293.674432 
L 413.593585 295.116301 
L 415.01524 296.363269 
L 416.623365 297.440805 
L 418.439845 298.371074 
L 420.488959 299.172936 
L 422.799693 299.862148 
L 426.340656 300.627762 
L 430.48052 301.240735 
L 435.315416 301.721011 
L 442.510969 302.157001 
L 451.230895 302.42669 
L 461.773428 302.531151 
L 474.482089 302.447849 
L 489.763463 302.146102 
L 504.094013 301.664977 
L 516.184557 301.092298 
L 529.483727 300.256848 
L 538.940973 299.444322 
L 554.200072 297.855724 
L 565.118309 296.496923 
L 576.509778 294.754369 
L 582.314939 293.676478 
L 588.142748 292.417742 
L 593.946716 290.9398 
L 599.673348 289.199461 
L 605.262137 287.148704 
L 610.645568 284.734681 
L 615.749119 281.899712 
L 620.491258 278.581293 
L 624.783444 274.712085 
L 628.530129 270.219926 
L 631.628753 265.027821 
L 633.967626 259.052791 
L 635.34441 252.162023 
L 635.54966 244.227522 
L 634.411224 235.160262 
L 631.768738 224.897197 
L 627.486204 213.413207 
L 621.47113 200.741583 
L 613.704646 186.99765 
L 604.251172 172.38618 
L 593.173633 157.118293 
L 580.773059 141.630452 
L 567.489041 126.463083 
L 553.721146 112.082815 
L 539.828919 98.882485 
L 526.13188 87.181135 
L 512.909524 77.224012 
L 500.401326 69.182572 
L 488.806734 63.154472 
L 478.285174 59.163579 
L 468.934502 57.145218 
L 460.685801 56.881136 
L 453.428614 58.12306 
L 447.063112 60.645078 
L 441.499235 64.243298 
L 436.656701 68.735848 
L 432.465 73.962874 
L 428.863396 79.786544 
L 425.800918 86.091031 
L 423.194094 92.731944 
L 420.947932 99.570228 
L 419.004754 106.520222 
L 417.315659 113.509481 
L 415.840522 120.478772 
L 414.547998 127.382076 
L 413.415516 134.186588 
L 412.429287 140.872715 
L 410.845241 153.830234 
L 409.630847 166.086913 
L 408.692384 177.583507 
L 407.658527 193.355352 
L 406.946987 207.388757 
L 406.371097 223.612212 
L 406.09136 237.276418 
L 406.045187 251.270559 
L 406.255539 262.424151 
L 406.591914 269.674553 
L 407.082135 275.690268 
L 407.729599 280.674011 
L 408.536648 284.801044 
L 409.251565 287.424476 
L 410.075156 289.70149 
L 411.018703 291.675298 
L 412.095036 293.384843 
L 413.318754 294.864869 
L 414.70622 296.14592 
L 416.275563 297.254342 
L 418.048929 298.212232 
L 420.050053 299.037669 
L 422.30444 299.746429 
L 424.841966 300.352422 
L 428.725603 301.021104 
L 433.26728 301.551672 
L 438.574108 301.961614 
L 446.466225 302.316156 
L 456.021556 302.509353 
L 467.568669 302.539922 
L 481.466568 302.366441 
L 498.104591 301.907219 
L 509.555086 301.427539 
L 526.700843 300.44876 
L 541.052596 299.373079 
L 551.292994 298.394435 
L 562.004389 297.109038 
L 573.098916 295.408027 
L 578.75501 294.361505 
L 584.461698 293.160082 
L 590.211414 291.798678 
L 596.01978 290.30713 
L 601.813068 288.605046 
L 607.500783 286.600134 
L 612.986759 284.203073 
L 618.16916 281.32751 
L 622.940478 277.890062 
L 627.187535 273.810316 
L 630.791479 269.010825 
L 633.62779 263.417115 
L 635.566277 256.957677 
L 636.471074 249.563975 
L 636.200649 241.170439 
L 634.607796 231.71447 
L 631.539639 221.136437 
L 626.837629 209.379679 
L 620.337548 196.390504 
L 611.952656 182.212368 
L 601.881546 167.216729 
L 590.350888 151.782798 
L 577.635128 136.307901 
L 564.059904 121.211233 
L 550.002047 106.933867 
L 535.888125 93.937724 
L 522.110984 82.614603 
L 508.959701 73.178476 
L 496.658693 65.752676 
L 485.364872 60.379467 
L 475.167642 57.020047 
L 466.0889 55.554545 
L 458.098884 55.796906 
L 451.133525 57.532669 
L 445.06323 60.51038 
L 439.771888 64.50496 
L 435.161538 69.321533 
L 431.152365 74.795421 
L 427.682702 80.792148 
L 424.709028 87.207435 
L 422.202643 93.96307 
L 420.06934 100.912869 
L 418.229752 107.948361 
L 416.634932 115.002511 
L 415.243501 122.018973 
L 414.021657 128.952094 
L 411.989369 142.43914 
L 410.419072 155.312214 
L 409.262154 167.53168 
L 408.372349 178.974262 
L 407.401784 194.654555 
L 406.576421 212.870789 
L 406.115703 228.273511 
L 405.914537 241.213426 
L 405.942585 254.441311 
L 406.214993 264.963584 
L 406.587432 271.801951 
L 407.10846 277.475357 
L 407.790578 282.171595 
L 408.41415 285.152244 
L 409.137678 287.736823 
L 409.963977 289.978578 
L 410.903491 291.923592 
L 411.974368 293.609618 
L 413.190932 295.069198 
L 414.569819 296.331537 
L 416.129973 297.42251 
L 417.892655 298.364658 
L 419.881441 299.17719 
L 422.12468 299.876126 
L 425.5626 300.653533 
L 429.583019 301.277567 
L 434.280079 301.768924 
L 439.764895 302.143377 
L 447.925444 302.463095 
L 457.805545 302.626206 
L 469.735615 302.620013 
L 481.006696 302.468641 
L 481.006696 302.468641 
" clip-path="url(#pd45cb0e822)" style="fill: none; stroke: #000000; stroke-width: 1.5; stroke-linecap: square"/>
   </g>
   <g id="patch_9">
    <path d="M 394.363636 315 
L 394.363636 43.2 
" style="fill: none; stroke: #000000; stroke-width: 0.8; stroke-linejoin: miter; stroke-linecap: square"/>
   </g>
   <g id="patch_10">
    <path d="M 648 315 
L 648 43.2 
" style="fill: none; stroke: #000000; stroke-width: 0.8; stroke-linejoin: miter; stroke-linecap: square"/>
   </g>
   <g id="patch_11">
    <path d="M 394.363636 315 
L 648 315 
" style="fill: none; stroke: #000000; stroke-width: 0.8; stroke-linejoin: miter; stroke-linecap: square"/>
   </g>
   <g id="patch_12">
    <path d="M 394.363636 43.2 
L 648 43.2 
" style="fill: none; stroke: #000000; stroke-width: 0.8; stroke-linejoin: miter; stroke-linecap: square"/>
   </g>
   <g id="text_31">
    <!-- (b) -->
    <g transform="translate(512.690881 37.2) scale(0.12 -0.12)">
     <defs>
      <path id="DejaVuSans-62" d="M 3116 1747 
Q 3116 2381 2855 2742 
Q 2594 3103 2138 3103 
Q 1681 3103 1420 2742 
Q 1159 2381 1159 1747 
Q 1159 1113 1420 752 
Q 1681 391 2138 391 
Q 2594 391 2855 752 
Q 3116 1113 3116 1747 
z
M 1159 2969 
Q 1341 3281 1617 3432 
Q 1894 3584 2278 3584 
Q 2916 3584 3314 3078 
Q 3713 2572 3713 1747 
Q 3713 922 3314 415 
Q 2916 -91 2278 -91 
Q 1894 -91 1617 61 
Q 1341 213 1159 525 
L 1159 0 
L 581 0 
L 581 4863 
L 1159 4863 
L 1159 2969 
z
" transform="scale(0.015625)"/>
     </defs>
     <use xlink:href="#DejaVuSans-28"/>
     <use xlink:href="#DejaVuSans-62" x="39.013672"/>
     <use xlink:href="#DejaVuSans-29" x="102.490234"/>
    </g>
   </g>
  </g>
 </g>
 <defs>
  <clipPath id="p7d3d2a33f2">
   <rect x="90" y="43.2" width="253.636364" height="271.8"/>
  </clipPath>
  <clipPath id="pd45cb0e822">
   <rect x="394.363636" y="43.2" width="253.636364" height="271.8"/>
  </clipPath>
 </defs>
</svg>
